<?xml version="1.0" encoding="UTF-8"?>
<svg id="b" data-name="Layer 2" xmlns="http://www.w3.org/2000/svg" width="301.176" height="245.247" viewBox="0 0 301.176 245.247">
  <defs>
    <style>
      .d {
        fill: #d56a37;
      }
    </style>
  </defs>
  <g id="c" data-name="Layer 1">
    <g>
      <path d="M134.596,90.16c-.184-1.092-.352-1.635-.355-2.178-.024-5.497,.114-11-.083-16.49-.095-2.648,.875-4.3,2.952-5.815,10.425-7.601,20.77-15.312,31.14-22.988,2.389-1.768,2.343-1.882,.486-4.264-4.708-6.04-9.389-12.102-14.005-18.212-1.037-1.373-2.116-2.121-3.926-2.106-9.079,.075-18.16,.091-27.239,0-2.406-.024-3.154,.86-3.141,3.228,.073,13.411-.003,26.822,.028,40.234,.004,1.684-.237,3.053-1.722,4.128-4.856,3.514-9.647,7.116-14.478,10.665-.314,.231-.743,.305-1.474,.591-.124-.852-.309-1.527-.309-2.202-.019-23.99-.003-47.981-.054-71.971C102.413,.729,103.118-.005,105.175,0c18.243,.044,36.486-.014,54.728,.082,1.122,.006,2.606,.775,3.304,1.671,10.592,13.594,21.055,27.287,31.628,40.895,1.169,1.504,1.079,2.308-.409,3.4-8.453,6.206-16.855,12.481-25.281,18.724-10.769,7.981-21.543,15.956-32.319,23.927-.578,.428-1.204,.791-2.23,1.46Z"/>
      <path d="M120.496,115.476c0,2.326,.003,4.287,0,6.248-.007,4.165,.028,8.33-.044,12.494-.032,1.828,.722,2.496,2.529,2.492,17.659-.036,35.318-.001,52.976-.083,.906-.004,2.113-.661,2.664-1.399,4.927-6.602,9.699-13.32,14.614-19.932,1.044-1.405,.974-2.394-.049-3.738-7.164-9.404-14.212-18.896-21.431-28.257-1.459-1.892-1.267-2.871,.634-4.139,3.391-2.263,6.735-4.617,9.924-7.152,1.734-1.378,2.806-1.228,4.078,.475,5.383,7.201,10.835,14.351,16.245,21.532,4.306,5.716,8.54,11.487,12.915,17.149,1.162,1.503,1.252,2.568,.091,4.146-9.076,12.335-18.09,24.716-27.047,37.138-1.192,1.653-2.474,2.391-4.54,2.386-25.988-.055-51.977-.031-77.966-.042-3.637-.001-3.64-.036-3.639-3.554,0-6.914-.063-13.828,.069-20.739,.022-1.176,.555-2.758,1.416-3.435,4.907-3.856,9.981-7.5,15.013-11.196,.24-.176,.616-.166,1.549-.395Z"/>
      <path class="d" d="M.075,211.969c0-9.41,.049-18.821-.038-28.23-.019-2.08,.69-2.807,2.741-2.744,3.994,.122,7.994,.126,11.99,.058,1.866-.032,2.473,.74,2.449,2.532-.06,4.663-.042,9.328,.06,13.989,.02,.906,.559,1.801,.859,2.701,.828-.304,1.758-.455,2.467-.935,6.526-4.417,16.933-3.194,22.521,2.554,6.162,6.339,7.027,14.106,6.08,22.292-.557,4.816-2.17,9.218-5.096,13.329-5.367,7.542-17.925,8.724-24.327,4.491-1.388-.918-2.386-1.472-3.344,.481-.238,.486-1.223,.84-1.871,.851-3.829,.062-7.661-.03-11.491,0-2.363,.019-3.143-1.069-3.071-3.39,.143-4.659,.045-9.326,.046-13.99,0-4.664,0-9.327,0-13.991,.008,0,.016,0,.024,0Zm32.86,8.33c-.502-2.359-.825-4.845-1.585-7.189-.87-2.683-3.718-4.546-6.273-4.544-3.302,.004-5.849,1.663-6.98,4.684-1.725,4.609-1.675,9.291-.318,13.973,.86,2.966,3.821,5.19,6.872,5.273,2.772,.076,6.014-2.106,6.842-4.945,.669-2.292,.95-4.698,1.441-7.253Z"/>
      <path class="d" d="M168.092,240.777c-.525,.198-1.125,.293-1.563,.611-9.286,6.726-24.396,2.508-28.684-10.171-2.584-7.639-2.604-15.146,.086-22.705,3.798-10.673,18.138-15.341,27.42-8.956,.607,.418,1.528,.766,2.167,.605,.378-.095,.68-1.251,.689-1.934,.062-4.831,.095-9.665,.017-14.495-.03-1.863,.496-2.77,2.536-2.723,4.08,.094,8.165,.063,12.246-.016,1.858-.036,2.453,.734,2.448,2.543-.057,18.907-.071,37.814-.046,56.722,.002,1.794-.417,2.876-2.447,2.887-4.08,.021-8.162,.238-12.236,.11-.893-.028-1.752-1.16-2.627-1.784-.002-.231-.004-.462-.006-.693Zm-15.35-20.164c.451,2.271,.669,4.863,1.499,7.242,1.782,5.108,8.121,6.259,11.753,2.294,3.607-3.937,3.795-14.724,.34-18.791-1.796-2.114-4.026-3.325-6.809-2.738-2.765,.584-4.901,2.158-5.578,5.074-.501,2.158-.771,4.37-1.205,6.919Z"/>
      <path class="d" d="M192.535,219.338c-.248-13.706,10.716-22.855,24.558-23.259,5.177-.151,10.279,.259,15.101,2.57,6.818,3.268,10.963,8.633,12.434,15.911,1.962,9.705,.178,18.407-7.904,24.991-3.859,3.144-8.447,4.615-13.307,5.211-5.943,.729-11.899,.575-17.432-1.891-9.646-4.299-13.626-12.188-13.45-23.533Zm16.785,.688c.323,2.597,.465,4.761,.883,6.87,.762,3.85,4.479,6.673,8.547,6.673,4.092,0,7.768-2.564,8.335-6.451,.544-3.738,.798-7.596,.526-11.354-.336-4.642-3.308-7.437-7.347-7.824-5.134-.492-8.161,1.308-9.78,6.157-.672,2.013-.838,4.194-1.164,5.929Z"/>
      <path class="d" d="M252.61,220.719c0-6.577,.053-13.155-.031-19.73-.027-2.14,.772-3.04,2.913-2.992,3.578,.081,7.159,.074,10.739,.038,1.65-.016,2.412,.546,2.371,2.337-.02,.871,.622,1.758,.965,2.637,.73-.449,1.629-.753,2.165-1.37,5.167-5.949,17.615-6.281,24.062-1.533,3.501,2.579,5.091,6.464,5.192,10.658,.243,10.068,.207,20.144,.143,30.215-.005,.734-1.112,2.062-1.758,2.095-4.398,.224-8.812,.246-13.218,.179-1.93-.029-2.032-1.565-2.029-3.083,.014-7.326,.04-14.653-.027-21.978-.037-4.066-1.2-6.23-4.1-6.906-5.144-1.199-10.245,.091-10.366,7.06-.124,7.158-.036,14.319-.054,21.479-.009,3.538-.022,3.542-3.641,3.548-3.497,.006-6.996-.084-10.489,.035-2.209,.075-2.913-.839-2.886-2.961,.083-6.576,.03-13.153,.03-19.73h.02Z"/>
      <path class="d" d="M103.554,233.381c-2.385,3.963-5.331,6.793-9.142,8.669-6.932,3.414-14.254,3.974-21.667,2.251-10.274-2.387-17.451-11.807-17.685-22.389-.168-7.611,1.581-14.521,7.559-19.524,2.722-2.278,6.121-4.225,9.528-5.115,8.718-2.277,17.248-1.56,24.625,4.303,6.154,4.891,8.137,11.717,8.362,19.263,.068,2.269-1.284,2.536-3.073,2.528-8.249-.036-16.499-.052-24.748-.009-1.577,.008-3.949-.689-4.306,1.37-.302,1.743,.288,4.079,1.337,5.538,3.177,4.418,10.245,4.485,13.64,.024,1.825-2.398,3.336-2.301,5.64-1.193,3.128,1.503,6.373,2.765,9.93,4.286Zm-23.572-18.472c0-.047,0-.094,0-.141,1.903,0,3.848,.229,5.688-.112,.742-.138,1.796-1.541,1.771-2.339-.097-3.025-3.779-5.859-7.073-5.753-3.698,.119-7.143,3.131-7.001,6.394,.03,.677,1.145,1.718,1.901,1.864,1.52,.294,3.137,.087,4.713,.087Z"/>
      <path class="d" d="M111.644,212.252c0-9.331,.057-18.662-.04-27.992-.024-2.335,.679-3.309,3.117-3.237,3.827,.114,7.665,.028,11.494-.098,1.983-.065,2.835,.556,2.829,2.687-.055,18.995-.049,37.99,0,56.986,.005,2.082-.832,2.804-2.831,2.765-3.996-.077-7.996-.109-11.99,.015-2.014,.063-2.603-.735-2.591-2.633,.056-9.497,.026-18.995,.026-28.493-.005,0-.009,0-.014,0Z"/>
      <path class="d" d="M85.809,125.726c-.09-1.369-.194-2.24-.196-3.111-.013-4.833,.089-9.668-.04-14.497-.057-2.116,.542-3.613,2.279-4.882,8.462-6.183,16.861-12.451,25.292-18.676,2.19-1.617,4.414-3.187,7.228-5.214,0,4.86,.001,9.138-.003,13.415,0,.333-.123,.685-.05,.995,1.238,5.242-1.567,8.113-5.579,10.926-8.986,6.299-17.659,13.043-26.471,19.59-.629,.467-1.353,.806-2.459,1.455Z"/>
    </g>
  </g>
</svg>