<?xml version="1.0" encoding="UTF-8"?><svg id="Layer_2" xmlns="http://www.w3.org/2000/svg" viewBox="0 0 550.38 166.77"><defs><style>.cls-1{fill:#040404;}.cls-2{fill:#cb6117;}</style></defs><g id="Layer_1-2"><g><path class="cls-2" d="M32.75,34.19c27.07-16.4,55.04-.3,56.19,31.18,.32,8.69-.71,17.2-3.97,25.31-8.72,21.75-33.27,29.25-52.96,15.91,.52,4.47-2.1,4.74-5.46,4.66-7.48-.18-14.96-.16-22.44,0C1.27,111.3-.01,110.78,0,107.5,.12,72.88,.1,38.27,.02,3.66,0,.79,.95-.01,3.74,.04,12.05,.19,20.37,.27,28.67,0c3.5-.11,4.17,1.24,4.13,4.31-.14,9.71-.05,19.43-.05,29.87Zm-.69,35.9c-.14,3.98-.08,7.93,1.55,11.66,2.01,4.59,5.24,7.63,10.52,7.68,5.27,.05,8.87-2.76,10.59-7.49,2.85-7.84,2.85-15.91,.07-23.74-1.67-4.7-5.36-7.62-10.61-7.48-5.14,.14-8.58,3.03-10.56,7.7-1.59,3.74-1.71,7.69-1.57,11.66Z"/><path class="cls-2" d="M293.62,34.96c0-10.92,.13-20.82-.07-30.73-.07-3.24,.84-4.31,4.16-4.21,7.98,.23,15.97,.27,23.95-.01,3.7-.13,4.32,1.29,4.31,4.57-.1,33.97-.12,67.93,.01,101.9,.01,3.55-.65,4.98-4.6,4.8-7.47-.34-14.97-.23-22.45-.03-3.1,.08-5.22-.42-5.01-4.51-10.41,7.51-21.37,8.03-32.61,4.26-9.93-3.33-16.35-10.64-20.07-20.14-5.18-13.23-5.85-26.78-1.2-40.31,3.47-10.09,10.15-17.49,20.41-21,11.49-3.92,22.55-3.28,33.16,5.41Zm.67,34.93c-.19-2.22-.34-4.86-.69-7.48-.17-1.29-.64-2.56-1.13-3.78-1.96-4.91-6.25-8.09-10.94-7.93-5.25,.18-8.87,3.11-10.41,7.83-2.61,8.03-2.79,16.25,.55,24.18,1.82,4.31,5.28,6.76,10.09,6.72,4.97-.04,8.39-2.65,10.51-7.02,1.86-3.83,1.71-8,2.01-12.52Z"/><path class="cls-2" d="M471.51,39.55c10.54-12.41,23.4-13.59,37.03-10.54,12.18,2.73,19.31,12.39,19.64,26.59,.41,17.39,.12,34.79,.31,52.18,.03,3.07-1.25,3.49-3.84,3.45-8.31-.12-16.64-.2-24.95,.03-3.37,.09-4.17-1.07-4.14-4.25,.16-13.75,.15-27.5,.03-41.25-.07-8.05-3.86-11.44-11.86-11.1-6.41,.27-10.12,3.63-10.29,10.36-.34,13.74-.4,27.49-.29,41.24,.03,3.81-.87,5.21-4.95,5.03-7.8-.34-15.63-.22-23.45-.04-3.1,.07-4.31-.59-4.29-4.03,.15-24.52,.16-49.04,0-73.56-.02-3.54,1.32-4,4.31-3.93,7.15,.18,14.32,.37,21.45-.06,4.46-.26,6.06,1.08,5.31,5.41-.19,1.12-.03,2.31-.03,4.47Z"/><path class="cls-2" d="M430.73,70.73c-.01,25.13-17.13,42.06-44.05,43.42-13.8,.69-27.14-1.14-37.67-10.98-14.35-13.41-16.32-30.3-10.87-48.03,5.35-17.4,18.8-25.72,36.24-28.28,7.11-1.05,14.26-.89,21.31,.59,22.79,4.8,35.05,19.97,35.03,43.29Zm-32.96-.62c.06-4.16-.25-8.24-1.81-12.18-2.19-5.53-6.16-8.49-12.11-8.66-6.05-.17-10.82,2.27-13.17,7.91-3.66,8.78-3.6,17.79,.14,26.54,2.32,5.43,6.92,7.89,12.79,7.69,5.9-.2,9.96-3.14,12.14-8.66,1.61-4.08,2.1-8.31,2.03-12.64Z"/><path class="cls-2" d="M157.4,76.37c-7.99,0-15.97,.13-23.96-.06-3.47-.08-4.8,.59-3.83,4.43,1.42,5.61,4.71,9.09,10.27,10.22,6.12,1.24,11.54-.66,14.73-5.93,2.43-4.01,4.62-3.9,8.29-2.18,6,2.82,12.17,5.29,18.37,7.65,2.92,1.11,2.9,2.23,1.17,4.5-8.4,11.02-19.55,17-33.22,18.97-20.79,3-39.54-5.02-47.96-21.76-7.9-15.71-7.88-31.86,1.57-46.93,9.18-14.65,23.7-19.24,40.37-18.72,10.65,.33,20.28,3.28,28.5,10.17,11.62,9.74,14.36,22.87,14.31,37.12,0,3.09-1.96,2.48-3.66,2.48-8.32,.04-16.64,.02-24.95,.02Zm-16.38-17.59c2.97,0,5.94-.09,8.91,.03,2.52,.1,3.15-.78,2.45-3.21-1.38-4.81-4.48-7.52-9.37-8.25-4.94-.73-9.13,1.43-11.5,5.86-2.55,4.77-2.13,5.54,3.07,5.57,2.15,0,4.29,0,6.44,0Z"/><path class="cls-2" d="M227.44,55.63c0,17.05-.09,34.11,.07,51.16,.03,3.45-.95,4.57-4.48,4.47-8.14-.24-16.29-.21-24.43,0-3.11,.08-3.91-.96-3.9-3.95,.09-34.44,.09-68.88,0-103.32,0-2.98,.77-4.04,3.89-3.96,8.14,.2,16.29,.23,24.43,0,3.51-.1,4.52,1,4.48,4.46-.16,17.05-.07,34.11-.07,51.16Z"/><path class="cls-1" d="M369.94,143.27c-1.78,6.53-3.73,13.02-5.28,19.6-.73,3.11-2.78,2.67-4.91,2.7-2.17,.04-4.2,.33-4.94-2.67-1.61-6.5-3.51-12.93-6.1-19.28,0,6.13-.29,12.27,.1,18.37,.26,4.11-2.1,3.62-4.62,3.57-2.44-.04-4.87,.68-4.74-3.5,.31-9.92,.2-19.86,.04-29.79-.04-2.69,.85-3.23,3.38-3.28,10.15-.19,10.15-.29,12.73,9.32,1.19,4.43,2.37,8.86,4.62,13.48,1.47-5.36,2.82-10.76,4.48-16.07,.7-2.23,.04-5.81,2.74-6.37,3.66-.76,7.61-.38,11.41-.13,1.52,.1,.96,1.86,.97,2.9,.04,10.1-.13,20.2,.1,30.29,.09,3.96-2.4,3.13-4.57,3.13-2.18,0-4.73,.82-4.58-3.15,.24-6.28,0-12.57-.05-18.86,1.27-.6,.8-1.58,.46-3.08-.52,1.2-.87,2-1.22,2.8Z"/><path class="cls-1" d="M179.13,146.58c0,5.22-.24,10.46,.07,15.67,.26,4.32-2.6,3.25-4.88,3.3-2.23,.05-4.56,.71-4.44-3.2,.27-9.42-.01-18.86,.19-28.28,.03-1.6-1.66-4.69,1.4-4.8,3.1-.12,6.97-1.99,9.31,2.22,3.28,5.92,6.77,11.71,11.17,17.54,0-5.11,.2-10.23-.07-15.33-.18-3.42,.4-4.82,4.42-4.81,4.1,0,4.83,1.34,4.73,5.01-.25,8.92,.01,17.86-.17,26.79-.03,1.6,1.61,4.66-1.61,4.71-2.99,.05-6.67,1.88-8.93-2.1-3.25-5.72-6.69-11.34-10.04-17l-1.12,.27Z"/><path class="cls-1" d="M479.49,149.18c0-5.7,.22-11.42-.07-17.1-.22-4.14,2.54-2.96,4.57-2.96,2.02,0,4.69-1.18,4.58,2.95-.26,9.43,0,18.88-.16,28.32-.03,1.69,1.39,4.73-1.34,4.94-3.11,.24-6.99,1.97-9.36-2.17-3.35-5.88-6.87-11.66-11.19-17.46,0,5.13-.29,10.28,.1,15.38,.3,3.89-1.11,4.52-4.69,4.63-4.04,.13-4.56-1.38-4.47-4.84,.23-8.94-.03-17.89,.18-26.83,.04-1.6-1.68-4.69,1.41-4.8,3.1-.11,6.94-1.99,9.28,2.32,3.28,6.02,6.89,11.87,10.36,17.79,.27-.06,.54-.12,.82-.18Z"/><path class="cls-1" d="M32.54,165.05c-9.7,1.23-9.6,1.18-14.09-6.49-1.37-2.35-1.56-6.04-5.7-5.96-1.95,.04-3.24,.38-3.04,2.72,.13,1.48,.02,2.98,.02,4.47,0,6.26-.02,6.2-6.42,5.81-2.01-.12-2.98-.53-2.96-2.81,.1-10.27,.09-20.55,0-30.83-.02-2.08,.51-3,2.77-2.94,5.98,.17,11.99-.11,17.95,.32,4.9,.35,8.93,2.45,10.28,7.82,1.45,5.81,.41,9.48-4.66,12.81-2.21,1.45-1.47,2.37-.56,3.89,2.11,3.55,4.12,7.15,6.41,11.17Zm-17.84-19.41c.44,0,.61,0,.78,0,2.84-.07,5.91,.13,6.74-3.55,.45-2,.43-4.24-1.77-5.2-3.27-1.44-7.24-1.81-10.06-.22-1.87,1.06-.96,5.03-.46,7.51,.55,2.75,3.36,.88,4.78,1.46Z"/><path class="cls-1" d="M95.66,128.08c11.03-.01,18.54,7.91,18.54,19.52,0,11.02-7.91,19.19-18.55,19.18-10.71-.02-18.04-7.94-18.05-19.5,0-11.78,6.97-19.19,18.06-19.2Zm9.24,19.07c-.13-6.8-3.84-11.36-9.24-11.35-5.45,.01-8.89,4.49-8.83,11.51,.05,6.91,3.69,11.48,9.06,11.39,5.3-.1,9.14-5.02,9.02-11.55Z"/><path class="cls-1" d="M73.29,146.96c.23,11.5-7.4,19.74-18.33,19.8-10.66,.06-18.14-7.85-18.3-19.34-.15-11.26,7.03-19.18,17.53-19.34,11.33-.16,18.87,7.29,19.1,18.88Zm-27.29-.24c-.14,7.22,3.42,11.99,8.93,11.97,5.2-.01,8.87-4.48,9.03-10.96,.17-7.14-3.41-11.85-9.02-11.89-5.34-.04-8.8,4.18-8.93,10.88Z"/><path class="cls-1" d="M315.33,128.08c11.17-.01,18.55,7.69,18.56,19.39,.02,11.28-7.56,19.25-18.31,19.28-10.67,.03-18.13-7.85-18.32-19.34-.19-11.44,7.18-19.33,18.06-19.34Zm-8.72,18.94c-.05,6.8,3.53,11.58,8.8,11.72,5.23,.14,9.24-4.73,9.31-11.3,.07-6.75-3.53-11.38-8.96-11.55-5.54-.17-9.09,4.16-9.15,11.14Z"/><path class="cls-1" d="M233.79,152.29c-1.7,0-3.05-.17-4.34,.03-3.13,.48-3.87-.77-3.86-3.8,0-2.98,1.09-3.67,3.74-3.4,4.07,.42,9.51-1.78,11.87,.89,2,2.26,.58,7.54,.66,11.48,.02,1.16,0,2.32,0,3.48-.02,4.35-2.94,6.68-6.28,4.19-2.42-1.81-3.5-.79-5.26-.04-8.11,3.47-16.73,.28-20.64-7.58-2.8-5.63-3.06-11.49-1.2-17.35,4.19-13.17,21.54-16.77,30.96-6.45,.78,.86,3.02,2.26,.75,3.4-2.02,1.01-3.46,4.58-6.66,2.13-5.93-4.54-10.46-4.88-13.98-1.07-3.82,4.14-3.78,13.9,.07,18,4.55,4.86,11.76,3.15,14.17-3.92Z"/><path class="cls-1" d="M417.42,165.8c4.51-12.03,8.82-23.23,12.86-34.52,1.32-3.68,4.09-1.93,6.24-2.12,1.9-.16,4.13-.96,5.23,2.17,3.64,10.43,7.61,20.75,11.5,31.09,.87,2.3,.53,3.33-2.23,3.19-3.51-.18-7.53,1-8.22-4.44-.2-1.56-1.72-1.24-2.84-1.25-2.66-.02-5.32-.01-7.98,0-1.15,0-2.72-.23-2.97,1.15-1.35,7.6-7.01,3.44-11.6,4.72Zm18.41-27.14c-1.59,5.38-2.88,9.76-4.22,14.27q8.87,.42,6.43-7.36c-.61-1.95-1.25-3.89-2.21-6.9Z"/><path class="cls-1" d="M388.79,147.29c0-5.12,.08-10.25-.04-15.37-.05-2.12,.61-2.94,2.8-2.89,5.8,.15,11.62-.07,17.41,.22,7.18,.35,10.86,4.15,11.42,11.21,.51,6.4-3.37,11.47-10.03,12.66-2.75,.49-5.63,.62-8.41,.42-3.16-.22-4.22,.97-3.83,3.95,.15,1.14,.15,2.33,0,3.46-.21,1.5,1,3.84-1.11,4.31-2.35,.53-4.96,.32-7.37-.08-1.36-.23-.8-1.96-.81-3.04-.05-4.96-.02-9.92-.02-14.87Zm9.46-6.13c-.52,3.3-.62,6.21,4.41,5.55,3.73-.49,8.07,.44,8.08-5.36,.01-5.83-4.37-4.89-8.08-5.36-4.33-.56-5.22,1.45-4.42,5.17Z"/><path class="cls-1" d="M119.54,147.03c0-4.96,.11-9.92-.05-14.88-.07-2.33,.58-3.18,3.04-3.13,7.47,.15,14.94,.19,22.4-.02,3.11-.09,2.93,1.57,2.96,3.69,.02,2.21-.02,3.77-3.06,3.59-4.3-.26-8.64,.14-12.94-.14-3.23-.21-2.96,1.65-2.86,3.69,.09,1.85-.7,4.09,2.7,3.87,3.64-.23,7.31,.14,10.95-.11,2.9-.2,3.69,.85,3.57,3.61-.1,2.39-.08,4.36-3.34,3.78-.48-.09-.99-.02-1.49-.01-3.96,.09-8.94-1.24-11.57,.67-2.5,1.81-.89,7.11-.73,10.83,.18,4.04-2.46,3.13-4.57,3.05-2.16-.09-5.28,1.31-5.08-3.11,.23-5.12,.05-10.25,.05-15.37Z"/><path class="cls-1" d="M260.99,145.65c.28-6.11,2.95-12.88,10.73-16.21,6.79-2.9,13.41-1.84,18.95,3.22,1.43,1.3,4.65,3.25,2.26,5.28-1.72,1.46-4.52,5.25-8.01,.58-3.45-4.61-10.1-3.56-12.84,1.55-2.5,4.66-2.46,9.63-.07,14.29,2.77,5.4,9.31,6.27,13.15,1.45,3.41-4.28,5.77-.49,7.74,.78,2.74,1.77-.48,3.4-1.5,4.55-4.7,5.34-12.87,6.99-19.62,4.29-6.84-2.73-10.8-9.31-10.8-19.77Z"/><path class="cls-1" d="M492.55,129.78c10.93-4.48,12.95,5.06,17.61,11.12,4.67-5.89,6.49-15.81,17.81-10.97-3.17,4.44-6.15,9.51-10.02,13.79-4.56,5.04-3.13,10.82-3.3,16.44-.16,5.15-2.65,6.94-7.75,5.4-.97-.29-1.39-.71-1.43-1.64,0-.17-.04-.34,0-.5,2.92-13.68-5.45-23-12.72-32.76-.17-.22-.13-.6-.19-.88Z"/><path class="cls-1" d="M162.5,147.5c0,4.81-.28,9.63,.09,14.41,.31,4.03-2.05,3.76-4.64,3.65-2.34-.1-4.99,.86-4.87-3.39,.27-9.94,.29-19.89,0-29.83-.13-4.4,2.66-3.15,4.88-3.25,2.44-.11,5.01-.74,4.65,3.5-.42,4.94-.1,9.94-.1,14.91Z"/><path class="cls-1" d="M544.38,35.57c1.31-3.3,2.22-5.49,3.05-7.71,.32-.87,.86-1.44,1.76-1.48,1.16-.05,1.2,.87,1.2,1.7,.01,3.5,0,7-.54,10.53-2.1-1.8-.77-4.24-1.62-6.52-1.7,1.31-1.36,4.43-4.25,4.49-3.28,.07-.85-3.92-3.34-4.33-1.09,1.98,.42,4.43-1.5,7.17-1.31-4.39-.49-8.19-.68-11.89-.04-.75,.43-1.22,1.22-1.14,.89,.09,1.43,.55,1.75,1.46,.78,2.24,1.69,4.43,2.96,7.73Z"/><path class="cls-1" d="M528.52,26.91c2.92-.79,5.7-.77,9.97-.1-8.18,2.25-2.91,8.51-5.87,12.11-3.16-3.4,2.23-9.76-4.1-12.02Z"/><path class="cls-2" d="M369.94,143.27c.35-.8,.7-1.61,1.22-2.8,.35,1.49,.81,2.48-.46,3.08,0,0-.43,0-.43,0l-.33-.27Z"/></g></g></svg>