<?xml version="1.0" encoding="utf-8"?>
<!-- Generator: Adobe Illustrator 26.4.1, SVG Export Plug-In . SVG Version: 6.00 Build 0)  -->
<svg version="1.1" id="Layer_1" xmlns="http://www.w3.org/2000/svg" xmlns:xlink="http://www.w3.org/1999/xlink" x="0px" y="0px"
	 viewBox="0 0 890.5 319.6" style="enable-background:new 0 0 890.5 319.6;" xml:space="preserve">
<style type="text/css">
	.st0{fill:#D03027;}
	.st1{fill:#004977;}
</style>
<g>
	<path class="st0" d="M604.4,231.2c0,0-0.1,0-0.1,0.1c-37.9,26.8-82.8,55-131.2,84.7l-1.9,1.1c-0.6,0.5-0.8,1.4-0.3,2
		c0.5,0.6,1.3,0.7,1.9,0.3l1.6-0.9c41-21.4,88.1-46.8,135.4-72.8c0.2-0.1,0.5-0.3,0.8-0.4C607.9,240.9,605.8,236.1,604.4,231.2
		L604.4,231.2z M853.3,29.7c-59.8-65.9-444.4-6.6-607.9,29.1l-3.8,0.8c-0.8,0.1-1.3,0.9-1.2,1.6c0,0,0,0,0,0
		c0.2,0.8,0.9,1.3,1.7,1.2l3.8-0.8c135.5-24.1,417.3-57.6,477.9,2.6c18.5,18.4,14.1,41.9-7.4,69.9c11.5,7.4,19.8,19.1,23.5,33.7
		C823.6,112.2,879.8,59.1,853.3,29.7L853.3,29.7z"/>
	<g>
		<path class="st1" d="M628.5,213.9c0.8,23.2,15.5,42.2,34.6,42.2c37.1,0,52.9-45.6,51.8-76c-0.8-23.2-15.9-42.2-35-42.2
			C648.1,137.8,627.4,183.2,628.5,213.9z M609,212.6c-1.4-39.6,29.7-80.1,74.7-80.1c30.1,0,49.8,20.1,50.9,50.8
			c1.5,41.7-27.5,80.1-74.7,80.1C629.8,263.4,610,243.4,609,212.6z M182.2,202.2c-1.6,0.6-3.7,1.2-6.3,1.8
			c-2.6,0.6-7.3,1.4-14.1,2.5c-4.7,0.8-8,1.7-9.8,3.1c-1.8,1.3-2.8,2.9-3.1,4.8c-0.3,2.1,0.3,3.7,2.1,5c1.8,1.3,4.8,1.9,9.1,1.9
			c3.2,0,6.3-0.5,9.3-1.5c3.1-1,5.7-2.4,7.6-4.1c1.5-1.3,2.5-2.9,3.3-4.8C180.8,209.5,181.5,206.6,182.2,202.2L182.2,202.2z
			 M221.4,177.8c-0.1,3.6-0.8,6.8-1.8,12.4l-6.6,37.2c-0.6,3.3,0.7,5.9,3.7,7.7l-0.2,1.5l-37.9,0l-0.4-9.4c-5.7,3.4-11.8,6-18.2,7.8
			c-6,1.6-10.9,2.2-18.2,2.2c-12.2,0-19.3-1.3-24.1-5.5c-4.9-4.4-7.3-7.3-7.1-13.3c0.2-3.5,2-7.9,4.6-11c2.6-3.2,6.2-5.2,10.1-7.1
			c3.9-1.9,8.5-3.2,15.2-4.3c6.7-1.1,16.1-2.2,28.6-3.2c6.6-0.6,10.6-2.1,12.4-2.8c2.6-1,3.7-2.2,4-4.3c0.7-3.8-0.5-6-5.6-7
			c-13.6-2.7-39.3,1.8-52.5,5l7.2-19.4c17.4-2.6,33.7-4.2,50.9-4.2C212.9,160,221.7,167.8,221.4,177.8L221.4,177.8z M331.4,236.5
			l13.1-74.3h36.3l-13.1,74.3L331.4,236.5z M346.5,145c1.1-6.1,10.7-11,21.5-11c10.8,0,18.7,5,17.6,11c-1.2,6.1-10.7,11.1-21.6,11.1
			C353.3,156.1,345.5,151.1,346.5,145z M509.8,202.3c-1.7,0.6-3.8,1.2-6.3,1.8s-7.3,1.4-14.1,2.5c-4.7,0.8-8,1.7-9.8,3.1
			c-1.8,1.3-2.8,2.9-3.2,4.8c-0.4,2.1,0.4,3.7,2.1,5c1.9,1.3,4.9,1.9,9.1,1.9c3.2,0,6.3-0.4,9.3-1.4c3.1-1.1,5.7-2.4,7.7-4.1
			c1.4-1.3,2.5-2.9,3.2-4.8C508.4,209.7,509,206.8,509.8,202.3L509.8,202.3z M549,177.9c-0.1,3.7-0.8,6.9-1.8,12.4l-6.6,37.2
			c-0.6,3.3,0.7,5.9,3.7,7.7l-0.2,1.3l-37.9,0l-0.3-9.5c-5.7,3.4-11.8,6-18.2,7.8c-6,1.6-10.9,2.3-18.3,2.3
			c-12.2,0-19.2-1.2-24.1-5.5c-5-4.4-7.3-7.3-7.1-13.3c0.2-3.5,2-8,4.6-11c2.6-3.2,6.2-5.2,10.1-7.1c3.9-1.9,8.5-3.2,15.2-4.3
			c6.7-1.1,16.1-2.2,28.6-3.2c6.5-0.6,10.5-2,12.4-2.8c2.7-1,3.7-2.2,4.1-4.3c0.7-3.8-0.5-6-5.6-7c-13.7-2.7-39.3,1.8-52.5,5
			l7.1-19.4c17.5-2.6,33.7-4.2,50.9-4.2C540.5,160.1,549.2,168,549,177.9L549,177.9z M105.7,209.8c-11.8,2.4-18.5,3.3-30.2,3.3
			c-17.4,0-31.2-8.6-30.4-24.4c0.6-10.5,13-32.7,44.7-32.7c10,0,17.8,1.8,28.3,7.7l4.6-25.8c-14.2-5.4-23.7-6.2-35.9-6.1
			c-41.5,0.5-81.4,19.3-86.4,57.7c-5,39,42.6,48.8,63.7,48.7c12.2-0.1,24.9-0.6,36.7-1.8L105.7,209.8z M400.9,161.8l2.6-15.2l38-8.3
			l-4.1,23.4H456l-3.5,15l-18.1,0l-11,59.8c0,0-36.6-0.2-36.7,0l10.9-59.6h-13.7l2.8-15L400.9,161.8L400.9,161.8z M603.5,133.8
			l-17.7,102.6l-37,0l18.6-103.7L603.5,133.8z M283.3,179.6c-4.7,0-9.2,1.5-12.9,4.3c-3.8,2.9-6.2,7.1-7.2,12.7
			c-1.2,6.5-0.5,11.1,2.1,14c2.6,2.9,6.3,4.3,11.2,4.3c3.3,0,6.7-0.6,9.2-1.9c3.1-1.7,5.3-3.4,7.1-6.1c2-2.9,3.3-6.1,4-9.8
			c1.1-5.9,0.2-10.2-2.6-13.1C291.7,181.1,288,179.6,283.3,179.6L283.3,179.6z M217.1,262.1l17.7-99.6h31.9l-2.5,12.7
			c2.8-3.8,7.2-6.9,13.3-9.4c6.2-2.5,13.1-4.4,20.6-4.4c8.3,0,13.4,0.4,19.7,3.7c6.2,3.3,10.5,8,12.8,14.1c2.4,6,2.9,12.8,1.6,20.2
			c-2.2,12.3-8.1,21.9-18,29.1c-9.7,7.1-18.5,9-31,9c-4.4,0-8.1-0.4-11.2-1.2c-3-0.8-5.4-1.8-7.2-2.9c-1.8-1.2-3.6-2.8-6-5.4
			l-5.9,34.1L217.1,262.1z M876.6,188.7c-0.2-6-3.2-10-9.4-10c-14.9,0-30.8,29.2-33.5,40.9C858.2,219.7,877.2,205.1,876.6,188.7
			L876.6,188.7z M879.8,234.5l2.9,2c-7.3,14.8-22.1,26.7-39.4,26.7c-14.2,0-25.9-9.5-26.5-27.2c-1.2-31.9,28.7-61.4,53.1-61.4
			c10.5,0,20.2,4.6,20.6,15.9c0.9,25.3-34.7,33.1-58.1,33.6c-0.8,2.7-1.1,5.3-0.9,9.3c0.4,10.5,6.7,19.3,19.9,19.3
			C862.7,252.6,874,243.5,879.8,234.5L879.8,234.5z"/>
		<path class="st1" d="M734.1,187.9c2.5-0.4,6.6-0.8,8.3-0.8c2.7,0,5.2,0.5,5.3,3.2c0.1,1.6-2.8,12.8-3.4,15.5l-5.7,25
			c-2.3,10.2-4.8,20.9-7,29.4h14.6l8.2-39.6c24.9-26,34.6-34.5,40.4-34.5c2.7,0,4.5,1.4,4.6,4.6c0.2,4.6-2.7,15-3.7,18l-8.3,28.9
			c-1.9,6.5-3.3,12.3-3.2,16.5c0.2,6.3,4.1,9.1,9.8,9.1c10.6,0,18.4-11.1,25.1-22l-2-3.6c-2.7,4.4-9,13.9-14,13.9
			c-1.6,0-3.1-1.1-3.1-3.7c-0.1-3.4,1.3-8.4,2.3-11.8l9.3-33.8c2.5-9.3,3.7-15.3,3.6-18.5c-0.2-6.3-3.9-9.3-9.6-9.3
			c-9.6,0-22.3,7-49.2,38h-0.4l3.4-15.1c1.9-8.3,3.7-16.9,5.4-22.9c-9.3,3.4-22.7,7.1-30.9,8.7L734.1,187.9z"/>
	</g>
</g>
</svg>
