<?xml version="1.0" encoding="UTF-8"?><svg id="Layer_2" xmlns="http://www.w3.org/2000/svg" viewBox="0 0 488.25 166.45"><defs><style>.cls-1{fill:#769e49;}.cls-2{fill:#4e5d33;}</style></defs><g id="Layer_1-2"><g><path class="cls-2" d="M358.5,166.45c.01-.49,.03-.99,.03-1.48,0-28.71,0-57.43-.03-86.14,0-1.17,.3-1.46,1.43-1.41,2.2,.1,4.41,.05,6.61,.02,.59,0,.85,.1,.91,.78,.17,2.04,.44,4.07,.69,6.1,.04,.35-.07,.85,.34,.99,.36,.12,.56-.33,.8-.54,4.79-4.22,10.16-7.41,16.51-8.41,9.37-1.48,17.7,.6,23.9,8.33,3.23,4.03,4.91,8.79,5.76,13.82,1.31,7.74,1.22,15.43-1.32,22.94-2.84,8.37-8.01,14.78-16.33,18.2-9.27,3.81-17.84,1.93-25.83-3.65-.5-.35-.99-.71-1.46-1.08-.45-.35-.88-.72-1.35-1.11-.34,.39-.19,.83-.18,1.21,.29,10.29,.21,20.58,.22,30.87,0,.19,.02,.38,.03,.57h-10.73Zm10.69-56.64c0,4.86,.02,9.72-.02,14.58,0,.72,.22,1.17,.77,1.62,1.44,1.18,2.95,2.27,4.57,3.19,3.4,1.93,6.99,3.4,10.94,3.45,8.15,.1,13.77-3.95,17.07-11.19,3.18-6.97,3.29-14.31,1.95-21.73-.64-3.55-1.84-6.91-4.28-9.64-4.63-5.17-10.54-6.15-16.97-4.63-5.32,1.25-9.56,4.46-13.44,8.18-.46,.44-.61,.88-.61,1.48,.02,4.9,0,9.8,0,14.69Z"/><path class="cls-1" d="M0,104.67c.56-1.52,.59-3.16,1.01-4.71,3.21-11.94,11.1-19.27,22.77-22.56,8.56-2.42,17.12-2.26,25.36,1.57,2.95,1.37,5.57,3.23,7.99,5.4,.57,.51,.62,.87,.12,1.48-1.44,1.76-2.84,3.56-4.19,5.39-.47,.63-.76,.57-1.31,.1-3.39-2.9-7.13-5.2-11.55-6.09-9.77-1.96-21.01,1.49-26.27,11.28-2.29,4.26-3.12,8.85-2.92,13.63,.21,4.86,1.5,9.41,4.4,13.42,3.5,4.83,8.31,7.56,14.08,8.69,8.83,1.73,16.57-.78,23.55-6.16q1.51-1.16,2.62,.45c1.03,1.5,2.03,3.02,3.1,4.5,.44,.6,.33,.93-.21,1.39-8.8,7.43-18.91,10.31-30.31,8.77-5.45-.74-10.56-2.44-15.13-5.55-7.22-4.92-11.2-11.86-12.67-20.37-.15-.88-.07-1.8-.45-2.65v-7.98Z"/><path class="cls-2" d="M464.35,.27c2.05,6.26,4.11,12.52,6.15,18.79,3.93,12.06,7.85,24.13,11.78,36.19,1.96,6.01,3.89,12.03,5.88,18.04,.19,.59,.08,.86-.39,1.2-11.96,8.65-23.91,17.32-35.86,25.99-.09,.07-.19,.13-.28,.19-.74,.5-1.45,1.54-2.2,1.35-.47-.11-.64-1.5-.91-2.33-3.88-11.92-7.76-23.84-11.63-35.76-1.95-6.01-3.9-12.03-5.85-18.05,.13-.31,.21-.66,.41-.92,2.73-3.75,5.5-7.47,8.21-11.23,.74-1.03,1.63-1.97,2.14-3.16,.64,0,.53,.57,.64,.9,4.37,13.39,8.72,26.8,13.07,40.2,.62,1.92,1.27,3.82,1.94,5.85,4.25-3.08,8.35-6.07,12.48-9.03,.49-.35,.31-.68,.18-1.07-2.25-6.91-4.49-13.83-6.74-20.74-3.4-10.45-6.8-20.89-10.2-31.34,.05-.14,.06-.31,.15-.42,3.08-4.24,6.14-8.49,9.27-12.69,.52-.69,.75-1.7,1.75-1.97Z"/><path class="cls-1" d="M464.35,.27c-1.01,.27-1.24,1.28-1.75,1.97-3.13,4.2-6.19,8.45-9.27,12.69-.08,.12-.1,.28-.15,.42-18.29,0-36.58-.01-54.87-.04-.68,0-.88,.27-1.07,.86-1.36,4.26-2.75,8.51-4.14,12.76-.5,1.53-.51,1.53,1.05,1.53,15.44,0,30.88,0,46.32,0,.45,0,.91-.12,1.34,.12-.51,1.19-1.4,2.13-2.14,3.16-2.71,3.76-5.48,7.48-8.21,11.23-.19,.27-.27,.61-.41,.92-.49-.02-.99-.06-1.48-.06-18.86,0-37.71,0-56.57,0h-1.52c.94-2.9,1.85-5.7,2.76-8.5,3.89-11.96,7.79-23.91,11.64-35.88,.34-1.07,.77-1.43,1.94-1.43,25.09,.04,50.19,.03,75.28,.04,.41,0,.9-.23,1.26,.21Z"/><path class="cls-1" d="M188.28,83.89c-.13-3.74-.34-7.26-.36-10.79-.05-7.86,0-15.73-.04-23.59,0-.94,.24-1.23,1.19-1.21,2.77,.06,5.55,.07,8.33,0,1-.03,1.16,.31,1.16,1.22-.02,26.48-.02,52.95-.02,79.43,0,3.38-.02,6.76,.01,10.14,0,.71-.15,.99-.93,.98-2.36-.05-4.72-.04-7.07,0-.7,.01-.89-.23-.95-.9-.18-2.12-.44-4.23-.69-6.34-.03-.29,.02-.68-.29-.81-.34-.14-.51,.23-.73,.43-3.95,3.71-8.33,6.71-13.6,8.24-9.23,2.68-22.36-.12-28.76-11.5-3.17-5.63-4.41-11.74-4.68-18.09-.29-6.82,.7-13.42,3.91-19.51,4.57-8.65,11.54-14.16,21.43-15.49,7.16-.97,13.5,1.14,19.16,5.5,.92,.71,1.83,1.44,2.92,2.3Zm-.38,23.92c0-4.9,0-9.8,0-14.7,0-.63-.15-1.06-.69-1.54-1.28-1.11-2.61-2.13-4.03-3.06-4.73-3.08-9.87-4.5-15.47-3.27-6.7,1.48-11.01,5.86-13.62,11.99-2.82,6.6-2.75,13.45-1.28,20.33,.86,4.04,2.49,7.79,5.59,10.61,5.31,4.83,11.53,5.59,18.16,3.32,4.38-1.49,7.78-4.47,10.93-7.74,.4-.41,.4-.86,.4-1.36,0-4.86,0-9.72,0-14.59Z"/><path class="cls-1" d="M247.71,111.33c-7.8,0-15.59,.02-23.39-.03-1.07,0-1.23,.32-1.17,1.29,.64,10.02,7.9,18.05,18.09,19.91,8.58,1.56,16.52-.19,23.91-4.68,.84-.51,1.15-.43,1.57,.43,.86,1.77,1.83,3.49,2.78,5.22,.3,.54,.37,.87-.27,1.26-11.26,6.85-23.23,9.06-35.9,4.84-11.35-3.78-18.31-11.78-20.58-23.52-1.83-9.45-.48-18.47,5.08-26.54,5.28-7.65,12.68-12.05,21.88-13.31,6.06-.83,12.01-.21,17.6,2.37,8.19,3.78,12.67,10.46,14.44,19.11,.86,4.2,.88,8.44,.48,12.7-.08,.81-.4,.97-1.14,.97-7.8-.02-15.59-.01-23.39-.01Zm-4.99-7.61c6.23,0,12.46-.03,18.69,.03,1.06,0,1.34-.33,1.21-1.29-.17-1.24-.22-2.49-.44-3.72-.8-4.48-2.61-8.51-6.51-11.06-6.73-4.41-13.9-4.51-21.01-1.08-6.53,3.16-10.07,8.75-11.48,15.76-.27,1.36-.25,1.37,1.18,1.37,6.12,0,12.23,0,18.35,0Z"/><path class="cls-1" d="M129.41,107.81c-.01,8.8-1.85,15.98-6.61,22.18-4.9,6.38-11.46,10.11-19.4,11.25-8.97,1.29-17.24-.55-24.44-6.24-6.08-4.81-9.51-11.24-10.87-18.77-1.28-7.1-.92-14.15,1.72-20.93,4.11-10.53,11.81-16.89,22.93-18.89,7.95-1.43,15.53-.16,22.42,4.19,7.23,4.56,11.44,11.24,13.3,19.48,.66,2.9,.98,5.84,.93,7.73Zm-50.95,.42c-.01,5.25,.82,9.65,2.59,13.34,3.13,6.5,8.16,10.51,15.48,11.12,7.74,.65,13.88-2.24,18.05-8.91,2.47-3.95,3.49-8.36,3.73-12.97,.3-5.79-.57-11.34-3.41-16.48-6.78-12.26-24.32-13-32.09-1.37-3.22,4.82-4.27,10.22-4.35,15.26Z"/><path class="cls-2" d="M341.64,108.77c0,9.95-.03,19.9,.03,29.85,0,1.24-.36,1.49-1.5,1.44-2.09-.09-4.18-.06-6.27,0-.73,.02-.95-.2-1-.94-.19-2.95-.45-5.9-.7-8.84-.03-.39,.08-.95-.35-1.1-.4-.14-.58,.41-.82,.67-3.4,3.78-7.11,7.21-11.81,9.3-7.92,3.52-15.84,3.61-23.54-.59-3.84-2.1-6.03-5.65-7.45-9.71-1.28-3.66-1.76-7.46-1.78-11.29-.06-12.95-.01-25.9-.05-38.86,0-1,.24-1.28,1.25-1.25,2.77,.07,5.55,.07,8.33,0,.94-.02,1.2,.21,1.2,1.18-.04,11.81-.03,23.62-.02,35.44,0,3.07,.14,6.14,.96,9.14,1.59,5.86,5.3,8.7,12.03,9.21,5.76,.44,10.62-1.64,14.89-5.37,1.95-1.7,3.73-3.57,5.44-5.5,.47-.53,.63-1.04,.63-1.73-.02-13.64,0-27.27-.04-40.91,0-1.24,.37-1.48,1.51-1.45,2.66,.08,5.32,.07,7.98,0,.91-.02,1.12,.25,1.12,1.13-.03,10.07-.02,20.13-.02,30.2Z"/></g></g></svg>