<?xml version="1.0" encoding="utf-8"?>
<!-- Generator: Adobe Illustrator 26.1.0, SVG Export Plug-In . SVG Version: 6.00 Build 0)  -->
<svg version="1.1" id="Layer_1" xmlns="http://www.w3.org/2000/svg" xmlns:xlink="http://www.w3.org/1999/xlink" x="0px" y="0px"
	 viewBox="0 0 2500 2500" style="enable-background:new 0 0 2500 2500;" xml:space="preserve">
<style type="text/css">
	.st0{fill:none;}
</style>
<polygon class="st0" points="3000.3,-1095.1 3000.3,-1095.1 3000.3,-1095.1 "/>
<path class="st0" d="M3000.4-1095.1L3000.4-1095.1C3000.4-1095.1,3000.3-1095.1,3000.4-1095.1L3000.4-1095.1z"/>
<path d="M2239.3,1450.5l-3.7,2.3l1.5-37.5c-6-108-61.5-236.2-61.5-304.4c0-48,35.2-85.5,62.2-122.2l3.7-5.3l-33.7-25.5
	c-65.2,48.7-112.5,104.2-157.5,172.5l-117.7,181.4c-21,33-102.7,157.5-142.5,150c-11.2-2.3-17.2-13.5-17.2-23.2
	c0-51.7,59.2-182.2,69.7-257.9c7.5-50.2-10.5-99.7-52.5-129l-4.5-3c13.5-28.5,28.5-58.5,33.7-89.2c4.5-24.7-1.5-61.5-33-63.7
	c-42.7-3.7-53.2,55.5-59.2,86.2c-20.2,103.5-68.2,174.7-158.2,223.4l-3.7,0.8c-18.7-87-57-163.5-158.2-163.5
	c-98.2,0-207.7,78-231.7,175.4l-0.8,3.7c-26.2,17.2-51,32.2-81.7,37.5v0h0c0,0,0,0,0,0v0h0c0,0,0,0,0,0v-18.7
	c-6-102-36-202.4-154.5-202.4c-150.7,0-224.9,152.2-270.7,272.9c-32.2,84.7-141.7,144-230.2,144c-80.2,0-117.7-65.2-117.7-139.5
	c0-53.2,5.3-128.2,34.5-175.5l2.3-3.7c51-12,79.5-35.2,109.5-43.5l3-0.8c13.5,56.2,38.2,114,105.7,114
	c116.2,0,188.2-150.7,188.2-249.7c0-90.7-55.5-173.2-152.2-173.2c-133.5,0-254.9,98.2-325.4,206.2l-65.2,99.7l-10.5,16.5
	c-24-3-54.7-10.5-54.7-40.5c0-19.5,12.7-36,24.7-50.2c-12-8.2-24.7-12.7-39.7-12.7c-36.7,0-73.5,27-73.5,65.2
	c0,59.2,75.7,80.2,122.2,82.5c-26.2,76.5-46.5,153.7-46.5,234.7c0,108,72,231.7,192,231.7c127.5,0,236.2-105.7,319.4-189.7l2.2-2.3
	c3.7,97.5,44.2,194.9,156.7,194.9c160.5,0,242.9-178.5,273.7-311.9c23.2-1.5,43.5-6.7,65.2-15.7c-18,50.2-32.2,99-32.2,152.2
	c0,99.7,48.7,185.2,156,185.2c57,0,109.5-24,151.5-62.2c87-78.7,106.5-190.4,134.2-300.7l1.5-5.3c75.7-30.7,132.7-94.5,175.5-162
	l2.2-3.7c6,9.8,9,20.2,9,32.2c0,114.7-162,248.2-162,389.1c0,62.2,42.7,108.7,106.5,108.7c81.7,0,137.2-67.5,180-128.2
	c82.5-120.7,134.2-263.9,239.2-368.1l3.7-3.7c6.7,80.2,20.2,159,20.2,239.9c0,39.8-10.5,97.5-61.5,97.5c-38.2,0-50.3-38.2-50.3-69.7
	c0-15.8,3-30,9.8-43.5h-36.7c-26.2,42.7-49.5,86.2-49.5,138c0,75.7,54,134.2,131.2,134.2c120.7,0,88.5-105,235.4-135l3-0.8
	l27.7-87.7C2306.1,1410.8,2274.6,1428.8,2239.3,1450.5z M368.6,1088.4c43.5-83.2,138.7-255.7,251.2-255.7c62.2,0,85.5,48.7,85.5,105
	c0,52.5-36,188.2-117.7,156c-24.7-9.8-31.5-36.7-31.5-60.7c0-33.7,13.5-60.7,30.7-88.5C476.5,964.7,518.5,1043.4,368.6,1088.4
	L368.6,1088.4z M1005.9,1314.1c-19.5,63.7-69,154.4-147,158.2c-51.7,3-78-48.7-78-93.7c0-110.2,50.2-230.9,158.2-275.2c0,0,0,0,0,0
	s0,0,0,0c-3.7,27-6.7,54.7-6.7,82.5c0,57,29.2,93,74.2,123.7L1005.9,1314.1z M1026.1,1259.3c-26.2-18.8-42-48-42-80.2
	c0-21.8,6.7-39,18-57.7c19.5,18.8,31.5,48.7,31.5,75.7C1033.6,1218.1,1029.9,1239.1,1026.1,1259.3z M1494.8,1268.3
	c-25.5,68.2-75.7,215.2-173.2,215.2c-54.7,0-76.5-52.5-76.5-101.2c0-119.9,59.2-206.9,155.2-271.4v0l-1.5,6
	c-17.2,75,36,125.2,97.5,148.5L1494.8,1268.3z M1449,1136.4c0-12,2.3-24.7,4.5-36.7l4.5,2.3c45,27,48,75.7,48.7,123
	C1470.8,1208.3,1449,1176.9,1449,1136.4z"/>
</svg>
