<?xml version="1.0" encoding="utf-8"?>
<!-- Generator: Adobe Illustrator 26.1.0, SVG Export Plug-In . SVG Version: 6.00 Build 0)  -->
<svg version="1.1" id="Layer_1" xmlns="http://www.w3.org/2000/svg" xmlns:xlink="http://www.w3.org/1999/xlink" x="0px" y="0px"
	 viewBox="0 0 2500 2500" style="enable-background:new 0 0 2500 2500;" xml:space="preserve">
<style type="text/css">
	.st0{fill-rule:evenodd;clip-rule:evenodd;}
</style>
<g>
	<path class="st0" d="M637.5,738c358.7,41.3,527.7-73.3,596.7-130.3c179.2,115,451.1,178.8,611.1,122.3l-16.7,125.3
		c253.2,134.4,584.5,439.9,634.6,939.7l-186.7,0.1l-82.7,96.6L298,1892.4L218,1796l-181.3-0.1c42.1-409.3,249-727.5,616.9-936.7
		L637.5,738z M230.7,1785.2l76.8,90.5l89.6-76.4l-80.4-92.8L230.7,1785.2L230.7,1785.2z M973.7,1348.6v36.9l10.3,7
		c4,14.7-0.2,22.1-10.2,22.1c-12.6,0-23.2-14.1-23.2-44.4c0-36,10-47,26-52.7c11.6-4.1,36.9,0.7,41.4,11.6l-0.1-43.3
		c-11.7-6.6-21.3-11.4-44.2-11.9c-37.4,1.3-66.6,35.5-66.6,91.9c0,55.8,27.4,86.9,66.9,90c25.9,2,44.4-11.3,53.5-20.2
		c1.1-5.7,0.6-86.8,0.6-86.8L973.7,1348.6L973.7,1348.6z M1169.5,1452.7l-35.3-72.9c18.7-8.4,27.1-22.4,27.1-44.2
		c0-18.1-7.1-34.7-18.9-44.7c-10.8-9.2-26.8-13.7-49.2-13.7h-48.4v175.6h47.4l0.3-72.9c2.4,6.9,25.8,72.9,25.8,72.9H1169.5z
		 M1245.6,1274c-40,0-67.7,36.1-67.7,88.2c0,30.5,6.6,53.7,19.7,70.3c11.6,14.5,30,23.4,47.9,23.4c39.5,0,65.8-36.6,65.8-91.6
		C1311.4,1309.8,1285.3,1274,1245.6,1274z M1394.6,1277.1v113.5c0,15.8-2.9,20.8-12.1,20.8c-8.7,0-12.1-5.8-12.1-21.1v-113.2H1323
		v117.4c0,21.6,5.3,35.8,17.1,46.1c10.8,9.8,26.8,15.3,44,15.3c16.8,0,29.5-4.2,40.3-13.7c12.9-10.8,17.6-22.1,17.6-40.8v-124.3
		H1394.6L1394.6,1277.1z M1504.8,1452.7v-57.7c2.9,0.3,6.6,0.3,7.4,0.3c40,0,67.4-15.2,67.9-59.1c0.6-48.9-30.8-59.1-76.9-59.1
		h-45.8v175.6L1504.8,1452.7L1504.8,1452.7L1504.8,1452.7z M924.9,1219.6c13.2,5.3,24.8,7.6,37.4,7.6c33.3,0,58.3-25.3,58.3-59
		c0-21.1-8.2-34.7-29.4-49.5c-15.7-10.5-18.2-13.4-18.2-19.5c0-5.8,6.1-10.5,13.2-10.5c9.9,0,21.2,7.4,29.2,19.2v-53.7
		c-11.8-6.1-23.7-8.9-35.2-8.9c-31.6,0-56.1,25-56.1,57.4c0,19.7,8.5,34.2,30,50c15.4,11.6,16.8,12.9,16.8,19.5
		c0,6.8-5.8,11.6-14.3,11.6c-11.3,0-22-6.6-31.6-19.2L924.9,1219.6L924.9,1219.6z M1279.9,1224.3l-33.9-72.9
		c18-8.4,26.1-22.4,26.1-44.2c0-18.2-6.8-34.7-18.2-44.8c-10.4-9.2-25.8-13.7-47.3-13.7H1160v175.6h45.5l-0.5-72.9
		c2.3,6.8,25.6,72.9,25.6,72.9L1279.9,1224.3L1279.9,1224.3z M1423.7,1224.3h45.3c0.3-13.7,0.7-51.3-2.9-101.1
		c-0.2-2.2,17.5,51.3,35.8,101.1h45.3v-175.6h-45.3c-3.3,0-0.8,53.1,5.3,105.8c0.6,4.7-19-56-38.2-105.8h-45.3V1224.3L1423.7,1224.3
		z M1654.2,1170.5c-9.5,8.4-15.8,11.3-25.3,11.3c-18.4,0-29.5-17.1-29.5-45c0-29.5,11.6-47.1,30.5-47.1c8.7,0,14,2.4,22.1,10.5V1050
		c-8.7-3.2-14.2-4.2-24.2-4.2c-46.3,0-76.9,36.3-76.9,92.1c0,54,28.7,89.8,72.1,89.8c10,0,16.6-1.6,28.2-6.3L1654.2,1170.5
		L1654.2,1170.5z M1662.8,1224.7h93.3V1179h-47.4v-24.8h41.7v-40.3h-42.7v-23.5h46.9v-41.3h-91.7L1662.8,1224.7L1662.8,1224.7z
		 M791.3,1224.5h45.3c2.1,0,0.7-51.3-2.9-101.1c-0.2-2.2,17.5,51.3,35.8,101.1h45.3v-175.6h-45.3c-3.3,0-0.8,53.1,5.3,105.8
		c0.5,4.7-19-56.1-38.2-105.8h-45.3L791.3,1224.5L791.3,1224.5z M780.8,1224.5v-175.6h-47.4v175.6L780.8,1224.5L780.8,1224.5z
		 M1098,1048.9v113.5c0,15.8-2.9,20.8-12.1,20.8c-8.7,0-12.1-5.8-12.1-21.1v-113.2h-47.4v117.4c0,21.6,5.3,35.8,17.1,46.1
		c10.8,9.7,26.8,15.3,44,15.3c16.8,0,29.5-4.2,40.3-13.7c12.9-10.8,17.6-22.1,17.6-40.8v-124.3H1098z M824.4,994.1v-62.5h43.1V890
		h-43.1v-30.1h53.9v-41.3H777v175.6H824.4z M1345.6,994.1l-20.2-175.6h-50.1c-0.6,0-20.5,73.4-29.1,93.4c-0.7,1.6-15-43.8-29.5-93.4
		h-46L1152,994.1h46.2c1.8,0,2.9-56,9.6-111.9c0.5-3.9,9.8,59,20.9,111.9h38.2c0.3,0,20.4-96.5,21.8-111.9c0.3,5,4,24.5,4.3,31.9
		l6.3,80H1345.6z M1358.8,994.1h93.3v-45.7h-47.4v-24.8h41.7v-40.3h-42.7v-23.5h46.9v-41.3h-91.7V994.1z M1594.3,994.1l-35.3-72.9
		c18.7-8.4,27.1-22.4,27.1-44.2c0-18.2-7.1-34.7-18.9-44.7c-10.8-9.2-26.8-13.7-49.2-13.7h-48.4v175.6h47.4l0.2-72.9
		c2.4,6.8,25.9,72.9,25.9,72.9H1594.3z M1603.7,989.7c13.2,5.3,24.8,7.6,37.4,7.6c33.3,0,58.3-25.3,58.3-59
		c0-21.1-8.3-34.7-29.4-49.5c-15.7-10.5-18.2-13.4-18.2-19.5c0-5.8,6.1-10.5,13.2-10.5c9.9,0,21.2,7.4,29.2,19.2v-53.7
		c-11.8-6.1-23.7-8.9-35.2-8.9c-31.6,0-56.1,25-56.1,57.4c0,19.7,8.5,34.2,30,50c15.4,11.6,16.8,12.9,16.8,19.5
		c0,6.8-5.8,11.6-14.3,11.6c-11.3,0-22-6.6-31.6-19.2L1603.7,989.7L1603.7,989.7z M1015.9,994.1L984,818.5h-72.5l-38.9,175.6h49
		l8.5-41.5l31.9,0.1l7.5,41.4L1015.9,994.1L1015.9,994.1z M1148,993.7l-35.3-72.9c18.7-8.4,27.1-22.4,27.1-44.2
		c0-18.2-7.1-34.7-19-44.7c-10.8-9.2-26.8-13.7-49.2-13.7h-48.4v175.6h47.4l0.2-72.9c2.4,6.8,25.9,72.9,25.9,72.9H1148L1148,993.7z
		 M1247.3,1633.6c-16.3-27.1-29-31.5-40.8-40.8c-23.3-17.4-47-21.2-56.6-22.5l25.7,37.7l38.6,0.4c10.5-2.3,19.5,13.8,8.3,14.3
		l-1057.1,0l-14.6,69.6l174.7-0.5l90.7,103.8l1665.7,0l89-103.6l176.2,0.1l-14.2-70.6l-1060.6,0.5c-9.9,0-4.8-11.7,3.6-12.9
		c10.9-1.6,55.9-1.5,56-1.5l27.9-36.5c-18.4-0.6-43.9,4.7-64.7,16.9C1274,1600.2,1264.7,1608.3,1247.3,1633.6L1247.3,1633.6z
		 M2443,1759.6c-32-276.2-183.5-640.3-615.2-889.7l-14,105.1c185.8,105,404.4,313.6,500,633.2l29.7-0.1l20.4,90.7L2443,1759.6
		L2443,1759.6z M2298.6,1607.6c-5.7-40.3-64.1-167.2-67.9-175.3l-14.8,12.1c3.1,8.6,49.8,116,62.4,163.2H2298.6L2298.6,1607.6z
		 M2217.1,1607.6c-1.8-24.4-38.1-108.8-51.3-125.1l-167.4,125.1L2217.1,1607.6L2217.1,1607.6z M1966.5,1208.3
		c-31.7-40.4-135.5-114.2-165.7-134.6l-30.7,265.8L1966.5,1208.3L1966.5,1208.3z M2136.6,1430.3c-30-54.2-94.2-153.1-126.8-179.5
		L1852.5,1443l93.1-13.2l-42.1,86.8L2136.6,1430.3L2136.6,1430.3z M2211.8,1401.8c-40.3-76.8-106.8-167.3-148.8-212.7l-12.3,15.7
		c38.6,43.4,116.4,146.9,141.2,204.5L2211.8,1401.8L2211.8,1401.8z M2035.3,1164.9c-58.5-74.9-204.5-164.3-223.1-177.3l-2.4,23.1
		c51.5,24.2,180.8,124.4,209,164.5L2035.3,1164.9z M1882.4,1607.9l324.7-183.4L1895.8,1536l-22.3,45.6l-41.1,26.1L1882.4,1607.9z
		 M1680,1608.3l223.8-158.4l-130.7,20.6l-168.9,137.8L1680,1608.3L1680,1608.3z M1502.5,1607.5l57.4,0.1
		c26.6-10,461.6-403.9,469-418.8l-244.6,159.5c-3.5,2.2-8.7,4.6-15.7,5.9c-1.7,3.7-2.5,6.1-4.1,11.5
		c-36.7,122.4-107.8,148-184.4,171.6c-1.4,0.4-3.9,0.5-3.4,1c-1.3,5.4-1.4,8.9-5,13.1C1559,1565.8,1527.5,1591.5,1502.5,1607.5
		L1502.5,1607.5z M1446.1,1607.2l56.8-59.5l-91.5,15.3l-26.5,44.1L1446.1,1607.2L1446.1,1607.2z M2264.5,1785.5l-86.9-79.7
		l-78.3,91.7l89.6,76.4L2264.5,1785.5L2264.5,1785.5z M52.1,1773.4l83.4-74.2l20.4-91.8l30.3,0.1
		c95.6-319.6,297.7-522.6,483.5-627.6l-14-105.1C224.1,1124.2,102.6,1465.3,52.1,1773.4L52.1,1773.4z M199.2,1607.6h20.3
		c12.5-47.3,60.2-154.5,63.3-163l-15.7-12.3C263.3,1440.4,204.9,1567.3,199.2,1607.6L199.2,1607.6z M281.8,1607.6l218.7-0.1
		L333,1482.5C319.9,1498.8,283.6,1583.2,281.8,1607.6L281.8,1607.6z M526.2,1208.3l196.4,131.2l-40.1-261.1
		C652.4,1098.8,557.9,1167.9,526.2,1208.3z M358.4,1430.3l233.1,86.3l-42.1-86.8l93.1,13.2l-157.3-192.1
		C452.6,1277.2,388.4,1376.2,358.4,1430.3L358.4,1430.3z M283.8,1401.8l19.9,7.5c24.9-57.6,102.7-161.1,141.2-204.5l-12.3-15.7
		C390.6,1234.6,324.1,1325,283.8,1401.8L283.8,1401.8z M458.7,1163.6l16.5,10c28.3-40.1,150.9-131.4,199.6-158.2l-3.5-24.2
		C652.8,1004.2,517.2,1088.7,458.7,1163.6L458.7,1163.6z M616.4,1607.9l50.1-0.2l-41.1-26.1L603,1536l-311.4-111.5L616.4,1607.9z
		 M808.2,1608.3H884l-168.9-137.8l-130.7-20.6L808.2,1608.3L808.2,1608.3z M989,1607.5c-25-15.9-56.5-41.7-69.2-56.1
		c-3.7-4.2-3.8-7.8-5-13.1c0.5-0.5-2-0.6-3.4-1c-76.6-23.6-147.7-49.2-184.4-171.6c-1.6-5.4-2.4-7.8-4.1-11.5
		c-5.5-1-10.9-3-15.7-5.9l-244.6-159.5c7.4,14.9,442.4,408.8,469,418.8L989,1607.5L989,1607.5z M1057.4,1607.2l61.3-0.1l-26.5-44.1
		l-91.5-15.3L1057.4,1607.2L1057.4,1607.2z M1281.8,1221.9l1.2,2.4h45.8l8.3-41.5l31,0.1l7.3,41.4h45l-31-175.6H1319L1281.8,1221.9
		L1281.8,1221.9z"/>
	<path class="st0" d="M1364.8,1149.9l-11.1-58l-11.6,58H1364.8L1364.8,1149.9z M531.6,1784l35.6-109.8h-28.7l-4.3,16.7
		c-0.8,3.5-1.8,8.3-2.7,14.1c-0.5,2.8-0.5,2.5-2,13.1c-1-8.6-2-15.4-3.6-21.7l-5.5-22.2h-28.8l23,74.2L502,1784L531.6,1784
		L531.6,1784z M681.3,1751.5v-53c0-8.5-0.8-12.6-3.5-16.9c-3.6-5.7-9.8-9.2-16.6-9.1c-9.8,0-15.6,4.6-19.9,16.1
		c-4.6-11.1-10.9-16.1-20.4-16.1c-8.8,0-14.6,4.1-20.1,14.6c0.2-2.3,0.2-4,0.3-4.8c0-5.7,0-5,0.2-8.1h-28.7v77.4h28.7v-38.6
		c0-9,1.7-12.1,6.5-12.1c3.5,0,4.8,2.3,4.8,8.5v42.2h28.7v-39.1c0-8,2.2-11.9,6.5-12.1c3.8-0.2,4.8,2,4.8,10.6v40.6L681.3,1751.5
		L681.3,1751.5L681.3,1751.5z M718.5,1751.5h-29.3v-120.8h28.7v43.6l-0.2,1.2v2.6c-0.2,4-0.2,4-0.3,7.1c5.1-9.3,10.1-12.7,18.4-12.7
		c15.7,0,24.7,14.9,24.7,41.1c0,24.7-9.3,39.6-24.7,39.6c-7.8,0-12.3-3-17.9-12.1c0.2,1.8,0.2,3.2,0.3,4
		C718.4,1748.5,718.4,1748.8,718.5,1751.5L718.5,1751.5z M723.7,1696.3c-4.3,0-6.6,5.4-6.6,15.9c0,10.9,2.3,16.4,6.8,16.2
		c4.6-0.2,7-5.8,7-16.1C730.8,1702.1,728.1,1696.3,723.7,1696.3L723.7,1696.3z M800.4,1672.5c23,0,36.8,15.4,36.8,41.1
		c0,24.3-13.9,39.6-36.3,39.6c-21.9,0-35.6-15.6-35.6-40.1C765.3,1689,779.5,1672.5,800.4,1672.5z M801.1,1694.2
		c-4.6,0-8,7.6-8,18.5c0,11.3,3.3,18.7,8.1,18.7c4.8,0,8.1-7.4,8.1-18.7C809.3,1701.5,806,1694.2,801.1,1694.2z M872.2,1751.5
		v-120.8h-28.7v120.8H872.2z M955.3,1672.5c23,0,36.8,15.4,36.8,41.1c0,24.3-13.9,39.6-36.3,39.6c-21.9,0-35.6-15.6-35.6-40.1
		C920.2,1689,934.5,1672.5,955.3,1672.5z M956,1694.2c-4.6,0-8,7.6-8,18.5c0,11.3,3.3,18.7,8.1,18.7c4.8,0,8.1-7.4,8.1-18.7
		C964.3,1701.5,961,1694.2,956,1694.2z M1034,1751.5v-54.3h10.3v-23H1034v-10.8c0-6,1.2-8,4.5-8c1.6,0,2.8,0.5,5.8,2.7v-26.5
		c-5.8-1.5-9.3-2-13.4-2c-16.2,0-25.5,10.9-25.5,30.3v14.2h-8.3v23h8.3v54.3L1034,1751.5L1034,1751.5L1034,1751.5z M1165.5,1674.1
		v47.5c0,11.6,3.3,18.7,11.1,24.3c6.6,4.7,14.7,7.1,23.7,7.1c8.8,0,16.9-2.5,23.5-7.1c7.8-5.6,11.1-12.7,11.1-24.3v-47.5h-28.7v43.6
		c0,8.9-1.3,11.4-6,11.4c-4.8,0-6.1-2.5-6.1-11.4v-43.6H1165.5L1165.5,1674.1z M1273.2,1786.1h-28.7v-112h28.7l-0.7,10.9
		c4.7-8.9,9.8-12.6,17.7-12.6c15.1,0,25.2,16.2,25.2,40.3c0,24.7-9.4,40.4-24.3,40.4c-7.8,0-12.8-3.3-18.6-12.1
		c0.4,3.6,0.7,10.8,0.7,12.8L1273.2,1786.1L1273.2,1786.1z M1279,1696.1c-4.2,0-6.6,6-6.6,16.1c0,10.4,2.3,16.7,6.5,16.7
		c4.3,0,7-6.3,7-17.1C1285.8,1702.1,1283.2,1696.1,1279,1696.1L1279,1696.1z M1361.2,1725.3l28,0.5c-3.8,17.7-16.1,27.3-34.3,27.3
		c-22,0-35.4-14.7-35.4-38.8c0-24.3,14.7-41.7,35.6-41.7c21.9,0,35.3,15.8,35.3,41.4c0,0.8,0,2.7-0.2,4.8h-42.1
		c0.5,8.3,2.5,11.8,6.8,11.8C1357.8,1730.6,1360.2,1728.6,1361.2,1725.3z M1348.4,1703.4h13.4c-0.3-6.3-2.7-9.8-6.8-9.8
		C1351.1,1693.7,1348.7,1697.3,1348.4,1703.4z M1424.1,1751.5v-33.1c0-10.8,4.3-16.6,11.9-16.6c2.6,0,4.5,0.7,8.1,2.7v-32.2
		c-10.4,0.2-17.2,5.7-21.5,16.9l1.5-15.1h-28.7v77.4H1424.1L1424.1,1751.5z M1478,1751.5v-77.4h-28.7v77.4H1478z M1463.6,1633.4
		c-9.2,0.1-16.7,7.7-16.6,16.9c0.1,9.2,7.7,16.7,16.9,16.6c9.1,0,16.6-7.6,16.6-17.1C1480.5,1640.8,1472.9,1633.4,1463.6,1633.4z
		 M1519.7,1672.5c23,0,36.8,15.4,36.8,41.1c0,24.3-13.9,39.6-36.3,39.6c-21.9,0-35.6-15.6-35.6-40.1
		C1484.5,1689,1498.8,1672.5,1519.7,1672.5L1519.7,1672.5z M1520.3,1694.2c-4.6,0-8,7.6-8,18.5c0,11.3,3.3,18.7,8.1,18.7
		c4.8,0,8.1-7.4,8.1-18.7C1528.6,1701.5,1525.3,1694.2,1520.3,1694.2z M1591.7,1751.5v-33.1c0-10.8,4.3-16.6,11.9-16.6
		c2.7,0,4.5,0.7,8.1,2.7v-32.2c-10.4,0.2-17.2,5.7-21.5,16.9l1.5-15.1H1563v77.4H1591.7L1591.7,1751.5z M1659.1,1748.7
		c8.8,3.3,16.5,4.8,25,4.8c22.2,0,38.9-15.9,38.9-37.1c0-13.2-5.5-21.9-19.7-31.2c-10.5-6.6-12.1-8.4-12.1-12.2c0-3.6,4-6.6,8.8-6.6
		c6.6,0,14.1,4.6,19.5,12.1v-33.8c-7.3-3.6-15.3-5.6-23.5-5.6c-21.1,0-37.4,15.7-37.4,36.1c0,12.4,5.7,21.5,20,31.5
		c10.3,7.3,11.2,8.1,11.2,12.3c0,4.3-3.9,7.3-9.5,7.3c-7.5,0-14.7-4.2-21.1-12.1V1748.7L1659.1,1748.7z M1768.5,1725.3l28,0.5
		c-3.8,17.7-16.1,27.3-34.3,27.3c-22,0-35.5-14.7-35.5-38.8c0-24.3,14.7-41.7,35.6-41.7c21.9,0,35.3,15.8,35.3,41.4
		c0,0.8,0,2.7-0.2,4.8h-42.1c0.5,8.3,2.5,11.8,6.8,11.8C1765.2,1730.6,1767.5,1728.6,1768.5,1725.3L1768.5,1725.3z M1755.8,1703.4
		h13.4c-0.3-6.3-2.6-9.8-6.8-9.8C1758.4,1693.7,1756.1,1697.3,1755.8,1703.4L1755.8,1703.4z M1831.4,1751.5v-33.1
		c0-10.8,4.3-16.6,11.9-16.6c2.7,0,4.5,0.7,8.1,2.7v-32.2c-10.4,0.2-17.2,5.7-21.5,16.9l1.5-15.1h-28.7v77.4H1831.4z M1904,1751.5
		l22.5-77.4h-28.3l-5,24.2c-1.3,6.8-2.3,12.1-3.8,24.7l-0.3-2.5l-0.2-2.3c-0.3-3.3-0.2-1.8-0.5-4.6l-0.3-4c-0.5-4.3-1.2-8.5-2-12.8
		l-4.5-22.7h-29l21.4,77.4L1904,1751.5L1904,1751.5z M1962.3,1751.5v-77.4h-28.7v77.4H1962.3z M1947.9,1633.4
		c-9.1,0-16.6,7.6-16.6,16.7c0,9.3,7.5,16.7,16.9,16.7c9.1,0,16.6-7.6,16.6-17.1C1964.8,1640.8,1957.1,1633.4,1947.9,1633.4
		L1947.9,1633.4z M2014.2,1726.3h-2c-6,0-10.8-6.5-10.8-14.4c0-8.4,4.5-13.4,12.7-13.9v-25.2c-1.9-0.2-3.9-0.3-5.8-0.3
		c-21,0-36.6,17.1-36.6,40.1c0,23.5,14.6,40.6,34.6,40.6c1.6,0,4.8-0.2,7.8-0.5L2014.2,1726.3L2014.2,1726.3L2014.2,1726.3z
		 M2064.2,1725.3l28,0.5c-3.8,17.7-16.1,27.3-34.3,27.3c-22,0-35.4-14.7-35.4-38.8c0-24.3,14.7-41.7,35.6-41.7
		c21.9,0,35.3,15.8,35.3,41.4c0,0.8,0,2.7-0.2,4.8h-42.1c0.5,8.3,2.5,11.8,6.8,11.8C2060.9,1730.6,2063.2,1728.6,2064.2,1725.3
		L2064.2,1725.3z M2051.5,1703.4h13.4c-0.3-6.3-2.7-9.8-6.8-9.8C2054.1,1693.7,2051.8,1697.3,2051.5,1703.4L2051.5,1703.4z
		 M1094.3,1748.7c8.8,3.3,16.5,4.8,25,4.8c22.2,0,38.9-15.9,38.9-37.1c0-13.2-5.5-21.9-19.6-31.2c-10.5-6.6-12.1-8.4-12.1-12.2
		c0-3.6,4-6.6,8.8-6.6c6.6,0,14.1,4.6,19.5,12.1v-33.8c-7.3-3.6-15.3-5.6-23.5-5.6c-21.1,0-37.5,15.7-37.5,36.1
		c0,12.4,5.7,21.5,20,31.5c10.3,7.3,11.2,8.1,11.2,12.3c0,4.3-3.9,7.3-9.5,7.3c-7.5,0-14.7-4.2-21.1-12.1L1094.3,1748.7
		L1094.3,1748.7L1094.3,1748.7z M426.5,1748.7c8.8,3.3,16.5,4.8,25,4.8c22.2,0,38.9-15.9,38.9-37.1c0-13.2-5.5-21.9-19.6-31.2
		c-10.5-6.6-12.1-8.4-12.1-12.2c0-3.6,4-6.6,8.8-6.6c6.6,0,14.1,4.6,19.5,12.1v-33.8c-7.3-3.6-15.3-5.6-23.5-5.6
		c-21.1,0-37.4,15.7-37.4,36.1c0,12.4,5.7,21.5,20,31.5c10.3,7.3,11.2,8.1,11.2,12.3c0,4.3-3.9,7.3-9.5,7.3
		c-7.5,0-14.7-4.2-21.1-12.1V1748.7L426.5,1748.7z M1070.6,857.6v41.6c1.1,0.3,2.6,0.3,3.2,0.3c10.8,0,18.9-9.5,18.9-22.1
		c0-12.6-7.4-19.7-20.5-19.7L1070.6,857.6L1070.6,857.6z M958.7,919.8l-11.5-58l-12,58H958.7L958.7,919.8z M1516.9,858v41.6
		c1.1,0.3,2.6,0.3,3.2,0.3c10.8,0,18.9-9.5,18.9-22.1c0-12.6-7.4-19.7-20.5-19.7L1516.9,858L1516.9,858z M1205.5,1088.2v41.6
		c1,0.3,2.5,0.3,3,0.3c10.4,0,18.2-9.5,18.2-22.1c0-12.6-7.1-19.7-19.7-19.7L1205.5,1088.2L1205.5,1088.2z M1504.8,1355.8h2.4
		c11.3,0,18.7-7.9,18.7-19.8c0-12.1-7.4-20.8-17.6-20.8c-0.5,0-2.1,0.3-3.4,0.3V1355.8L1504.8,1355.8z M1245.3,1318.2
		c-11.3,0-18.2,17.9-18.2,46.3c0,29.7,6.3,46.8,17.4,46.8c11.1,0,17.6-17.1,17.6-46.6S1256.1,1318.2,1245.3,1318.2L1245.3,1318.2z
		 M1092.1,1316.6v41.6c1.1,0.3,2.6,0.3,3.2,0.3c10.8,0,18.9-9.5,18.9-22.1c0-12.6-7.4-19.8-20.5-19.8H1092.1z"/>
</g>
</svg>
