<?xml version="1.0" encoding="utf-8"?>
<!-- Generator: Adobe Illustrator 26.1.0, SVG Export Plug-In . SVG Version: 6.00 Build 0)  -->
<svg version="1.1" id="Layer_1" xmlns="http://www.w3.org/2000/svg" xmlns:xlink="http://www.w3.org/1999/xlink" x="0px" y="0px"
	 viewBox="0 0 2500 2500" style="enable-background:new 0 0 2500 2500;" xml:space="preserve">
<style type="text/css">
	.st0{fill-rule:evenodd;clip-rule:evenodd;fill:#922B3F;}
	.st1{fill-rule:evenodd;clip-rule:evenodd;fill:#FFFFFF;}
	.st2{fill-rule:evenodd;clip-rule:evenodd;}
</style>
<path class="st0" d="M1974.4,1580.7c193.6,0,351.7-158,351.7-353.6s-158-353.6-351.7-353.6H542.1c-195.6,0-353.6,158-353.6,353.6
	s158,353.6,353.6,353.6H1974.4z"/>
<path class="st1" d="M1974.4,1549.1c177.8,0,322-144.2,322-322s-144.2-322-322-322H542.1c-177.8,0-322,144.2-322,322
	s144.2,322,322,322H1974.4z"/>
<path class="st0" d="M1974.4,1517.5c160,0,290.4-130.4,290.4-290.4c0-160-130.4-290.4-290.4-290.4H542.1
	c-160,0-290.4,130.4-290.4,290.4c0,160,130.4,290.4,290.4,290.4H1974.4z"/>
<path class="st1" d="M715.9,1274.5l2,112.6h132.4l17.8-320H712l2,144.2h-92.9l2-144.2H467l19.8,320h130.4l2-112.6L715.9,1274.5
	L715.9,1274.5z M917.5,1276.4h92.9v-65.2h-92.9V1276.4z M1508.2,1276.4h94.8v-65.2h-94.8V1276.4z M1387.7,1211.2h-167.9l2-57.3
	h235.1l5.9-86.9h-397.1l13.8,320h365.5l5.9-59.2h-233.1v-53.3h167.9L1387.7,1211.2L1387.7,1211.2z M1897.4,1300.1
	c-2,31.6-35.6,29.6-59.3,29.6h-27.6v-59.3h45.4C1877.6,1270.5,1899.3,1274.5,1897.4,1300.1L1897.4,1300.1z M1861.8,1148
	c23.7,0,49.4,9.9,47.4,31.6c0,27.7-23.7,33.6-51.4,33.6h-45.4V1148H1861.8L1861.8,1148z M1958.6,1067h-300.3l19.8,320h260.8
	c79,0,98.8-37.5,104.7-67.2c5.9-27.7,7.9-71.1-49.4-77.1c45.4-9.9,67.2-37.5,67.2-88.9C2063.3,1122.3,2045.5,1067,1958.6,1067
	L1958.6,1067z"/>
<path class="st2" d="M2395.8,1466.7c11.3,0,22.4,2.9,33.2,8.7c10.8,5.8,19.2,14.1,25.2,25c6,10.8,9,22.1,9,33.8
	c0,11.8-3.1,23.3-8.9,33.5c-5.7,10.5-14.4,19.2-24.9,25c-10.2,5.8-21.8,8.9-33.6,8.9c-11.8,0-23.4-3.1-33.6-8.9
	c-10.5-5.8-19.2-14.4-25-25c-5.8-10.2-8.9-21.8-8.9-33.5c0-11.8,3-23,9.1-33.8c5.8-10.6,14.6-19.3,25.3-25
	C2373.4,1469.6,2384.5,1466.7,2395.8,1466.7L2395.8,1466.7z M2395.8,1477.9c-9.5,0-18.7,2.5-27.7,7.3c-9,4.9-16,11.8-21,20.8
	c-5.1,9-7.6,18.4-7.6,28.2c0,9.7,2.5,19,7.5,27.9c5,8.9,11.9,15.9,20.9,20.8c8.5,4.9,18.2,7.5,28,7.5c9.8,0,19.4-2.6,28-7.5
	c8.8-4.8,16-12.1,20.8-20.8c4.8-8.5,7.4-18.1,7.4-27.9c0-9.8-2.5-19.2-7.5-28.2c-5-9-12.1-16-21-20.8
	C2414.4,1480.3,2405.2,1477.9,2395.8,1477.9L2395.8,1477.9z M2366.2,1571.5v-72.6h24.9c8.5,0,14.7,0.7,18.5,2c3.8,1.3,6.8,3.7,9.1,7
	c5.2,7.7,4.3,17.9-2.3,24.5c-3.8,4-8.8,6.1-15.1,6.6c2.6,1.1,4.6,2.3,6.2,3.8c2.9,2.9,6.5,7.7,10.7,14.4l8.8,14.2h-14.3l-6.4-11.5
	c-5.1-9-9.1-14.6-12.2-16.9c-2.1-1.7-5.3-2.5-9.4-2.5h-6.9v30.8L2366.2,1571.5L2366.2,1571.5L2366.2,1571.5z M2378,1530.6h14.2
	c6.8,0,11.4-1,13.9-3c2.4-1.9,3.8-4.9,3.7-8.1c0-2.1-0.6-4.1-1.8-5.8c-1.2-1.7-3-3-4.9-3.8c-2.2-0.9-6.1-1.3-11.8-1.3H2378V1530.6z"
	/>
</svg>
