<?xml version="1.0" encoding="utf-8"?>
<!-- Generator: Adobe Illustrator 26.1.0, SVG Export Plug-In . SVG Version: 6.00 Build 0)  -->
<svg version="1.1" id="Layer_1" xmlns="http://www.w3.org/2000/svg" xmlns:xlink="http://www.w3.org/1999/xlink" x="0px" y="0px"
	 viewBox="0 0 2500 2500" style="enable-background:new 0 0 2500 2500;" xml:space="preserve">
<style type="text/css">
	.st0{fill-rule:evenodd;clip-rule:evenodd;}
</style>
<g>
	<path class="st0" d="M110.3,1156.9h326.5c66.6,0,93.9,36.5,93.9,81.2v69.3c13.7-34.7,47.4-48.3,83-48.3h117.6c0-10.9,0-21-19.2-21
		H541.7v-81.2h189.7c63.8,0,93,32.8,93,81.2V1363l253.5-206.1h250.8c83.9,0,106.7,71.1,106.7,140.4c16.4-27.4,45.6-38.3,76.6-38.3
		h114.9c0-10.9,0-21-18.2-21h-166.9v-81.2h185.1c62,0,91.2,32.8,91.2,81.2v198.8H1512c-46.5,0-78.4-27.3-85.7-71.1
		c-13.7,40.1-42.9,71.1-96.7,71.1h-204.3v-198.8h-15.5l-241.7,198.8H613.7c-41,0-71.1-20.1-83-52.9v52.9h-93.9v-176
		c0-15.5-7.3-22.8-21.9-22.8h-44.7v198.8h-93.9v-198.8h-72v198.8h-93.9V1156.9z M984.9,1363l-89.4,73.9h213.4V1363H984.9L984.9,1363
		z M837.2,1156.9v81.2h114.9l97.6-81.2H837.2z M1528.5,1323.8c-9,0-16.4,7.2-16.4,16.3c0,0.1,0,0.1,0,0.2v6.4
		c0,9,7.2,16.4,16.3,16.4c0.1,0,0.1,0,0.2,0h98.5v-39.2L1528.5,1323.8L1528.5,1323.8L1528.5,1323.8z M630.1,1323.8
		c-9,0-16.4,7.2-16.4,16.3c0,0.1,0,0.1,0,0.2v6.4c0,9,7.2,16.4,16.3,16.4c0.1,0,0.1,0,0.2,0h101.2v-39.2L630.1,1323.8L630.1,1323.8
		L630.1,1323.8z M1218.4,1238.1V1363h80.3c24.6,0,44.7-20.1,44.7-43.8v-38.3c0-24.6-20.1-42.9-44.7-42.9H1218.4z M1788.4,1356.6
		c0-110.3,280.9-243.5,459.6-313.7c4.6-1.8,7.3-2.7,12.8-2.7c38.3,0,77.5-0.9,116.7-0.9c12.8,0,15.5,0,8.2,4.6
		c-96.7,44.7-198.8,93.9-288.2,147.7c106.7-21.9,237.1-9.1,237.1,69.3c0,104.9-213.4,196.1-373,199.7
		C1865.9,1463.3,1788.4,1433.2,1788.4,1356.6z M2070.2,1212.5c-7.3,0-9.1,0.9-15.5,5.5c-29.3,20.1-57,42.4-83,66.6
		c-27.4,25.5-50.2,55.6-50.2,81.2c0,18.2,12.8,31,47.4,31c83,0,221.6-69.3,228-124c2.7-21-22.8-24.6-55.6-24.6
		c-36.5,0-85.7,13.7-103.1,19.2c-10,2.7-4.6-10-1.8-14.6C2046.5,1239,2056.5,1225.3,2070.2,1212.5L2070.2,1212.5z"/>
</g>
</svg>
