<?xml version="1.0" encoding="utf-8"?>
<!-- Generator: Adobe Illustrator 26.1.0, SVG Export Plug-In . SVG Version: 6.00 Build 0)  -->
<svg version="1.1" id="Layer_1" xmlns="http://www.w3.org/2000/svg" xmlns:xlink="http://www.w3.org/1999/xlink" x="0px" y="0px"
	 viewBox="0 0 2500 2500" style="enable-background:new 0 0 2500 2500;" xml:space="preserve">
<style type="text/css">
	.st0{fill-rule:evenodd;clip-rule:evenodd;}
</style>
<path class="st0" d="M2426,1380.6c-20.4-0.4-37.3,15.9-37.7,36.3c-0.4,20.4,15.9,37.3,36.3,37.7c0.5,0,0.9,0,1.4,0
	c20.4,0,36.9-16.6,36.9-37c0,0,0-0.1,0-0.1C2462.8,1397.1,2446.3,1380.6,2426,1380.6C2426,1380.6,2426,1380.6,2426,1380.6z
	 M2426,1450.1c-17.9,0-32.5-14.5-32.5-32.5c0-0.1,0-0.1,0-0.2c0-17.9,14.5-32.4,32.5-32.4c0,0,0,0,0.1,0c17.9,0,32.4,14.5,32.4,32.4
	c0,0,0,0,0,0c0.1,17.9-14.4,32.5-32.3,32.6C2426,1450.1,2426,1450.1,2426,1450.1z"/>
<path class="st0" d="M2444.9,1407.8c0-3.5-1.5-7.2-4.6-8.9c-3.1-1.8-6.6-2-10.1-2h-18v41.3h5v-19.1h9.3l11.8,19.1h6l-12.5-19.1
	C2439.2,1419,2444.9,1416,2444.9,1407.8L2444.9,1407.8z M2425,1415.2h-7.8v-14.6h11.8c5.1,0,10.8,0.8,10.8,7.2
	C2439.8,1416.2,2430.8,1415.2,2425,1415.2z M2209.1,1208l75.6-80.7c4.4-5.9,6.6-10.1,6.6-13.6c0-5.9-5.1-8.3-21.1-8.3h-19.1v-51
	h206.5v51h-27.1c-31.3,0-37.2,4.7-80.9,59.9L2230,1294.3v78.8c0,20.2,10.2,27.3,39.3,27.3h45.2v49.2h-289.3v-49.2h45.2
	c29.1,0,39.3-7.1,39.3-27.3v-78.8l-140.9-155.9c-23.3-27.3-20.1-33.2-84.9-33.2v-51h261.6v51h-18.6c-18.9,0-27,3.6-27,10.7
	c0,5.9,5.8,10.7,9.5,15.4l71.3,77.7C2189.2,1217.9,2199.5,1219,2209.1,1208L2209.1,1208z M454,1054.3h63.1v142.2h-58.3
	c-5.2-28.4-23-39.5-39.2-54.4c-29.3-26.9-92.7-49.3-146-49.3c-68.8,0-126.9,21.3-126.9,52.7c0,87.1,393.6,17.8,393.6,182.5
	c0,85.9-84.3,133.9-235.7,133.9c-52.4,0-131.7-16.3-178.5-41.1c-14.7-8.5-20.9,8-23.6,28.7H37.8v-147h58.5
	c12.9,37.3,30.7,45,47,59.9c28.4,26.1,95.9,45.1,157.9,44.5c93.4-0.9,125.5-21.3,125.5-51c0-29.6-31.8-36.7-134.1-52.7l-86.9-14.2
	c-98.1-14.8-169.5-36.7-169.5-115c0-81.2,90.3-132.2,233.1-132.2c60.2,0,110.5,8,158.9,35.4C441.6,1085.9,454.2,1087,454,1054.3
	L454,1054.3z M1685.5,1292.5l1.2-158.1c0-20.7-10.8-27.8-41.6-27.8h-36.2v-49.2h230.5v49.2h-30c-30.9,0-41.6,7.1-41.6,27.8v318.3
	l-90.2-0.7l-292.1-276.6v200.9c0,20.2,10.8,27.8,41.6,27.8h40.1v48.6h-239.4V1404h39.7c30.8,0,41.6-7.7,41.6-27.8v-241.8
	c0-20.7-10.8-27.8-41.6-27.8h-39.7v-49.2h207L1685.5,1292.5z M913.4,1038.9c-183.7,0-298.7,81.2-298.7,211.6
	c0,128,113.4,208.6,293.1,208.6c190.8,0,301.9-79.4,301.9-215.1C1209.7,1121.9,1089.9,1038.9,913.4,1038.9L913.4,1038.9z
	 M909.3,1407.5c-101.7,0-160.1-58.7-160.1-160c0-99,61-157.6,165.2-157.6c100,0,158.4,59.9,158.4,161.8
	C1072.8,1351.2,1013.5,1407.5,909.3,1407.5L909.3,1407.5z"/>
</svg>
