<?xml version="1.0" encoding="utf-8"?>
<!-- Generator: Adobe Illustrator 26.0.1, SVG Export Plug-In . SVG Version: 6.00 Build 0)  -->
<svg version="1.1" id="Layer_1" xmlns="http://www.w3.org/2000/svg" xmlns:xlink="http://www.w3.org/1999/xlink" x="0px" y="0px"
	 viewBox="0 0 1882.6 463.3" style="enable-background:new 0 0 1882.6 463.3;" xml:space="preserve">
<style type="text/css">
	.st0{fill:#FFFFFF;}
</style>
<g id="Layer_2_00000065773077202720538550000011488243187168736157_">
	<g id="Layer_1-2">
		<g id="TAMUSA_Logo">
			<path d="M407.3,397.7h-67.7c-0.7,1-1.4,2-2,2.9c-19.3,27.4-45.4,44.3-78.3,50.4c-46.2,8.5-93.8-11.8-120.3-51
				c-0.9-1.6-2.7-2.5-4.5-2.4c-20.5,0.1-41,0-61.5,0h-3.5v-3.3c0-20.3,0-40.6,0-60.9c0.1-1.8-0.8-3.6-2.4-4.5
				c-26.6-19-43.2-44.6-49-76.8c-8.1-46.2,10.2-92,48.9-119.3c1.7-1,2.7-3,2.5-5c-0.1-19.5,0-39,0-58.5v-3.5
				c1.2-0.1,2.2-0.2,3.2-0.2h60.7c0.6,0,1.2,0,1.9,0c1.3,0.2,2.7-0.5,3.2-1.7c5.6-8.5,12.4-16.2,20-22.9C208-3.2,284,1.1,328.1,50.6
				c3.6,4,6.9,8.3,9.9,12.8c0.9,1.5,2.6,2.4,4.4,2.2c20.5-0.1,41,0,61.5,0h3.5v3.3c0,19.7,0,39.4-0.1,59.1c-0.1,1.9,0.9,3.8,2.5,4.7
				c27,19.4,43.7,45.4,49.1,78.1c7.7,46-11.1,91.5-49.5,118.4c-0.7,0.5-1.3,0.9-2.1,1.5V397.7z M75.6,71.4v4c0,18.6,0,37.2,0,55.8
				c0.2,1.8-0.8,3.6-2.4,4.5C34.8,161.2,16,206,24.1,251.1c5.7,31.6,22.3,56.4,48.9,74.5c1.8,1,2.8,3,2.6,5c-0.1,19.3-0.1,38.7,0,58
				c0,1,0.1,2,0.2,3.2h64.9c0.7,1,1.2,1.9,1.8,2.8c24.7,38.1,69.7,58.3,114.2,50.8c33.4-5.6,59.4-22.9,78-51.2
				c0.9-1.6,2.6-2.6,4.5-2.4c19.7,0.1,39.4,0,59.1,0c1,0,2.1,0,3.3-0.1v-64.4c1-0.7,1.9-1.3,2.8-1.9c37.4-24.9,56.5-69.5,48.8-113.8
				c-5.5-32.3-22.2-57.6-49.4-75.9c-1.5-0.9-2.4-2.5-2.3-4.3c0.1-18.9,0-37.8,0-56.6v-3.3H398c-19.5,0-39-0.1-58.5,0.1
				c-2,0.2-4-0.9-4.9-2.7c-24.6-38.2-69.8-58.6-114.2-51C187,23.5,161,40.8,142.4,69c-0.9,1.6-2.6,2.6-4.5,2.4
				c-19.7-0.1-39.3-0.1-58.9-0.1L75.6,71.4L75.6,71.4z"/>
			<path class="st0" d="M75.6,71.4H79c19.6,0,39.2,0,58.8,0c1.8,0.2,3.6-0.8,4.5-2.4C161,40.8,187,23.5,220.4,17.9
				c44.4-7.5,89.6,12.8,114.1,50.9c0.9,1.8,2.8,2.9,4.8,2.7c19.5-0.1,39-0.1,58.5-0.1h3.5v3.3c0,18.9,0,37.8,0,56.7
				c-0.1,1.8,0.8,3.4,2.3,4.3c27.1,18.4,43.9,43.7,49.4,76c7.7,44.2-11.4,88.8-48.7,113.7c-0.9,0.6-1.8,1.2-2.8,1.9v64.4
				c-1.2,0-2.2,0.1-3.3,0.1c-19.7,0-39.4,0-59.1,0c-1.8-0.2-3.6,0.8-4.5,2.4c-18.6,28.3-44.6,45.6-78,51.2
				c-44.5,7.5-89.5-12.7-114.2-50.8c-0.6-0.9-1.2-1.8-1.8-2.8h-65c-0.1-1.2-0.2-2.2-0.2-3.2c0-19.3,0-38.7,0-58c0.2-2-0.8-4-2.6-5
				c-26.5-18-43.1-42.8-48.8-74.5c-8-45.1,10.8-89.9,49.2-115.3c1.6-0.9,2.6-2.7,2.4-4.5c-0.1-18.6,0-37.2,0-55.8V71.4z M397.1,75.8
				h-3.5c-19,0-38,0-57,0.1c-2.2,0-3.5-0.6-4.4-2.5c-0.8-1.5-1.7-2.9-2.7-4.3c-18.8-26.9-44.5-42.7-77-47.5
				c-3.1-0.4-6.1-0.5-9.5-0.8c0,0.9,0,1.4,0,1.9c0.2,5,0.5,10,0.8,14.9c0.2,4.5,0.6,8.9,0.8,13.3c0.1,2.4,0.8,4.4,3,5.8
				c1.3,0.8,2.4,1.9,3.1,3.2c0.8,2.1,3,3.4,5.2,3c0.1,0,0.3,0.2,0.6,0.4c0,6,0,12.1,0,18.3c0,0.3,0.1,0.8-0.1,1
				c-1,1.2-0.6,2.5-0.7,3.8c-0.3,3.7,0.4,7.3,1.2,11C284.3,102,308,114,327.4,134s30.5,44.2,34.1,71.8c0.4,0.1,0.8,0.1,1.2,0.2
				c3.7,0,6.5,1.8,8.7,4.5c1.9,2.4,3.2,5.2,3.9,8.1c0.3,1.1,0.5,2.2,0.9,3.6h16.3c0,2.4-0.1,4.4,0,6.4c0.1,1.2-0.3,2.5-1.1,3.4
				c-0.7,0.9-1.7,1.9-1.8,2.9c-0.2,2.7-0.1,5.5-0.1,8.2l3,0.5c0,1.2-0.1,2.3,0,3.3c0.2,2.9,0,5.6-2.3,7.9c-0.8,0.8-1,2.1-0.4,3.2
				l2.7,0.6c0,2.2-0.1,4.2,0,6.3c0.1,1.2-0.4,2.5-1.2,3.4c-0.7,0.9-1.7,1.9-1.7,2.9c-0.2,3.5-0.1,7.1-0.1,10.5l3,0.5
				c0,2-0.1,3.9,0,5.8c0.2,1.6-0.3,3.2-1.5,4.4c-0.9,0.9-1.4,2.1-1.3,3.4c0,20.1-0.1,40.3-0.2,60.4c0,0.7,0.1,1.4,0.2,2.1h7.6v-3
				c0-9.2,0-18.4,0-27.5c-0.2-1.8,0.7-3.6,2.4-4.5c6.7-4.1,12.9-9,18.4-14.6c27.1-28,37.6-61.3,30.4-99.5
				c-5.8-30.6-22.6-54.2-48.6-71.2c-0.8-0.5-1.6-1.1-2.5-1.7L397.1,75.8z M219.7,63c0.8-0.1,1.5-0.2,2.3-0.1c1.8,0.3,2.6-0.5,3.6-2
				c1-1.7,2.3-3.1,3.9-4.3c1.3-0.8,2.1-2.1,2.4-3.6c0.3-1.2,0.4-2.4,0.5-3.7c0.3-5.7,0.7-11.4,0.9-17.1c0.2-3.7,0.4-7.4,0.6-11.3
				c-1-0.1-2.1-0.1-3.1,0c-4.4,0.5-8.9,0.9-13.2,1.7c-31.5,6.5-55.8,23.4-72.9,50.6c-0.9,1.7-2.7,2.7-4.7,2.5
				c-19-0.1-38-0.1-56.9-0.1c-1,0-2.1,0.1-3.3,0.1v57.2c0,0.7,0,1.4,0,2.1c0.1,0.9-0.4,1.8-1.2,2.2c-0.5,0.3-1.1,0.7-1.6,1
				c-37.4,24-56.6,68.3-48.6,112c5.8,31.2,22.4,55.4,48.9,72.8c1.7,0.9,2.7,2.8,2.5,4.7c-0.1,9.3-0.1,18.5-0.1,27.8
				c0,0.9,0.1,1.9,0.1,2.8h7.3c0.1-0.8,0.2-1.5,0.2-2.2c0.1-20,0.1-39.9,0.2-59.9c0-1.3-0.4-2.6-1.3-3.6c-0.8-0.8-1.4-1.8-1.6-2.9
				c-0.2-2.5-0.1-5-0.1-7.5l2.9-0.5c0-3.1-0.1-6.2,0-9.2c0.1-1.3-0.4-2.6-1.2-3.7c-0.8-0.8-1.4-1.9-1.6-3c-0.2-2.5-0.1-4.9-0.1-7.4
				l2.7-0.6c0.6-1.7-0.1-2.9-1-4.1s-1.8-2-1.7-3.5c0.1-2,0-4.1,0.1-6.1c0.1-0.2,0.2-0.5,0.3-0.7l2.6-0.4c0-2.3-0.1-4.5,0-6.7
				c0.1-1.3-0.4-2.7-1.2-3.7c-0.8-0.8-1.4-1.8-1.6-2.9c-0.2-2.4-0.1-4.9-0.1-7.7h15.2c0.3-1.1,0.5-2,0.7-2.9c0.6-3.1,1.9-6,3.8-8.5
				c2.6-3.3,5.8-5.2,10.2-4.7c0.4,0,0.8,0,1.3,0c3.6-27.6,14.7-51.6,33.8-71.6s42.7-32.2,70.3-37c0-1.1-0.3-2.2,0.1-3
				c1.6-3,0.6-6.2,0.9-9.3c0-0.5,0.1-1.2-0.1-1.6c-1.3-1.5-0.8-3.2-0.8-4.8c-0.1-4.4,0-8.7,0-13.1L219.7,63z M80,387.5h3
				c18.6,0,37.2,0.1,55.9-0.1c3.1,0,4.8,0.8,6.5,3.5c23.4,37.6,67.2,57.4,110.9,50.1c27.6-4.6,50.2-18,67.9-39.6
				c3.5-4.3,6.5-9.1,10-14h52.3H397c0.5-5.8,0.3-22.4-0.3-24.3H80V387.5z M252.8,101.4c-0.2-1.3-0.1-2.7-0.7-3.3
				c-0.6-0.6-0.9-1.5-0.7-2.4c0-4.8,0-9.6,0-14.4c-0.1-1,0.2-1.9,0.7-2.7c0.9-1.1,0.8-2.6-0.1-3.6c-0.9-0.9-1.1-2.3-0.4-3.4
				c1.2-1.4,0.9-2.7,0.7-4.2l-3.1-0.3c-0.5-4.2-3.5-7.6-7.4-8.9c-0.5-2.2-1-3.9-1.2-5.8c-0.3-2.6-0.4-5.2-0.5-7.7
				c-0.4-6.7-0.8-13.5-1.2-20.2c-0.5,1.6-0.8,3.3-0.8,4.9c-0.8,9.5-0.4,19.2-2.4,28.2c-1.9,1.3-3.8,2.3-5.1,3.8s-2.1,3.6-3.2,5.6
				l-3.6,0.3c0.2,1.4,0.1,2.6,0.6,3.5c1,1.9,1.1,2.3,0,4c-0.6,0.9-0.8,3,0,3.7c0.7,0.6,1,1.5,0.8,2.4c0,4.9,0,9.8,0,14.7
				c0,0.5,0.2,1.4-0.1,1.6c-1.6,1-1,2.6-1.3,4.1l-2.3,1.1c-0.8,0.4-1.6,0.7-2.4,1.2c-9,4.7-16.2,11.6-22.4,19.5
				c-9.4,12.1-16,25.6-21.2,39.9c-5.8,16.1-9.9,32.8-12.2,49.7c-0.4,3.1-0.8,6.1-1.2,9.4h6.8c0.2-0.6,0.3-1,0.5-1.4
				c2.9-9.4,9.3-14.9,18.9-16.2c5-0.5,10.1-0.6,15.2-0.2c8.8,0.5,16.1,7,17.6,15.6c0.1,0.7,0.3,1.4,0.5,2H248v-6.5
				c-1.9,0-3.7,0.1-5.5,0c-2.3-0.1-3.6-1.4-3.8-3.7s0-4.6,0-7.1c0.9-0.1,1.9-0.2,2.8-0.1c2.4,0.4,3.5-1,4.5-3.2
				c-4.9-0.1-9.6,0.1-14.1-0.1c-0.4-1.6,0.3-1.8,1.2-1.8c1.8,0,3.6-0.1,5.4-0.1c0.1-1.5,0.2-2.6,0.4-3.9c2.7,0.1,5.4,0.4,6.6-3.1
				h-4.8c-1.1,0-2-0.3-2-1.6c0-3.2,0-6.5,0-9.8l0.5-0.2c1,1.3,2,2.5,3,3.8c0.4-4.3,0.6-8.7,0.5-13c0-4.4,0-8.7,0-13.1v-39.3
				c0-4.3,0-8.7,0-13c3-0.2,6,0.2,8.8,1c8.8,2.8,16.1,7.9,22.6,14.2c9.5,9.3,16.5,20.3,22.1,32.2c9.2,19.2,14.6,39.5,17.7,60.5
				c0.2,1.3,0.3,2.6,0.5,4.2h-8.2c0.4,1.5,0.7,2.6,1,3.7h31.6v-6.5c-1.2,0-2.2,0-3.3,0c-1.2,0-2.3-0.1-3.5-0.3
				c-1.3-0.2-2.3-1.2-2.5-2.5c-0.2-2.7-0.2-5.5,0-8.2c2.7,0,5.2,0.3,5.7-3.3c-3.1,0-6.2,0.1-9.2,0c-1,0-2.8,0.8-2.8-0.9
				c0.1-1.6,1.9-0.7,2.9-0.9c1-0.1,2.1-0.1,3.1-0.1c0.1-1.4,0.2-2.6,0.3-3.9c2.8,0.4,5.2-0.1,6.8-3c-1.7,0-3.2,0-4.7,0
				c-1.9-0.1-2.3-0.5-2.4-2.4c0-1.3,0-2.7,0-4c0-1.1,0-2.2-0.1-3.3l-0.5-0.1l-6.5,9.6c0.7,1.9,3.1,2.1,2.8,4.4l-4.6,0.3v7.3l2,0.7
				v10.4c-1.7,0.6-2-0.3-2.2-1.5c-1.6-7.9-2.9-15.9-4.9-23.8c-4.1-17-10.7-33.3-19.7-48.3c-7.4-12.1-16.3-22.9-28.4-30.8
				c-0.3-0.2-0.5-0.4-0.8-0.7c17,4.2,32.7,12.5,45.8,24.1c22.1,19.6,35.5,44,39.8,73.3h5c-0.9-17.1-9.2-41.3-23.4-59.7
				C313.2,121.5,286.2,105.9,252.8,101.4z M228.3,358.7c0.6-1.9,0.7-49.9,0.1-52.7h-92.3c-0.6,4.5-0.4,50.8,0.2,52.7H228.3z
				 M210,104.3c-49.6,11.8-85.7,56.6-89.6,101.9c6.3,0.1,12.7-0.6,18.4,3v6.2l-2.5,0.5c-0.3,2.1-0.3,4.3,0.1,6.4h19.1
				c0.2-1,0.4-1.9,0.5-2.7c1.4-11.8,3.6-23.4,6.6-34.9c4.6-17.5,10.9-34.2,20.3-49.8c7-11.5,15.4-21.8,26.5-29.7
				C209.5,104.9,209.8,104.6,210,104.3z M91.7,300.6h282.5v38.9c0,3.2,0,6.4,0,9.6s-0.1,6.3,0,9.4H385v-3.4c0-19.6,0-39.2,0-58.8
				c0-2.2,0.3-4.2,1.9-5.8c1.1-1,1.4-2.7,0.6-4c-3.8,0-7.5-0.1-11.4,0.1v5.6c-2.9,0.6-274.5,0.5-276.5-0.1l-0.3-5.4H89.2
				c-0.5,1.5-0.1,3.2,1.1,4.4c1.1,1.1,1.6,2.6,1.4,4.1C91.6,296.9,91.7,298.6,91.7,300.6z M207.8,285.9c0.1-0.8,0.1-1.5,0.1-2.2
				c0-19.2,0-38.5,0-57.7c0-1-0.1-2-0.3-2.9c-1.7-8.2-9.3-13.8-17.7-12.9c-8.3,0.7-14.6,7.7-14.6,16c-0.1,18.5,0,37.1,0,55.6
				c0,0.5,0.1,1,0.2,1.8c2.6-1.2,4.9-2.4,7.2-3.4c1.1-0.5,2.3-0.8,3.6-0.9c5.4-0.1,10.9,0,16.3,0c0.7,0,1.4,0.1,2.3,0.2v6.5
				L207.8,285.9z M300.8,283.5c0.1-0.9,0.1-1.4,0.1-1.9c0-18.7,0-37.4,0-56.1c-0.1-2-0.5-4-1.4-5.9c-3.1-6.9-10.6-10.7-18-9.2
				c-7.7,1.4-13.3,8.1-13.1,15.9c0,19.2,0,38.5,0,57.7c0,0.6,0.1,1.2,0.2,1.8h3.2v-6.7h2.9c4.9,0,9.8,0,14.7,0
				c1.7,0,3.4,0.3,4.9,1.1C296.3,281.4,298.5,282.3,300.8,283.5L300.8,283.5z M130.7,358.7c0.5-4.6,0.3-50.8-0.2-52.7H91.9
				c-0.5,4.7-0.3,50.7,0.3,52.7H130.7z M214,226.7c-0.5,4.2-0.3,57.2,0.1,59.1h47.6c0.6-4,0.4-57.1-0.2-59.1L214,226.7z
				 M168.2,244.3v-17.6h-32.1v59.1h32.1c0.5-4.4,0.3-21.1-0.2-23h-9v20.4h-8.5v-20.6h-3.7c-2.8,0-2.9-0.1-3.9-3.5h25.4v-11H159v8.3
				h-8.5V248h-6c-0.5-1.2-1.7-2.1-1.6-3.7H168.2z M372.9,283.6c0-1.1,0.1-1.6,0.1-2.1c0-18.2,0-36.3,0-54.5c0-1.9-0.2-3.7-0.5-5.6
				c-0.6-3.4-1.8-6.5-4.4-9s-6-2.6-8.6,0c-1.2,1.2-2.2,2.6-2.9,4.1c-1.5,3.2-2.2,6.6-2.1,10.1c0,16.6,0,33.1,0,49.7
				c0,0.9,0.1,1.7,0.1,3c2.1,0,4,0.1,5.9,0c2.5-0.2,5,0.4,7.1,1.7C369.2,281.9,370.9,282.6,372.9,283.6z M121.3,279.2v-37.1
				c0-5.4,0-10.9,0-16.3c0.1-3.7-0.9-7.3-2.6-10.5c-1.5-2.6-3.3-4.7-6.6-4.7s-5.1,2.2-6.6,4.8c-1.8,3.2-2.7,6.8-2.6,10.5
				c0,18.5,0,37,0,55.6c0,0.7,0.1,1.3,0.2,2c1.8-0.9,3.4-1.6,5-2.5c2.1-1.3,4.6-1.9,7.1-1.7C117.2,279.4,119.1,279.2,121.3,279.2z
				 M326.8,262.9h-8.5v22.8c3.2,0.6,29.3,0.4,31.1-0.1v-58.8H314v4.7l4.2,0.4v12.4h9.5c3,0,6,0,9.1,0s6.1-0.2,9.3,0.2
				c-0.9,1.9-1.4,3.8-4.1,3.6v8.5c-2.8,0-5.3,0.1-7.8,0c-2.5,0-4.9,0.3-7.6-0.3v-8.1h-8.3v11h27.6c-0.6,2.3-1.6,3.6-3.9,3.9v20.2
				h-15.3L326.8,262.9z M242.9,358.6v-52.7h-9.3v52.7H242.9z M342.3,305.9v52.7c2.4,0.3,4.7,0.2,7.1-0.1v-52.6H342.3z M126.5,226.7
				v59.1h4.2v-59.1L126.5,226.7L126.5,226.7z M376.5,262.9v19.8h8.4c0-3.4,0.1-6.6,0-9.8c-0.3-2.2,0.5-4.4,2-6
				c1.2-1,1.4-2.7,0.7-4.1L376.5,262.9z M89.3,262.9c-0.4,1.5-0.5,2.8,0.5,3.8c1.9,1.8,2.2,4,2.1,6.5s-0.1,5,0,7.5
				c0,0.7,0.1,1.3,0.2,2h7.6c0-6.7,0-13.2,0-19.8H89.3z M384.9,244.1c0-2.7,0.1-5.2,0-7.7c-0.3-2,0.4-4.1,1.9-5.6
				c1.2-1,1.6-2.7,1-4.2h-11.2V244h8.3V244.1z M99.5,226.8H89.2c-0.6,1.5-0.2,3.2,1,4.3c1.3,1.3,1.9,3.1,1.6,4.9
				c-0.1,2.7,0,5.5,0,8.3h7.6v-17.5H99.5z M376.5,248.1V259c2.8,0.2,5.7,0.2,8.5,0c-0.6-2.8,0.3-5.8,2.4-7.7
				c0.8-0.9,0.9-2.2,0.2-3.2H376.5z M89.3,248c-0.4,1.8-0.3,3.1,0.9,4.2c1.4,1.3,2,3.2,1.8,5.1c0,0.6,0.1,1.1,0.2,1.7
				c2.4,0.2,4.9,0.2,7.3-0.1V248H89.3z"/>
			<path d="M397.1,75.8v60.6c0.9,0.6,1.6,1.1,2.5,1.6c26,17.1,42.8,40.7,48.6,71.2c7.2,38.2-3.2,71.5-30.4,99.5
				c-5.5,5.6-11.6,10.5-18.4,14.6c-1.6,0.9-2.6,2.7-2.4,4.5c0.1,9.2,0,18.4,0,27.5v3.1h-7.6c-0.1-0.8-0.2-1.5-0.2-2.1
				c0.1-20.1,0.1-40.3,0.2-60.4c0-1.3,0.4-2.5,1.3-3.4c1.1-1.2,1.6-2.8,1.5-4.4c-0.1-1.9,0-3.7,0-5.8l-3-0.5c0-3.5-0.1-7,0.1-10.5
				c0.1-1,1-2,1.7-2.9c0.8-0.9,1.2-2.2,1.2-3.4c-0.1-2,0-4.1,0-6.3l-2.7-0.6c-0.6-1-0.4-2.3,0.4-3.2c2.3-2.2,2.5-4.9,2.3-7.9
				c-0.1-1.1,0-2.1,0-3.3l-3-0.5c0-2.7-0.2-5.5,0.1-8.2c0.1-1,1.1-2,1.8-2.9c0.8-1,1.2-2.2,1.1-3.4c-0.1-2,0-4.1,0-6.4H376
				c-0.3-1.4-0.6-2.5-0.9-3.6c-0.7-3-2-5.7-3.9-8.1c-2.2-2.8-5-4.5-8.7-4.5c-0.4,0-0.8-0.1-1.2-0.2c-3.6-27.6-14.7-51.7-34.1-71.8
				s-43.1-32.1-70.5-36.5c-0.8-3.7-1.5-7.3-1.2-11c0.1-1.3-0.3-2.7,0.7-3.8c0.2-0.2,0.1-0.7,0.1-1c0-6.1,0-12.3,0-18.3
				c-0.3-0.2-0.5-0.5-0.6-0.4c-2.2,0.4-4.4-0.9-5.2-3c-0.7-1.3-1.8-2.5-3.1-3.2c-2.2-1.4-2.9-3.4-3-5.8c-0.2-4.5-0.6-8.9-0.8-13.3
				c-0.3-5-0.5-10-0.8-14.9c0-0.5,0-1,0-1.9c3.3,0.3,6.4,0.4,9.5,0.8c32.5,4.7,58.2,20.5,77,47.5c1,1.3,1.9,2.7,2.7,4.2
				c0.9,1.9,2.2,2.6,4.4,2.5c19-0.1,38-0.1,57-0.1h3.7V75.8z"/>
			<path d="M219.7,63v2.8c0,4.4,0,8.7,0,13.1c0,1.6-0.5,3.4,0.8,4.8c0.3,0.3,0.2,1,0.1,1.6c-0.3,3.1,0.7,6.3-0.9,9.3
				c-0.4,0.8-0.1,1.9-0.1,3c-27.5,4.8-51.1,17-70.3,37s-30.2,44-33.8,71.6c-0.5,0-0.9,0-1.3,0c-4.3-0.5-7.6,1.4-10.2,4.7
				c-1.8,2.5-3.1,5.4-3.7,8.4c-0.2,0.9-0.4,1.7-0.7,2.9h-15c0,2.8-0.2,5.3,0.1,7.7c0.3,1.1,0.8,2.1,1.6,2.9c0.9,1,1.3,2.3,1.2,3.7
				c-0.1,2.2,0,4.4,0,6.7l-2.6,0.4c-0.1,0.2-0.2,0.5-0.3,0.7c0,2.1,0,4.1-0.1,6.1c-0.1,1.5,0.9,2.5,1.7,3.5s1.7,2.3,1,4l-2.7,0.6
				c0,2.5-0.2,5,0.1,7.4c0.3,1.1,0.8,2.2,1.6,3c0.9,1,1.3,2.3,1.2,3.7c-0.1,3,0,6,0,9.2l-2.9,0.5c0,2.6-0.2,5,0.1,7.5
				c0.3,1.1,0.8,2.1,1.6,2.9c0.9,1,1.3,2.3,1.3,3.6c-0.1,20-0.1,39.9-0.2,59.9c0,0.7-0.1,1.4-0.2,2.2h-7.3c-0.1-1-0.1-1.9-0.1-2.8
				c0-9.3-0.1-18.5,0.1-27.8c0.2-1.9-0.8-3.8-2.5-4.7c-26.5-17.4-43.1-41.6-48.9-72.8c-8.1-43.8,11.1-88.1,48.6-112.1
				c0.5-0.3,1-0.7,1.6-1c0.8-0.4,1.3-1.2,1.2-2.2c0-0.7,0-1.4,0-2.1v-57c1.3,0,2.3-0.1,3.3-0.1c19,0,38,0,57,0.1
				c1.9,0.2,3.8-0.8,4.7-2.5c17-27.2,41.3-44.1,72.8-50.6c4.3-0.9,8.8-1.2,13.2-1.7c1-0.1,2.1-0.1,3.1,0c-0.2,3.9-0.4,7.6-0.6,11.3
				c-0.3,5.7-0.6,11.4-0.9,17.1c-0.1,1.2-0.2,2.5-0.5,3.7c-0.3,1.5-1.2,2.8-2.4,3.6c-1.6,1.2-2.9,2.6-3.9,4.3
				c-0.9,1.5-1.8,2.3-3.6,2C221.3,62.9,220.5,62.9,219.7,63z"/>
			<path d="M80,387.5v-24.3h316.8c0.6,1.9,0.8,18.5,0.3,24.3h-10.5h-52.3c-3.5,4.9-6.5,9.6-10,14c-17.6,21.7-40.2,35-67.9,39.6
				c-43.7,7.3-87.5-12.5-110.9-50.1c-1.7-2.7-3.4-3.6-6.5-3.5c-18.6,0.1-37.2,0.1-55.9,0.1H80V387.5z"/>
			<path d="M252.8,101.4c33.4,4.5,60.3,20.1,80.8,46.8c14.1,18.4,22.5,42.6,23.4,59.7h-5c-4.2-29.4-17.7-53.8-39.8-73.3
				c-13.1-11.6-28.8-19.9-45.8-24.1c0.2,0.3,0.5,0.5,0.8,0.7c12,7.9,21,18.6,28.4,30.8c9,15,15.6,31.3,19.7,48.3
				c2,7.9,3.3,15.9,4.9,23.8c0.2,1.2,0.5,2.1,2.2,1.5v-10.4l-2-0.7V197l4.6-0.3c0.4-2.3-2.1-2.5-2.8-4.4l6.5-9.6l0.5,0.1
				c0,1.1,0.1,2.2,0.1,3.3c0,1.3,0,2.7,0,4c0.1,1.9,0.5,2.3,2.4,2.4c1.5,0,3,0,4.7,0c-1.6,2.9-4,3.4-6.8,3c-0.1,1.4-0.2,2.5-0.3,3.9
				c-1,0-2.1,0-3.1,0.1c-1,0.2-2.8-0.8-2.9,0.9c-0.1,1.8,1.8,0.9,2.8,0.9c3,0.1,6,0,9.2,0c-0.5,3.5-3,3.3-5.7,3.3
				c-0.2,2.7-0.2,5.5,0,8.2c0.2,1.3,1.2,2.3,2.5,2.5c1.1,0.2,2.3,0.3,3.5,0.3c1,0.1,2.1,0,3.3,0v6.5h-31.5c-0.3-1.1-0.6-2.2-1-3.7
				h8.2c-0.2-1.6-0.3-2.9-0.5-4.2c-3.1-21-8.5-41.3-17.7-60.5c-5.7-11.9-12.6-22.9-22.1-32.2c-6.5-6.2-13.9-11.3-22.6-14.1
				c-2.9-0.8-5.8-1.2-8.8-1.1c0,4.4,0,8.7,0,13v39.3c0,4.4,0,8.7,0,13.1c0.1,4.3-0.1,8.7-0.5,13c-1-1.3-2-2.5-3-3.8l-0.5,0.2
				c0,3.2,0,6.5,0,9.8c0,1.3,0.9,1.6,2,1.6h4.8c-1.2,3.5-3.9,3.2-6.6,3.1c-0.1,1.3-0.2,2.4-0.4,3.9c-1.8,0-3.6,0.1-5.4,0.1
				c-0.9,0-1.6,0.2-1.2,1.8c4.5,0.2,9.2,0,14.1,0.1c-1,2.1-2,3.6-4.5,3.2c-0.9,0-1.9,0-2.8,0.1c0,2.5-0.1,4.8,0,7.1s1.5,3.5,3.8,3.7
				c1.8,0.1,3.5,0,5.5,0v6.5h-26.5c-0.2-0.7-0.4-1.4-0.5-2c-1.6-8.6-8.8-15.1-17.6-15.6c-5.1-0.4-10.2-0.3-15.2,0.2
				c-9.6,1.3-16,6.8-18.9,16.2c-0.1,0.4-0.3,0.8-0.5,1.4h-6.8c0.4-3.3,0.7-6.3,1.2-9.4c2.3-16.9,6.4-33.6,12.2-49.7
				c5.2-14.3,11.8-27.9,21.2-39.9c6.2-8,13.3-14.8,22.4-19.5c0.8-0.4,1.6-0.8,2.4-1.2l2.3-1.1c0.3-1.5-0.3-3.1,1.3-4.1
				c0.2-0.2,0.1-1,0.1-1.6c0-4.9,0-9.8,0-14.7c0.2-0.9-0.1-1.8-0.8-2.4c-0.8-0.7-0.7-2.8,0-3.7c1.2-1.6,1-2.1,0-4
				c-0.5-0.9-0.4-2.2-0.6-3.5l3.6-0.3c1.1-2,1.8-4.1,3.2-5.6s3.2-2.4,5.1-3.8c1.9-9.1,1.6-18.7,2.4-28.2c0.1-1.7,0.4-3.3,0.8-4.9
				c0.4,6.7,0.8,13.5,1.2,20.2c0.2,2.6,0.2,5.2,0.5,7.7c0.2,1.8,0.8,3.6,1.2,5.8c4,1.3,6.9,4.7,7.4,8.9l3.2,0.3
				c0.2,1.5,0.6,2.8-0.7,4.2c-0.7,1.1-0.6,2.5,0.4,3.4c0.9,1,1,2.6,0.1,3.6c-0.6,0.8-0.8,1.7-0.7,2.7c0,4.8,0,9.6,0,14.4
				c-0.1,0.9,0.1,1.7,0.7,2.4C252.7,98.7,252.6,100,252.8,101.4z M233.5,106c-3.5,0.5-4.7,1.9-4.7,5.5c0,26.3,0,52.6,0,78.8
				c0,0.7,0.1,1.4,0.2,2c1.2,0.5,2.7,0,3.3-1.2c0.9-1.3,1.4-2.9,1.2-4.5c0-25.9,0-51.8,0-77.8V106z M245,86.8l-0.7-0.1v-7.6
				c-1.7-0.5-1.7,0.4-1.7,1.4c0,2.6,0,5.2,0,7.7c0,1.5-0.1,1.5-1.9,2.5V88c0-2.6,0-5.2,0-7.7c-0.1-0.6-0.4-1.2-0.7-1.7
				c-0.9,2-1.2,15.2-0.5,19.3c2.7,0,5.5,0.2,8.5-0.1c0-5,0-9.7,0-14.4c0-1.2,0-2.3-0.1-3.5c0-0.4-0.6-0.8-1-1.3
				C245.4,81.4,247.8,84.7,245,86.8z M239.4,74.7h8.6c-0.1-0.9-0.1-1.7-0.2-2.6h-8.4L239.4,74.7L239.4,74.7z M242.4,62.3
				c-1.9,0.9-3,2.8-2.9,4.8h5.8C245.1,64.6,244.9,64.2,242.4,62.3L242.4,62.3z"/>
			<path d="M228.3,358.7h-91.9c-0.6-1.9-0.8-48.2-0.2-52.7h92.2C229,308.8,228.9,356.8,228.3,358.7z"/>
			<path d="M210,104.3c-0.2,0.3-0.5,0.6-0.8,0.9c-11.1,7.8-19.5,18.2-26.5,29.7c-9.4,15.5-15.7,32.3-20.3,49.8
				c-3,11.5-5.2,23.1-6.6,34.9c-0.1,0.9-0.3,1.8-0.5,2.7h-19.1c-0.4-2.1-0.4-4.2-0.1-6.4l2.5-0.5v-6.1c-5.7-3.7-12.1-2.9-18.4-3
				C124.3,160.9,160.4,116.1,210,104.3z M142.5,204.8c-0.5,2.8-0.4,8.6,0.1,10.5c4-0.9,5.3-4.7,4-10.5H142.5z M139.8,192.5
				c2.2,0,3.8,0,5.4,0c0.9,0.1,1.6-0.5,1.7-1.4c0-0.1,0-0.1,0-0.2c0-2.5,0-5.1,0-7.6l-0.6-0.2L139.8,192.5z M149.2,201.3
				c-0.1-0.6-0.2-1.4-0.4-1.4c-1.9,0-1.8-1.5-2-2.8h-4.4c-0.2,0.9-0.3,1.6-0.4,2.3c-3.4,0.5-3.4,0.5-3.5,2L149.2,201.3z"/>
			<path d="M91.7,300.6c0-2.1-0.1-3.8,0-5.4c0.2-1.5-0.3-3-1.4-4.1c-1.2-1.1-1.6-2.8-1.1-4.4h10.3l0.3,5.4
				c2,0.6,273.6,0.7,276.5,0.1v-5.6c3.9-0.1,7.6-0.1,11.4-0.1c0.8,1.3,0.5,3-0.6,4c-1.7,1.6-1.9,3.6-1.9,5.8c0.1,19.6,0,39.2,0,58.8
				v3.4h-10.8c-0.1-3.1,0-6.2,0-9.4s0-6.4,0-9.6v-38.9L91.7,300.6L91.7,300.6z"/>
			<path d="M207.8,285.9h-3v-6.5c-0.9-0.1-1.6-0.2-2.3-0.2c-5.4,0-10.9-0.1-16.3,0c-1.2,0.1-2.4,0.4-3.6,0.9c-2.4,1-4.6,2.2-7.2,3.4
				c-0.1-0.8-0.2-1.3-0.2-1.8c0-18.5,0-37.1,0-55.6c0-8.3,6.4-15.3,14.6-16c8.4-0.9,16,4.7,17.7,12.9c0.2,1,0.3,1.9,0.3,2.9
				c0,19.2,0,38.5,0,57.7C207.9,284.4,207.8,285.1,207.8,285.9z"/>
			<path d="M300.8,283.4c-2.4-1.1-4.5-2.1-6.6-3.2c-1.5-0.8-3.2-1.2-4.9-1.1c-4.9,0.1-9.8,0-14.7,0h-2.9v6.7h-3.2
				c-0.1-0.6-0.2-1.2-0.2-1.8c0-19.2,0-38.5,0-57.7c-0.1-7.8,5.5-14.5,13.1-15.9c7.4-1.6,14.9,2.2,18.1,9.2c0.8,1.9,1.3,3.9,1.4,5.9
				c0.1,18.7,0.1,37.4,0,56.1C301,282.1,300.9,282.6,300.8,283.4z"/>
			<path d="M130.7,358.7H92.1c-0.6-2-0.8-48-0.3-52.7h38.6C131,307.8,131.2,354.1,130.7,358.7z"/>
			<path d="M214,226.7h47.6c0.6,1.9,0.8,55.1,0.2,59.1h-47.7C213.7,284,213.5,231,214,226.7z M238.3,262.7v20.5
				c4.2,0.5,14.5,0.3,16.5-0.2c0.3-6.7-0.2-13.4,0.2-20.1l3.7-0.4c0-0.7,0.1-1.2,0.1-1.7s-0.1-1-0.2-1.4H221
				c1.1,3.3,1.1,3.3,4.2,3.3L238.3,262.7L238.3,262.7z M238.3,248v8.5H255v-8.3l3.8-0.3v-3.3H221c1.3,3.5,1.3,3.5,4.5,3.5L238.3,248
				L238.3,248z M254.9,241.7c0-3.4,0.1-6.4-0.1-9.4h-16.4v9.4H254.9z"/>
			<path d="M168.2,244.3h-25.5c-0.1,1.6,1.1,2.4,1.6,3.7h6v8.4h8.5V248h9.3v11h-25.4c1,3.4,1.1,3.5,3.9,3.5h3.7v20.6h8.5v-20.4h9
				c0.6,2,0.7,18.6,0.2,23h-32.1v-59.1H168v17.7H168.2z M150.6,231.8v9.9c2.8,0.2,5.5,0.2,8.3,0c0.1-3.3,0.1-6.6-0.2-9.9H150.6z"/>
			<path d="M372.9,283.6c-2-1-3.7-1.7-5.3-2.6c-2.1-1.3-4.6-1.9-7.1-1.7c-1.9,0.1-3.9,0-5.9,0c0-1.2-0.1-2.1-0.1-3
				c0-16.6,0-33.1,0-49.7c-0.1-3.5,0.6-6.9,2.1-10.1c0.7-1.5,1.7-2.9,2.9-4.1c2.6-2.6,5.9-2.5,8.6,0s3.8,5.6,4.4,9
				c0.4,1.8,0.5,3.7,0.5,5.6c0,18.2,0,36.3,0,54.5C373,282,373,282.5,372.9,283.6z"/>
			<path d="M121.3,279.2c-2.2,0-4.2,0.1-6.1,0c-2.5-0.2-5,0.4-7.1,1.7c-1.5,0.9-3.1,1.6-5,2.5c-0.1-0.7-0.2-1.3-0.2-2
				c0-18.5,0-37.1,0-55.6c-0.1-3.7,0.8-7.3,2.6-10.5c1.4-2.6,3.3-4.8,6.6-4.8s5.1,2.2,6.6,4.7c1.8,3.2,2.7,6.8,2.6,10.5
				c0,5.4,0,10.9,0,16.3V279.2L121.3,279.2z"/>
			<path d="M326.7,262.9v20.4H342V263c2.3-0.2,3.3-1.5,3.9-3.9h-27.6v-11h8.3v8.1c2.7,0.6,5.2,0.2,7.6,0.3s5,0,7.8,0V248
				c2.7,0.2,3.2-1.7,4.1-3.6c-3.2-0.4-6.3-0.1-9.3-0.2s-6,0-9.1,0h-9.5v-12.4l-4.2-0.4v-4.7h35.4v58.8c-1.8,0.6-27.9,0.7-31.1,0.1
				v-22.8L326.7,262.9L326.7,262.9z M341.9,241.7V232c-2.9-0.6-13.2-0.5-15.2,0.2c0,3.1-0.1,6.3,0.1,9.5H341.9z"/>
			<path d="M242.9,358.6h-9.3v-52.7h9.3V358.6z"/>
			<path d="M342.2,305.9h7.1v52.6c-2.4,0.3-4.7,0.4-7.1,0.1V305.9z"/>
			<path d="M126.5,226.7h4.2v59.1h-4.2V226.7z"/>
			<path d="M376.4,262.9h11.1c0.7,1.3,0.4,3-0.7,4.1c-1.5,1.6-2.3,3.8-2,6c0.2,3.2,0,6.4,0,9.8h-8.4V262.9z"/>
			<path d="M89.3,262.9h10.3c0.1,6.6,0,13.1,0,19.8h-7.5c-0.1-0.7-0.2-1.3-0.2-2c0-2.5-0.1-5,0-7.5s-0.2-4.7-2.1-6.5
				C88.8,265.7,88.9,264.4,89.3,262.9z"/>
			<path d="M384.8,244.2h-8.4v-17.4h11.2c0.7,1.5,0.3,3.2-1,4.2c-1.4,1.5-2.1,3.5-1.9,5.6C384.9,239,384.8,241.4,384.8,244.2z"/>
			<path d="M99.5,226.8v17.5h-7.6c0-2.9-0.1-5.6,0-8.3c0.2-1.8-0.4-3.6-1.6-4.9c-1.2-1.1-1.6-2.8-1-4.3H99.5z"/>
			<path d="M376.4,248.1h11.1c0.6,1,0.5,2.3-0.2,3.2c-2.1,2-3,4.9-2.4,7.7c-2.8,0.2-5.7,0.2-8.5,0V248.1z"/>
			<path d="M89.2,248h10.2v10.9c-2.4,0.3-4.9,0.3-7.3,0.1c-0.1-0.6-0.2-1.1-0.2-1.7c0.3-1.9-0.4-3.8-1.8-5.1
				C89,251.1,88.8,249.7,89.2,248z"/>
			<path class="st0" d="M233.5,106v2.9c0,25.9,0,51.8,0,77.8c0.1,1.6-0.3,3.2-1.2,4.5c-0.6,1.2-2.1,1.7-3.3,1.2c0-0.6-0.2-1.3-0.2-2
				c0-26.3,0-52.6,0-78.8C228.8,107.9,230,106.5,233.5,106z"/>
			<path class="st0" d="M245,86.8c2.7-2.1,0.4-5.4,1.9-8.2c0.4,0.5,1,0.9,1,1.3c0.1,1.2,0.1,2.3,0.1,3.5c0,4.7,0,9.4,0,14.4
				c-2.9,0.3-5.7,0.1-8.5,0.1c-0.7-4.1-0.5-17.3,0.5-19.3c0.3,0.5,0.6,1.1,0.7,1.7c0.1,2.6,0,5.2,0,7.7v2.7c1.8-1,1.9-1,1.9-2.5
				c0-2.6,0-5.2,0-7.7c0-0.9,0-1.9,1.7-1.4v7.6L245,86.8z"/>
			<path class="st0" d="M239.4,74.7v-2.6h8.4c0.1,1,0.1,1.7,0.2,2.6H239.4z"/>
			<path class="st0" d="M242.4,62.3c2.5,2,2.7,2.3,2.9,4.8h-5.8C239.4,65,240.5,63.1,242.4,62.3z"/>
			<path class="st0" d="M142.5,204.8h4.1c1.3,5.8-0.1,9.6-4,10.5C142,213.4,141.9,207.7,142.5,204.8z"/>
			<path class="st0" d="M139.8,192.5l6.6-9.4l0.6,0.2c0,2.5,0,5,0,7.6c0,0.9-0.6,1.6-1.5,1.6c-0.1,0-0.1,0-0.2,0
				C143.6,192.5,142,192.5,139.8,192.5z"/>
			<path class="st0" d="M149.2,201.3h-10.7c0.1-1.5,0.1-1.5,3.5-2c0.1-0.7,0.3-1.4,0.4-2.3h4.4c0.2,1.3,0.2,2.8,2,2.8
				C148.9,199.9,149,200.7,149.2,201.3z"/>
			<path class="st0" d="M238.3,262.7h-13c-3.1,0-3.1,0-4.2-3.3h37.6c0.1,0.5,0.1,0.9,0.2,1.4c0,0.5-0.1,1-0.1,1.7l-3.7,0.4
				c-0.4,6.7,0,13.4-0.2,20.1c-1.9,0.6-12.3,0.7-16.5,0.2L238.3,262.7z"/>
			<path class="st0" d="M238.3,248h-12.8c-3.2,0-3.2,0-4.5-3.5h37.8v3.3l-3.8,0.3v8.3h-16.7L238.3,248L238.3,248z"/>
			<path class="st0" d="M254.9,241.7h-16.4v-9.4h16.3C255,235.2,254.9,238.3,254.9,241.7z"/>
			<path class="st0" d="M150.6,231.8h8.1c0.2,3.3,0.3,6.6,0.2,9.9c-2.8,0.2-5.5,0.2-8.3,0V231.8z"/>
			<path class="st0" d="M341.9,241.7h-15.1c-0.2-3.2-0.1-6.4-0.1-9.5c2-0.6,12.3-0.8,15.2-0.2V241.7z"/>
			<path d="M591.6,281.4c-2.4-8.2-6.5-17.5-16.5-17.5c-6.8,0-12.3,5.5-12.3,12.3l0,0c0,0.3,0,0.6,0,1c0,7.6,5,12.3,15.3,17.8
				c11.5,6.3,21.1,13,21.1,26.5c-0.2,14.5-12.2,26-26.7,25.8l0,0c-0.6,0-1.2,0-1.8-0.1c-4.1,0.1-8.1-0.6-11.9-2
				c-2.4-0.7-4.7-1.6-6.9-2.7c-1.6-7-2.8-14.1-3.5-21.3l4.1-1.3c2.1,8.2,8.6,22.2,20.5,22.2c7.1,0.1,13-5.5,13.1-12.6
				c0-0.6,0-1.2-0.1-1.9c0-8.3-5.7-13.1-14.8-18.1c-10.7-6-20.7-12.9-20.7-26.1c0-13.6,11-24.6,24.5-24.6l0,0c0.7,0,1.4,0,2.1,0.1
				c5.6,0.2,11.1,1.3,16.3,3.2c0.5,4.8,1.2,10.2,2.1,18.4L591.6,281.4z M653.9,345.1V341c7.2-1.1,7.7-2.6,6.3-7.6
				s-3.5-10.4-5.6-16.6h-24c-1.5,4.8-3.2,9.7-4.7,15.3c-2.1,7-1.5,8.6,7.7,9.7v4.1h-27v-4.1c7.7-1.1,9.4-2.3,13.5-13.5l24.7-67.1
				l5.3-1.5c7.7,23,15.3,45.9,23,68.2c4,11.4,5.5,12.9,13.2,13.9v4.1L653.9,345.1z M643.3,280.1L643.3,280.1
				c-3.5,10-6.7,20.1-10.2,29.8h20L643.3,280.1z M779.1,264.8c-6.6,0.5-9.2,2.2-9.8,8.1c-0.8,7.2-1.1,14.4-1,21.6v52.1h-5
				l-51.1-66.2l0,0V311c-0.1,7.1,0.2,14.2,0.8,21.3c0.6,6.1,2.9,8.2,11.6,8.7v4.1h-29.3V341c6.7-0.5,9.6-2.4,10.2-8.3
				c0.7-7.2,1-14.5,1-21.7v-27.6c0-8.8,0-10.6-2.5-13.6c-2.5-3.2-6.4-5-10.4-4.8v-4.1h20.8l47.7,59.8h0.4v-26.1
				c0-11.7-0.6-17.8-0.8-21.6c-0.8-5.6-3.3-7.6-12-8.2v-4.1h29.2L779.1,264.8z M859.6,345v-4.1c7.7-1.1,8-2.6,6.3-7.6
				s-3.4-10.4-5.5-16.6h-24.2c-1.6,4.8-3.3,9.7-4.8,15.3c-2,7-1.5,8.6,7.7,9.7v4.1h-26.9v-4.1c7.7-1.1,9.4-2.3,13.5-13.5l24.7-67.1
				l5.3-1.5c7.7,23,15.3,45.9,23,68.2c4,11.4,5.6,12.9,13.3,13.9v4.1L859.6,345z M848.7,280L848.7,280c-3.5,9.9-6.8,20.1-10.2,29.8
				h20L848.7,280z M984.5,264.7c-6.5,0.5-9.2,2.2-9.7,8.1c-0.8,7.2-1.1,14.4-1,21.6v52.2h-5l-50.7-65.9l0,0v30.7
				c-0.1,7.1,0.2,14.2,0.8,21.3c0.6,6.1,2.9,8.2,11.6,8.7v4.1h-29.7v-4.1c6.7-0.5,9.6-2.5,10.2-8.3c0-4.3,0.9-10.2,0.9-21.7v-27.6
				c0-8.8,0-10.6-2.4-13.6c-2.5-3.2-6.4-5-10.4-4.8v-4.1H920l47.8,59.8l0,0v-26.4c0-11.7-0.6-17.8-0.8-21.6
				c-0.7-5.6-3.2-7.6-11.9-8.2v-4.1H984L984.5,264.7z M1059.5,282c-0.7-4.5-2.3-8.9-4.8-12.7c-2.1-2.6-4.8-3.4-12.7-3.4h-6.5V328
				c0,10.8,1.1,11.8,12.1,12.7v4.1h-37.9v-4.1c10.3-0.9,11.6-1.9,11.6-12.7v-62h-5.4c-9.9,0-12.2,1.1-13.8,3.6
				c-2.4,3.8-3.9,8.1-4.6,12.6h-4.1c0.5-8.9,1.2-18.1,1.5-24.8h2.8c1.8,3,3.4,3.2,6.8,3.2h48.3c2.6,0.1,5.1-1.1,6.7-3.2h2.8
				c0,5.6,0.6,16.3,1.2,24.4L1059.5,282z M1153.1,301.8c0,27.9-18.6,45.1-41.2,45.1s-40.2-18.8-40.2-43.8c0-23,15.3-44.5,41.7-44.5
				c22.4,0.6,40.1,19.2,39.6,41.7l0,0c0,0.5,0,1.1-0.1,1.6L1153.1,301.8z M1088,300.2c0,23,10.3,41.4,26.3,41.4
				c12.2,0,22.5-12.1,22.5-36.4c0-26.3-11-41.5-25.7-41.5c-12.8,0.2-23.3,13.5-23.3,36.9L1088,300.2z M1247.3,264.7
				c-6.5,0.4-9.2,2.2-9.8,8.1c-0.7,7.2-1,14.4-0.9,21.6v52.2h-5.1l-50.7-65.9l0,0v30.7c-0.1,7.1,0.2,14.2,0.8,21.3
				c0.6,6.1,2.9,8.2,11.6,8.7v4.1h-29.6v-4.1c6.8-0.5,9.7-2.5,10.2-8.3c0.7-7.2,1-14.5,1-21.7v-27.6c0-8.8,0-10.6-2.4-13.6
				c-2.5-3.2-6.4-5-10.4-4.8v-4.1h20.7l47.7,59.8l0,0v-26.4c0-11.7-0.6-17.8-0.8-21.6c-0.7-5.6-3.3-7.6-11.9-8.2v-4.1h29.1
				L1247.3,264.7z M1257.5,344.9v-4.1c9.3-0.9,10.3-1.7,10.3-12.7v-50.2c0-11-1.1-11.9-10.3-12.7v-4.3h34.7v4.3
				c-9.3,0.8-10.3,1.7-10.3,12.7v50.5c0,10.9,1,11.8,10.3,12.7v4.1L1257.5,344.9z M1381.9,301.8c0,27.9-18.6,45.1-41.2,45.1
				s-40.2-18.8-40.2-43.8c0-23,14.9-44.5,41.6-44.5c22.4,0.6,40.1,19.2,39.6,41.7l0,0c0,0.5,0,1.1-0.1,1.6L1381.9,301.8z
				 M1316.6,300.7c0,23,10.2,41.4,26.3,41.4c12.2,0,22.4-12.1,22.4-36.4c0-26.3-10.9-41.5-25.7-41.5
				C1327.1,264,1316.6,277.4,1316.6,300.7L1316.6,300.7z"/>
			<path d="M614.1,144.1c-0.6-4.2-2.2-8.2-4.7-11.7c-2.2-2.3-4.8-3.1-12.7-3.1h-6.5v55.9c0,9.7,1.1,10.6,12.1,11.5v3.8h-37.7v-3.8
				c10.3-0.6,11.9-1.5,11.9-11.2v-55.9h-5.8c-9.9,0-12.2,1.1-13.8,3.3c-2.3,3.4-3.9,7.3-4.6,11.3h-4.1c0.5-7.7,1.2-16.2,1.5-22.3
				h2.8c1.8,2.7,3.4,2.9,6.8,2.9h48c2.5,0.2,5-0.9,6.6-2.9h2.8c0,5,0.6,14.7,1.2,22L614.1,144.1z M683.7,181.7
				c-0.8,4.7-3.1,15.3-4.3,19.1h-60.2V197c10.5-0.8,11.5-1.6,11.5-11.5V140c0-10.3-1.1-10.8-9.9-11.5v-3.8h55.6
				c0,2.3,0.7,10.5,1.2,17.3l-4.1,0.5c-0.7-3.7-2.2-7.2-4.4-10.2c-2-2.2-5.2-3.1-12.7-3.1h-7c-4.3,0-4.6,0-4.6,4v25.3h9.3
				c10.4,0,11.6-0.7,13.2-8.7h4.1v23h-4.1c-1.5-8.4-2.8-8.9-13.2-8.9h-9.3v21.2c0,5.6,0.5,8.3,2.8,9.6c3.7,1.2,7.6,1.6,11.4,1.3
				c7.7,0,11.3-0.8,14.1-3.9c2.8-3.3,5-7.1,6.6-11.2L683.7,181.7z M726.6,200.8V197c7.7-1.3,7.7-2.7,5.5-6.6s-5.5-8.9-13.8-22.3
				c-5.8,8.4-10.8,16.1-13.8,21.6s-2.1,6,6,7.6v3.8h-29.3v-3.7c5.5,0,10.7-2.4,14.4-6.6c3.9-4.7,11.5-14.5,19.7-26.5
				c-5.9-9.5-11.2-17.8-16.8-26.3c-2.9-5.7-8.9-9.2-15.3-8.9v-4.3h34v3.8c-7,1.1-6.9,2.4-5.3,5.3c2.8,4.7,6.9,11.1,11.9,18.9
				c4.1-5.5,7.9-11.3,11.2-17.3c2.5-4.5,2.2-5.7-5.8-6.9v-3.8h28.6v3.8c-6.4-0.1-12.5,3-16.1,8.3c-3.6,4.3-8.3,10.6-15.3,19.9
				c6.9,10.6,13.1,20.2,19.7,29.9c2.9,6.3,9.3,10.3,16.2,10.2v3.7L726.6,200.8z M808.4,200.8V197c7.3-1.1,7.7-2.4,6.3-7.6
				s-3.4-9.3-5.5-14.9h-24c-1.6,4.3-3.3,8.7-4.8,13.4c-2,6.4-1.5,7.6,7.7,8.8v3.8h-26.9v-3.8c7.7-1.1,9.4-2.1,13.5-12.2l24.7-59.7
				l5.3-1.4c7.7,20.3,15.3,41.3,23,61.2c4,10.2,5.6,11.6,13.3,12.5v3.8L808.4,200.8z M797.6,142.2L797.6,142.2
				c-3.5,9-6.8,18.1-10.2,26.9h20L797.6,142.2z M884.9,143.4c-2.4-7.7-6.5-15.8-16.5-15.8c-6.5-0.3-12,4.6-12.3,11.1
				c0,0.3,0,0.6,0,0.9c0,7.3,5,11.1,15.3,16c11.5,5.6,21.1,11.7,21.1,23.8s-11.3,23-28.5,23c-4,0.1-8.1-0.4-11.9-1.5
				c-2.4-0.6-4.7-1.4-6.9-2.4c-1.7-6.3-2.8-12.7-3.5-19.2l4.1-1.1c2.1,7.6,8.6,20,20.5,20c6.7,0.5,12.5-4.4,13-11.1l0,0
				c0-0.6,0-1.2,0-1.8c0-7.6-5.8-11.8-14.8-16.4c-10.7-5.4-20.7-11.6-20.7-23.5s10-22,26.5-22c5.5,0.2,11,1.1,16.3,2.9
				c0.5,4.4,1.2,9.3,2.2,16.6L884.9,143.4z M964.3,200.8V197c7.2-1.1,7.7-2.4,6.3-7.6s-3.4-9.3-5.6-14.9h-24
				c-1.5,4.3-3.2,8.7-4.7,13.4c-2.1,6.4-1.5,7.6,7.7,8.8v3.8h-27v-3.8c7.7-1.1,9.4-2.1,13.5-12.2l24.8-59.7l5.4-1.4
				c7.7,20.3,15.3,41.3,23,61.2c4,10.2,5.5,11.6,13.2,12.5v3.8L964.3,200.8z M953.5,142.2h-0.4c-3.5,9-6.7,18.1-10.2,26.9h20
				L953.5,142.2z M1081.6,154.7c-5.9,0-11.3,3.2-14.2,8.3c-3.4,4.3-6.3,8.9-10.3,14.3c7.7,7.2,14.6,15.2,20.5,23.9l-0.8,1.3
				c-6.5,0.4-12.9-1.2-18.6-4.4c-1.5-1.6-5.7-6-9.9-10.3c-5.2,8.4-14.1,13.8-24,14.5c-12.6,1-23.7-8.4-24.7-21.1l0,0v-0.5
				c0-10,6.7-14.5,17.4-21.6c-5.1-4-8.2-10-8.3-16.4c0.7-11,10.1-19.5,21.1-19.1c9.7-1,18.4,6,19.5,15.8l0.1,0.7
				c-0.1,3.9-2,7.5-5.1,9.8c-3.1,2.5-6.3,4.9-9.7,7c3.8,3.1,11.2,9.4,19.3,17.1c2.5-3.4,4.6-7.1,6.4-10.9c2.5-5.4,1.5-6.9-6.9-7.6
				v-3.7h28.3L1081.6,154.7z M1045.3,184.5c-8-8.1-16.4-15.8-25.2-23c-4.6,3.3-7.4,8.6-7.7,14.2c-0.4,8.7,6.3,16,15,16.4
				c0.4,0,0.8,0,1.2,0c6.3-0.2,12.3-3,16.5-7.7L1045.3,184.5z M1019.9,138.6c0,5.8,3.4,9.9,11.2,15.8c4.6-3.3,7.2-8.7,7.1-14.3
				c0.7-5.8-3.3-11.1-9.1-11.8l0,0h-0.4C1023.3,128.8,1019.4,133.4,1019.9,138.6L1019.9,138.6z M1144.1,200.8V197
				c9.4-0.9,9.9-1.8,9.9-13.1V138h-0.5l-27.6,61.9h-3.1l-25.9-60.6l0,0l-1.9,31.4c-0.5,6.3-0.5,12.7,0,19c0,5.4,2.9,6.3,11,7v3.9
				h-29v-3.9c6.9-0.5,9.2-2.4,10-6.7c1.2-7.2,2.1-14.5,2.5-21.8l1.8-23.5c1.2-14,0-15.3-10.3-16.2v-3.7h23l24.7,53.6l25.2-53.6h23
				v3.8c-10,0.9-10.6,1.5-10.4,12.2l1.2,43.1c0,11.3,0.7,12.2,10.6,13.1v3.7L1144.1,200.8z M1285.7,128.7c-6.9,0-9.8,2.4-10.3,6.9
				c-0.8,5.7-1.1,11.5-0.9,17.2v11.6c1.1,10.7-2.1,21.4-8.9,29.8c-6,5.6-13.9,8.6-22.1,8.4c-7.3,0.3-14.6-1.8-20.7-5.9
				c-6.9-5.2-10.2-13.9-10.2-27.5V141c0-10.8-1.1-11.4-10.2-12.2v-3.9h34.5v3.8c-9,0.7-10.1,1.4-10.1,12.2v25.9
				c0,18,6.9,28.3,20.6,28.3c15.3,0,21.5-11.8,21.5-31.2v-11c0.1-5.8-0.3-11.7-1.1-17.4c-0.7-4.2-3.4-6.2-11.7-6.7v-3.9h29.7v3.8
				H1285.7z M1368.5,128.7c-6.5,0-9.1,2-9.7,7.2c-0.8,6.5-1.2,13-1.1,19.5V202h-5l-50.7-59.3l0,0v27.4c-0.1,6.4,0.2,12.8,0.8,19.2
				c0.6,5.4,2.9,7.7,11.6,7.7v3.7H1285V197c6.7-0.5,9.6-2.2,10.3-7.7c0.7-6.5,1-13,0.9-19.5v-24.6c0-7.7,0-9.6-2.4-12.2
				c-2.6-3-6.5-4.5-10.4-4.3v-3.8h20.8l47.7,53.6l0,0v-22.9c0.1-6.5-0.2-12.9-0.8-19.4c-0.7-5-3.2-6.9-11.9-7.7v-3.6h29.1
				L1368.5,128.7z M1369.8,200.8V197c9.3-0.8,10.4-1.5,10.4-11.5V140c0-9.9-1.1-10.8-10.4-11.5v-3.8h34.7v3.8
				c-9.2,0.7-10.2,1.5-10.2,11.5v45.3c0,9.9,1,10.6,10.2,11.5v3.7L1369.8,200.8z M1489.1,128.8c-7.7,0.9-10,2.2-14.8,13.1
				c-3.7,8.6-15.3,36.1-24.6,60.3h-5.2c-8.3-21.4-19.1-48.5-24.8-62.4c-3.6-8.9-5.5-10.3-12.9-11v-4h33.7v3.8c-8.8,1.1-9,2.4-7,7.6
				c3.4,9,12.6,32.3,18.4,46.5l0,0c6.5-16.1,13.1-33,16.5-43.7c2.7-7.7,2.3-9-7.7-10.2v-4.1h27.9L1489.1,128.8z M1552.8,181.8
				c-0.7,4.7-3.1,15.3-4.2,19h-60.4V197c10.6-0.8,11.6-1.6,11.6-11.5v-45.4c0-10.3-1.1-10.8-10-11.5v-3.8h55.7
				c0,2.3,0.7,10.5,1.2,17.3l-4.1,0.5c-0.7-3.6-2.2-7.1-4.5-10c-1.9-2.2-5.1-3.1-12.6-3.1h-7c-4.2,0-4.6,0-4.6,4v25.3h9.3
				c10.4,0,11.6-0.7,13.2-8.7h4.2V173h-4.1c-1.6-8.4-2.8-8.9-13.2-8.9h-9.6v21c0,5.6,0.6,8.3,2.9,9.6c3.7,1.2,7.6,1.6,11.4,1.3
				c7.7,0,11.3-0.8,14.1-3.9c2.8-3.3,5-7.1,6.5-11.2L1552.8,181.8z M1627.2,201.8h-3.8c-13-0.6-17.8-3.6-23-11.1
				c-3.4-5.1-7.2-11.8-10.7-17.8c-1.5-3.4-5.1-5.4-8.8-4.9h-2.8v17.6c0,9.6,1.1,10.6,10.3,11.5v3.7h-34.7v-3.7
				c9.2-0.9,10.6-1.8,10.6-11.5V140c0-9.6-1.1-10.6-10.2-11.2v-4.1h32.2c7.2-0.6,14.4,0.8,20.7,4.2c5.2,3.3,8.3,9.1,8.1,15.3
				c-0.4,9.1-6.6,16.9-15.3,19.3c1.9,3.6,6.5,11.4,10.1,16.7c2.8,4.5,6,8.6,9.6,12.5c2,2.5,4.6,4.3,7.7,5.3L1627.2,201.8z
				 M1582.2,163.5c4.3,0.4,8.7-0.7,12.3-3.1c4.1-3.5,6.4-8.7,6-14.1c1-8.4-4.9-16-13.3-17.1c-0.7-0.1-1.3-0.1-2-0.1
				c-2-0.2-4,0.3-5.8,1.2c-0.8,0.7-1.1,1.9-1.1,4.7v28.5L1582.2,163.5L1582.2,163.5z M1670.3,143.4c-2.4-7.7-6.6-15.8-16.6-15.8
				c-6.4-0.3-11.9,4.6-12.2,11l0,0c0,0.3,0,0.6,0,0.9c0,7.3,4.9,11.1,15.3,16c11.5,5.6,21.1,11.7,21.1,23.8s-11.3,23-28.5,23
				c-4,0-8.1-0.6-11.9-1.8c-2.4-0.6-4.7-1.4-6.9-2.4c-1.6-6.3-2.8-12.7-3.5-19.2l4.1-1.1c2.1,7.6,8.6,20,20.5,20
				c6.7,0.5,12.5-4.4,13-11.1c0-0.6,0-1.2,0-1.8c0-7.6-5.7-11.8-14.8-16.4c-10.7-5.4-20.6-11.6-20.6-23.5s10-22,26.6-22
				c5.5,0.2,11,1.2,16.3,2.9c0.5,4.4,1.2,9.3,2.1,16.6L1670.3,143.4z M1680.3,200.8V197c9.3-0.8,10.3-1.5,10.3-11.5V140
				c0-9.9-1.1-10.8-10.3-11.5v-3.8h34.6v3.8c-9.3,0.7-10.3,1.5-10.3,11.5v45.3c0,9.9,1,10.6,10.3,11.5v3.7L1680.3,200.8z
				 M1784.7,144.2c-0.7-4.1-2.3-8-4.7-11.5c-2.2-2.3-4.8-3.1-12.7-3.1h-6.5v55.9c0,9.7,1.1,10.6,12.1,11.5v3.8h-37.7V197
				c10.4-0.8,11.6-1.8,11.6-11.5v-56h-5.4c-10,0-12.2,1.1-13.9,3.3c-2.3,3.4-3.9,7.3-4.6,11.3h-4c0.5-7.7,1.2-16.2,1.4-22.3h2.8
				c1.8,2.7,3.4,2.9,6.7,2.9h48.1c2.6,0.2,5.1-0.9,6.7-2.9h2.8c0,5,0.5,14.7,1.2,22L1784.7,144.2z M1866.1,128.9
				c-6.3-0.1-12.1,3.7-14.5,9.6c-4.8,7.7-8.3,13.1-14.2,23.9c-1.5,2.3-2.2,4.9-2.1,7.6v15.3c0,10.2,0.9,10.9,11.8,11.8v3.8h-37.3
				v-3.8c10.3-0.7,11.5-1.5,11.5-11.8v-14c0-2.4-0.7-4.7-2-6.6c-3.6-6.7-7.7-14.3-14.9-26.2c-4.8-7.7-6.4-9-13.3-9.8v-3.9h32.7v3.8
				c-8.1,1.1-7.7,2.4-5.8,6.6c4.6,8.5,9.8,17.5,14.8,26.1c3.8-7,10.1-18.1,13.2-25.2c2.3-5.1,2.1-6.6-7-7.7v-3.7h27.5L1866.1,128.9z
				"/>
		</g>
	</g>
</g>
</svg>
