<?xml version="1.0" encoding="UTF-8"?><svg id="Layer_2" xmlns="http://www.w3.org/2000/svg" viewBox="0 0 443.35 443.38"><defs><style>.cls-1{fill:#fff;}</style></defs><g id="Layer_1-2"><g><path d="M443.35,221.69c0,66.08,0,132.17,0,198.25,0,13.17-10.03,23.29-23.23,23.45-.24,0-.48,0-.72,0-131.81,0-263.61,0-395.42,0-9.35,0-16.45-3.97-21.14-12.09C.9,427.95,0,424.28,0,420.4,0,287.92,0,155.43,0,22.95,0,10.43,10.38,0,22.9,0,155.39,0,287.88,0,420.36,0c12.7,0,22.99,10.34,22.99,23.07,0,66.2,0,132.41,0,198.61Zm-6.3,0c0-64.96,0-129.93,0-194.89,0-11.53-8.99-20.5-20.54-20.5-129.89,0-259.77,0-389.66,0-11.52,0-20.54,9.01-20.54,20.53,0,129.89,0,259.77,0,389.66,0,11.54,9,20.55,20.51,20.55,129.93,0,259.85,0,389.78,0,11.46,0,20.45-8.99,20.45-20.46,0-64.96,0-129.93,0-194.89Z"/><path class="cls-1" d="M437.04,221.69c0,64.96,0,129.93,0,194.89,0,11.47-8.98,20.46-20.45,20.46-129.93,0-259.85,0-389.78,0-11.51,0-20.51-9.01-20.51-20.55,0-129.89,0-259.77,0-389.66,0-11.52,9.02-20.53,20.54-20.53,129.89,0,259.77,0,389.66,0,11.56,0,20.54,8.97,20.54,20.5,0,64.96,0,129.93,0,194.89Zm-3.05,.05c0-64.88,0-129.77,0-194.65,0-10.16-7.56-17.73-17.72-17.73-129.73,0-259.46,0-389.18,0-10.14,0-17.74,7.6-17.74,17.73,0,129.69,0,259.38,0,389.06,0,.32,0,.64,0,.96,.09,9.1,7.93,16.88,17.02,16.88,130.21,0,260.42,0,390.62,0,.64,0,1.28-.04,1.91-.13,9.04-1.38,15.08-8.43,15.08-17.59,0-64.84,0-129.69,0-194.53Z"/><path d="M433.99,221.74c0,64.84,0,129.69,0,194.53,0,9.15-6.05,16.21-15.08,17.59-.63,.1-1.27,.13-1.91,.13-130.21,0-260.42,0-390.62,0-9.09,0-16.93-7.78-17.02-16.88,0-.32,0-.64,0-.96,0-129.69,0-259.38,0-389.06,0-10.14,7.59-17.73,17.74-17.73,129.73,0,259.46,0,389.18,0,10.16,0,17.72,7.57,17.72,17.73,0,64.88,0,129.77,0,194.65Zm-303.57-32.89c-.69,0-1.21,0-1.72,0-34.38,0-68.76,0-103.14,0-.32,0-.64-.02-.96,0-.22,.02-.49,.07-.65,.2-2.13,1.8-2.06,5.99,.27,7.64,3.3,2.33,5.74,5.26,7.19,9.05,.68,1.77,2,3.05,3.64,4.01,1.93,1.12,3.87,2.23,5.79,3.39,2.43,1.47,4.44,3.35,5.88,5.86,1.19,2.07,2.88,3.67,4.84,5.06,1.98,1.41,3.99,2.87,5.62,4.65,2.63,2.86,5.34,5.32,9.19,6.57,2.36,.77,4.05,2.71,4.55,5.44,.47,2.56,1.8,4.66,3.96,6.2,.52,.37,.98,.82,1.41,1.29,2.6,2.91,3.65,6.42,3.73,10.24,.04,1.9,.19,3.72,.97,5.49,1.26,2.84,2.36,5.74,3.65,8.56,.53,1.17,1.22,2.35,2.1,3.27,2.4,2.5,4.91,4.9,7.44,7.27,1.13,1.05,2.31,2.13,3.66,2.82,1.72,.88,3.61,1.5,5.48,2.01,1.59,.44,2.96,1.11,4.1,2.31,1.1,1.16,2.28,2.24,3.41,3.37,1.03,1.04,2.27,1.45,3.72,1.68,1.7,.27,3.38,.84,4.98,1.5,1.65,.68,3.21,1.61,4.8,2.45,3.15,1.67,4.11,.74,6.7-1.76,.44-.43,.72-1.05,1.02-1.61,.97-1.86,2.28-3.35,4.22-4.25,1.48-.69,2.26-1.93,2.64-3.5,.35-1.43,.73-2.86,1.27-4.23,.98-2.48,2.09-4.91,3.13-7.37,.48-1.15,1.25-1.84,2.56-1.74,1.76,.14,3.21-.47,4.39-1.77,1.49-1.64,3.36-2.03,5.46-1.73,.71,.1,1.42,.19,2.14,.22,6.91,.37,13.78,.93,20.53,2.57,2.92,.71,5.33,2.01,7.08,4.52,1.87,2.68,4.5,4.37,7.52,5.51,.48,.18,.98,.39,1.36,.71,3.52,2.96,6.54,6.36,8.57,10.52,1.54,3.15,2.93,6.37,4.31,9.6,.78,1.84,1.74,3.51,3.33,4.75,2.09,1.63,3.34,3.79,4.28,6.23,1.39,3.61,2.76,7.24,4.4,10.73,1.87,3.97,3.88,7.9,7.38,10.79,6.02,4.96,11.21,10.69,15.89,16.91,.61,.81,1.08,1.77,1.43,2.72,3.21,8.98,6.34,17.98,9.59,26.95,.48,1.32,1.28,2.58,2.18,3.67,1.75,2.11,4.31,2.63,6.86,3,2.27,.33,4.57,.63,6.21,2.45,1.95,2.17,4.3,3.24,7.22,3.04,3.49-.24,6.52,.86,9.14,3.17,1.35,1.19,2.98,1.66,4.76,1.6,2.2-.07,4.39-.08,6.59-.2,2.6-.14,4.76,.77,6.92,2.2,2.44,1.61,5.15,2.83,7.76,4.18,.4,.21,.94,.33,1.38,.25,3.38-.6,6.11-2.29,8.02-5.17,1.16-1.75,1.07-3.63-.33-5.2-3.89-4.35-6.56-9.43-8.8-14.74-2.01-4.76-3.7-9.64-3.46-14.93,.36-7.87,1.13-15.68,3.15-23.34,3.01-11.41,8.68-21.14,17.86-28.7,1.84-1.52,3.87-2.51,6.3-2.61,.51-.02,1.04-.13,1.53-.28,1.2-.36,1.9-1.15,1.92-2.44,0-.64,0-1.29-.09-1.91-.29-1.76-.11-1.99,1.67-2.09,3.06-.17,6.05-.73,8.77-2.17,3.66-1.95,7.24-4.06,10.89-6.05,4.57-2.5,9.08-5.08,12.83-8.74,1.39-1.35,2.67-2.86,3.76-4.47,.86-1.26,.49-2.11-.83-2.83-1.33-.73-2.14-1.82-2.28-3.31-.42-4.19,1.45-7.35,4.73-9.72,1.79-1.29,2.78-.85,3.27,1.32,.45,1.99,1.15,3.81,2.69,5.23,1.19,1.09,2.17,1.03,3.27-.18,2.98-3.28,6.06-6.48,8.96-9.83,2.06-2.39,4.49-2.78,7.44-2.33,2.02,.31,4.13,.22,6.18,.04,1.68-.15,2.88-1.68,3.04-3.36,.53-5.36,1.76-10.55,4.03-15.45,1.78-3.84,2.07-7.76,.86-11.78-.97-3.25-.74-6.42,.21-9.65,1-3.4,1.87-6.85,2.5-10.33,.84-4.62-.82-8-4.64-9.68-2.32-1.02-3.4-2.69-3.67-5.14-.93-8.27-5.16-14.36-12.4-18.39-.58-.32-.87-.63-.9-1.35-.32-8.3-.69-16.6-1.03-24.9-.36-8.9-.7-17.8-1.05-26.7-.02-.49-.09-.99-.14-1.5-.27,.05-.39,.07-.5,.1-.31,.08-.62,.16-.93,.25-5.63,1.52-10.8,1.14-15.2-3.29-1.76-1.77-4.1-2.67-6.56-3.28-3.17-.78-6.33-1.67-9.39-2.79-2.45-.89-4.78-1.15-7.23-.23-1.28,.48-2.44,.36-3.61-.46-2.55-1.8-5.26-1.99-8.16-.74-3.56,1.53-6.87,3.44-9.64,6.15-1.73,1.69-3.69,2.12-5.93,1.66-1.05-.22-2.09-.53-3.11-.87-4.2-1.42-8.43-2.1-12.94-1.69-4.23,.38-8.53,.17-12.8,.02-5.06-.18-10.12-.77-15.18-.8-3.71-.02-6.84-1.13-9.49-3.57-2.42-2.22-5.07-2.96-8.27-2.15-2.05,.51-4.03,.25-5.73-1.25-.92-.82-2.11-.97-3.28-.65-1.11,.3-2.19,.73-3.27,1.14-1.93,.74-3.86,.77-5.67-.23-1.67-.92-3.33-1.89-4.85-3.04-3.85-2.9-8.01-4.22-12.8-2.94-1.67,.45-2.66-.18-3.16-1.86-.1-.34-.17-.7-.27-1.04-.62-2.32-1.96-3.39-4.38-3.49-.9-.04-1.81,0-2.85,0V36.09h-91.18V188.85ZM355.11,50.98c.11-.02,.21-.04,.32-.05,2.65,6.91,5.31,13.81,8.06,20.99,2.85-7.31,5.58-14.31,8.4-21.56v21.28h4.65V38.79c-1.36,0-2.63,.06-3.9-.02-.89-.06-1.26,.31-1.54,1.1-1.6,4.51-3.25,9.01-4.89,13.51-.88,2.42-1.77,4.84-2.72,7.45-.24-.6-.41-1-.57-1.41-2.48-6.53-4.95-13.06-7.45-19.58-.15-.39-.52-.97-.82-.99-1.46-.1-2.92-.05-4.39-.05v32.82h4.83v-20.65Zm-17.56,7.92c.57-.33,1.04-.54,1.46-.84,6.57-4.61,6.37-14.31-.39-18.64-.43-.28-1.05-.37-1.58-.37-4.76-.03-9.51,.02-14.27-.04-1.18-.02-1.56,.25-1.55,1.5,.06,9.91,.03,19.83,.03,29.74,0,.28-.07,.59,.03,.83,.09,.24,.34,.6,.53,.6,1.38,.05,2.76,.03,4.33,.03v-12.79c1.76,0,3.31,.05,4.86-.02,.85-.04,1.26,.25,1.59,1.04,1.53,3.64,3.12,7.26,4.72,10.87,.16,.35,.52,.85,.81,.86,1.69,.08,3.39,.04,5.3,.04-2.03-4.43-3.95-8.62-5.87-12.81ZM64.36,366.54v32.57h4.79v-12.62c1.73,0,3.32,.04,4.91-.02,.83-.03,1.25,.2,1.59,1.01,1.51,3.61,3.09,7.18,4.69,10.75,.18,.39,.64,.9,1,.92,1.62,.1,3.26,.04,5.11,.04-2.01-4.38-3.94-8.6-5.84-12.77,.71-.46,1.38-.82,1.96-1.28,5.73-4.59,5.72-12.89,.01-17.59-.84-.69-1.67-1.07-2.81-1.05-3.92,.07-7.83,.03-11.75,.03-1.19,0-2.38,0-3.66,0Zm85.1,32.51c4.16,0,8.2,0,12.23-.02,.37,0,.78-.17,1.11-.36,3.49-1.97,6.05-4.76,7.56-8.51,1.27-3.17,1.29-6.47,1.14-9.79-.29-6.27-3.22-10.9-8.74-13.88-.37-.2-.83-.33-1.24-.33-3.83-.02-7.67-.01-11.5,0-.18,0-.37,.08-.56,.13v32.77Zm-33.55-16.18c-.03-4.22-.7-8.27-3.14-11.85-4.02-5.9-11.41-6.92-16.79-2.33-1.71,1.46-2.9,3.28-3.69,5.37-1.44,3.85-1.59,7.87-1.47,11.92,.09,3.15,.91,6.07,2.85,8.61,4.79,6.25,12.21,6.71,17.7,1.13,3.53-3.58,4.57-8.02,4.53-12.86Zm29.17,16.51c-3.67-11.17-7.25-22.07-10.83-32.98h-5.16c-3.5,10.94-6.99,21.85-10.55,32.99,1.72,0,3.23-.04,4.73,.02,.7,.02,.98-.26,1.16-.89,.53-1.96,1.14-3.91,1.64-5.88,.17-.67,.47-.88,1.15-.87,3,.03,5.99,.04,8.99,0,.8-.01,1.1,.27,1.31,1.01,.55,1.92,1.16,3.82,1.8,5.7,.12,.35,.48,.85,.75,.87,1.58,.08,3.17,.04,5.01,.04ZM315.58,71.97c-.13-.46-.23-.84-.35-1.21-3.06-9.36-6.13-18.72-9.2-28.07-.4-1.21-.55-2.81-1.4-3.46-.8-.6-2.38-.12-3.61-.23-1.01-.08-1.44,.28-1.75,1.25-2.98,9.43-6.01,18.84-9.03,28.26-.36,1.12-.69,2.25-1.07,3.51,1.66,0,3.14-.04,4.61,.02,.73,.03,1.06-.22,1.24-.92,.5-1.89,1.09-3.75,1.57-5.65,.2-.8,.53-1.09,1.38-1.07,2.91,.06,5.83,.06,8.75,0,.86-.02,1.18,.3,1.41,1.06,.64,2.18,1.34,4.34,2.02,6.5h5.43Zm-39.87-27.96h13.75v-4.57h-18.31v32.52h4.51v-14.63c.59,0,1.02,0,1.45,0,1.92,0,3.84-.03,5.76,.01,.76,.02,1.09-.2,1.05-1.01-.05-1.12-.06-2.24,0-3.36,.04-.81-.3-1.02-1.05-1.01-1.96,.04-3.92,.02-5.88,0-.42,0-.84-.06-1.28-.09v-7.88Z"/><path class="cls-1" d="M130.42,188.85V36.09h91.18v63.5c1.03,0,1.94-.03,2.85,0,2.43,.1,3.76,1.18,4.38,3.49,.09,.35,.16,.7,.27,1.04,.5,1.68,1.48,2.3,3.16,1.86,4.8-1.28,8.95,.04,12.8,2.94,1.52,1.14,3.18,2.12,4.85,3.04,1.82,1,3.74,.97,5.67,.23,1.08-.41,2.16-.84,3.27-1.14,1.17-.32,2.36-.16,3.28,.65,1.7,1.51,3.68,1.77,5.73,1.25,3.2-.8,5.86-.07,8.27,2.15,2.66,2.44,5.79,3.54,9.49,3.57,5.06,.03,10.12,.62,15.18,.8,4.26,.15,8.56,.36,12.8-.02,4.51-.4,8.74,.27,12.94,1.69,1.02,.35,2.06,.66,3.11,.87,2.24,.46,4.21,.03,5.93-1.66,2.77-2.71,6.08-4.62,9.64-6.15,2.9-1.25,5.61-1.05,8.16,.74,1.17,.82,2.33,.94,3.61,.46,2.44-.92,4.78-.66,7.23,.23,3.07,1.11,6.23,2,9.39,2.79,2.47,.61,4.8,1.51,6.56,3.28,4.4,4.43,9.57,4.81,15.2,3.29,.31-.08,.62-.17,.93-.25,.11-.03,.23-.05,.5-.1,.05,.52,.12,1.01,.14,1.5,.35,8.9,.69,17.8,1.05,26.7,.34,8.3,.71,16.6,1.03,24.9,.03,.72,.32,1.02,.9,1.35,7.24,4.03,11.47,10.12,12.4,18.39,.27,2.45,1.35,4.11,3.67,5.14,3.81,1.68,5.48,5.06,4.64,9.68-.63,3.48-1.51,6.93-2.5,10.33-.95,3.24-1.18,6.4-.21,9.65,1.21,4.03,.92,7.95-.86,11.78-2.27,4.9-3.5,10.09-4.03,15.45-.17,1.68-1.36,3.21-3.04,3.36-2.05,.18-4.16,.27-6.18-.04-2.95-.45-5.38-.05-7.44,2.33-2.9,3.35-5.98,6.55-8.96,9.83-1.1,1.21-2.08,1.27-3.27,.18-1.54-1.42-2.25-3.25-2.69-5.23-.49-2.17-1.48-2.61-3.27-1.32-3.29,2.38-5.15,5.53-4.73,9.72,.15,1.49,.95,2.58,2.28,3.31,1.33,.73,1.69,1.58,.83,2.83-1.09,1.6-2.37,3.11-3.76,4.47-3.76,3.66-8.27,6.24-12.83,8.74-3.64,1.99-7.22,4.1-10.89,6.05-2.72,1.45-5.71,2.01-8.77,2.17-1.78,.1-1.96,.33-1.67,2.09,.1,.63,.1,1.27,.09,1.91-.02,1.29-.72,2.08-1.92,2.44-.49,.15-1.02,.26-1.53,.28-2.42,.1-4.46,1.09-6.3,2.61-9.18,7.56-14.85,17.3-17.86,28.7-2.02,7.65-2.8,15.47-3.15,23.34-.24,5.29,1.44,10.17,3.46,14.93,2.24,5.31,4.91,10.39,8.8,14.74,1.4,1.57,1.49,3.45,.33,5.2-1.91,2.88-4.64,4.57-8.02,5.17-.44,.08-.98-.04-1.38-.25-2.61-1.35-5.32-2.57-7.76-4.18-2.16-1.43-4.32-2.33-6.92-2.2-2.19,.11-4.39,.13-6.59,.2-1.79,.05-3.41-.41-4.76-1.6-2.62-2.31-5.64-3.41-9.14-3.17-2.92,.2-5.28-.87-7.22-3.04-1.64-1.82-3.93-2.12-6.21-2.45-2.55-.37-5.11-.89-6.86-3-.9-1.09-1.7-2.35-2.18-3.67-3.25-8.96-6.38-17.97-9.59-26.95-.34-.96-.82-1.91-1.43-2.72-4.67-6.22-9.87-11.95-15.89-16.91-3.5-2.89-5.51-6.82-7.38-10.79-1.64-3.5-3.02-7.12-4.4-10.73-.94-2.44-2.19-4.6-4.28-6.23-1.59-1.24-2.55-2.91-3.33-4.75-1.37-3.23-2.76-6.45-4.31-9.6-2.03-4.15-5.05-7.56-8.57-10.52-.38-.32-.88-.53-1.36-.71-3.02-1.14-5.65-2.83-7.52-5.51-1.75-2.51-4.16-3.81-7.08-4.52-6.75-1.64-13.63-2.2-20.53-2.57-.71-.04-1.43-.12-2.14-.22-2.1-.3-3.97,.08-5.46,1.73-1.17,1.3-2.63,1.91-4.39,1.77-1.31-.1-2.08,.59-2.56,1.74-1.04,2.46-2.15,4.89-3.13,7.37-.54,1.37-.92,2.8-1.27,4.23-.38,1.57-1.16,2.81-2.64,3.5-1.94,.9-3.25,2.4-4.22,4.25-.29,.56-.57,1.18-1.02,1.61-2.59,2.5-3.55,3.43-6.7,1.76-1.59-.84-3.14-1.77-4.8-2.45-1.6-.66-3.28-1.23-4.98-1.5-1.45-.23-2.69-.64-3.72-1.68-1.13-1.13-2.31-2.21-3.41-3.37-1.14-1.2-2.51-1.87-4.1-2.31-1.87-.52-3.76-1.13-5.48-2.01-1.35-.69-2.54-1.77-3.66-2.82-2.53-2.37-5.04-4.77-7.44-7.27-.88-.92-1.57-2.1-2.1-3.27-1.29-2.82-2.39-5.73-3.65-8.56-.78-1.77-.93-3.6-.97-5.49-.08-3.82-1.13-7.32-3.73-10.24-.42-.47-.89-.93-1.41-1.29-2.16-1.54-3.49-3.65-3.96-6.2-.51-2.73-2.19-4.67-4.55-5.44-3.85-1.25-6.56-3.71-9.19-6.57-1.63-1.77-3.64-3.24-5.62-4.65-1.96-1.39-3.66-2.99-4.84-5.06-1.43-2.5-3.44-4.39-5.88-5.86-1.91-1.15-3.85-2.27-5.79-3.39-1.64-.95-2.96-2.23-3.64-4.01-1.45-3.79-3.89-6.71-7.19-9.05-2.32-1.64-2.39-5.83-.27-7.64,.16-.14,.42-.18,.65-.2,.32-.03,.64,0,.96,0,34.38,0,68.76,0,103.14,0,.52,0,1.03,0,1.72,0Zm112.23,114.79c-.05-.11-.1-.22-.15-.33-1.73,.02-3.36-.16-4.56-1.62-1.12-1.36-1.9-2.84-2.18-4.59-.5-3.06,.33-5.76,2.09-8.25,4.79-6.79,11.44-11,19.07-13.9,10.57-4.02,21.58-6.38,32.66-8.34,13.2-2.34,26.48-4.29,39.7-6.54,9.45-1.6,18.85-3.45,28.03-6.25,7.32-2.23,14.43-4.98,20.67-9.55,4.99-3.66,9.42-7.91,12.82-13.14,.97-1.49,1.62-3.11,1.64-4.94,.03-2.56-1.11-4.08-3.3-4.37-2.83-.37-5.03,.92-5.48,3.43-.29,1.62-1.02,2.92-2.1,4.08-2.31,2.49-4.59,5.01-6.95,7.44-.65,.67-1.51,1.2-2.36,1.58-2.5,1.12-4.5-.19-4.58-2.94-.02-.55,.06-1.12,.18-1.66,.67-3.18,1.74-6.2,3.3-9.07,3-5.5,1.8-9.18-3.78-12.12-.28-.15-.56-.31-.86-.42-2.29-.81-4.62-1.54-6.88-2.43-1.24-.49-2.49-1.09-3.53-1.91-1.13-.89-1.07-1.72-.31-2.94,.35-.57,.7-1.19,.85-1.83,.43-1.82-.06-2.84-1.85-3.29-1.99-.51-4.06-.99-6.1-1-3.5-.01-6.24,2.02-7.04,4.94-.35,1.26-.44,2.59-.57,3.9-.13,1.32,.48,2.28,1.57,3.02,1.76,1.2,2.35,3.29,1.39,5.15-1.37,2.66-2.68,5.36-4.24,7.91-5.76,9.42-13.51,16.43-24.34,19.56-3.58,1.04-7.22,1.92-10.97,1.03-2.87-.68-5.37-1.95-6.02-5.25-.4-2.04,.45-3.27,2.5-3.52,2.5-.31,5-.64,7.5-.8,6.12-.4,11.58-2.49,16.47-6.17,2.05-1.54,3.69-3.43,4.77-5.76,2.33-5.03,.73-10.65-3.72-12.9-2.51-1.27-5.21-2.05-8.03-2.24-7.91-.55-15.1,1.61-21.6,6.06-3.63,2.49-6.39,5.7-7.92,9.95-4.43,12.35-13.32,19.99-25.64,23.87-4.34,1.37-8.75,1.79-13.2,.4-1.92-.6-3.24-1.84-3.9-3.75-.91-2.63,.94-4.9,3.72-4.8,5.84,.22,11.56-.44,17.01-2.74,4.36-1.84,7.98-4.49,10.16-8.85,3.01-5.99,.14-12.93-6.29-14.81-4.03-1.18-8.18-1.39-12.35-.91-6.82,.78-12.46,3.92-17.38,8.6-6.28,5.99-9.47,13.19-9.12,21.93,.21,5.24,2.34,9.14,7.27,11.24,1.61,.68,3.28,1.29,4.97,1.71,6.49,1.63,12.93,1.13,19.29-.7,8.12-2.33,15.39-6.17,21.36-12.26,.71-.73,1.33-.44,1.79,.22,.31,.44,.5,1.01,.62,1.54,.41,1.8,1.47,3.02,3.03,3.96,3.67,2.19,7.71,3.09,11.88,3.37,12.43,.81,23.45-2.95,32.94-10.89,7.87-6.58,13.34-14.98,17.25-24.43,.12-.29,.64-.69,.86-.63,1.34,.37,2.72,.72,3.94,1.35,1.8,.92,2.28,2.32,1.57,4.22-.66,1.75-1.46,3.45-2.2,5.18-1.44,3.36-2.63,6.78-2.5,10.51,.15,4.42,2.35,7.41,6.33,8.59,.66,.19,1.37,.23,2.05,.34,.04,.09,.09,.19,.13,.28-.41,.29-.79,.69-1.25,.83-1.22,.37-2.46,.63-3.7,.92-14.57,3.36-29.29,5.8-44.19,7.13-14.72,1.32-29.44,2.65-44.14,4.1-9.24,.91-18.34,2.66-27.17,5.55-8.93,2.93-17.04,7.27-23.43,14.35-3.77,4.17-6.58,8.82-6.92,14.65-.4,6.72,2.2,11.29,8.29,13.97,1.59,.7,3.33,1.09,5.04,1.47,6.29,1.41,11.97,.24,16.84-4.14,.46-.41,.83-.91,1.24-1.37Zm-30.53-76.93c.03-.13,.05-.25,.08-.38,.45-.2,.88-.5,1.35-.58,4.06-.71,7.12-3.1,9.94-5.88,1.98-1.95,3.07-4.26,2.92-7.08-.3-5.37-2.54-9.66-7.06-12.68-5.59-3.73-11.8-5.76-18.41-6.68-4.74-.67-9.48-.4-14.22,.02-5.62,.5-11.19,1.26-16.49,3.35-6.43,2.55-12.09,6.17-16.13,11.94-2.74,3.92-4.34,8.15-3.47,13.06,.64,3.61,2.68,6.54,4.55,9.54,.31,.49,.97,.84,1.55,1.07,2.48,.99,6.91-.09,8.68-2.06,.7-.78,.97-1.62,.44-2.63-.59-1.13-1.04-2.35-1.72-3.42-1.92-3.01-1.71-6.12-.63-9.32,1.22-3.6,3.84-6.01,6.84-8.08,8.41-5.8,17.7-7.65,27.72-5.98,3.63,.6,7.22,1.41,10.46,3.27,3.3,1.89,4.62,4.87,4.46,8.53-.14,3.29-1.98,5.59-4.91,6.79-3.53,1.45-7.17,2.67-10.81,3.84-1.27,.41-2.68,.51-4.02,.47-2.4-.06-3.28-1.37-2.65-3.68,.59-2.17,1.68-4.08,3.31-5.61,1.54-1.45,3.23-2.73,4.86-4.07,.64-.53,1.23-1.07,1-2.01-.49-2.08-3.48-4.23-5.61-3.91-3.94,.59-7.55,2-10.56,4.72-3.17,2.87-5.32,6.46-7.12,10.27-3.55,7.48-6.25,15.28-8.55,23.23-.62,2.15-1.7,3.06-3.95,3.09-.67,0-1.38-.02-2.01-.23-5.36-1.79-10.88-2.01-16.46-1.92-3.27,.05-6.4,.5-8.97,2.71-1.42,1.22-2.81,2.51-4.01,3.94-2.56,3.05-2.27,7.62,.49,10.51,1.75,1.83,3.84,3.1,6.26,3.84,4.59,1.41,9.27,1.65,13.98,.92,6.42-.99,12.49-3.06,17.93-6.65,1.85-1.22,3.51-1.48,5.49-.66,2.43,1.01,4.82,2.22,7.34,2.89,7.02,1.87,14.13,3.01,21.44,1.79,5.54-.93,10.65-2.77,14.96-6.49,5.89-5.09,7.48-13.25,3.81-19.99-2.24-4.12-5.93-6.59-10.05-8.53-.72-.34-1.37-.83-2.05-1.25Zm6-66.14c-.4-.44-.84-.72-.82-.95,.07-.88-.54-.95-1.07-.93-1.9,.04-3.81,.05-5.68,.31-.89,.12-1.32-.21-1.81-.76-.95-1.08-.64-2.37-.63-3.6,0-.57,.01-1.31,.35-1.67,.89-.95,1.96-1.74,2.99-2.62,.44,1.29,1.32,1.45,2.79,.5-.05,.37-.09,.66-.13,.98,1.46-.1,2.82-.19,4.18-.28,.64-.04,1.28-.15,1.91-.11,2.04,.13,4.08,.4,6.13,.46,1.66,.05,3.33-.15,5-.19,2.14-.06,3.14-1.2,2.99-3.38-.15-2.31-.24-4.63-.31-6.95-.04-1.22-.95-2.39-2.16-2.51-1.28-.13-2.58-.21-3.86-.21-2.53,0-5.07,.03-7.6,.1-.83,.02-1.65,.21-2.54,.33,0,.11-.02,.37-.02,.37-.7-.21-1.38-.57-2.07-.59-1.48-.04-2.97,.12-4.45,.16-2.29,.07-4.57,.1-6.86,.15-.16,0-.31-.02-.47-.04-1.04-.12-2.09-.32-3.13-.34-1.31-.02-2.63,.17-3.95,.15-1-.02-1.49,.42-1.65,1.33-.09,.51-.21,1.02-.21,1.54,0,1.85,.14,3.7,.05,5.55-.09,1.87-.16,3.7,.07,5.58,.18,1.46-.25,2.98-.26,4.47-.04,3.99,0,7.99,.02,11.98,0,.17,.16,.33,.22,.51,.06,.16,.17,.36,.12,.48-.37,.9-.08,2.17,.78,2.77-1.11-.15-1.32,.58-1.22,1.26,.2,1.27,.58,2.51,.89,3.77-.16,.21-.61,.52-.62,.84-.03,1.96-.22,3.98,.17,5.88,.23,1.15,.02,2.1-.09,3.14-.03,.28,.08,.59,.2,.85,.03,.06,.39-.05,.45-.05,.34,.35,.64,.91,.93,.91,1.57,.02,3.14-.11,4.71-.18,1.02-.05,2.04-.1,3.05-.12,2.01-.04,4.01-.05,6.02-.08,.33,0,.76-.19,.96-.05,1.12,.79,2.32,.1,3.47,.22,.94,.1,1.96-.47,2.93-.75,.21,.18,.67,.79,.86,.72,1.68-.66,3.42,.91,5.06-.18,.11-.08,.41,.12,.62,.19,.25,.09,.49,.27,.73,.27,1.96-.05,3.93-.12,5.89-.22,2.53-.13,3.03-.96,3.02-3.27,0-1.24-.25-2.46-.06-3.74,.17-1.16,.04-2.4-.17-3.57-.12-.65-.55-1.4-1.07-1.79-.85-.64-2-.22-3.01-.38-.97-.15-2.06,.49-3.13,.79-.04-1.01-.6-.61-1.11-.55-.89,.11-1.81,.23-2.69,.13-.52-.06-1.02-.83-1.33,.25-.03,.09-.5,.12-.73,.06-.81-.18-1.6-.54-2.42-.6-1.29-.1-2.59-.04-3.89-.02-.91,.01-1.83-.03-2.71,.14-1.63,.33-3.1-.22-3.57-1.69-.21-.67-.04-1.47,0-2.21,.09-1.72,1.54-2.77,3.24-2.42,.54,.11,1.12,.23,1.64,.13,2.19-.42,4.38-.28,6.56,0,.86,.11,1.3-.14,1.34-.62,.47,.18,.94,.51,1.4,.51,1.58-.02,3.17-.09,4.74-.26,.61-.07,1.56,.62,1.8-.51,.23-1.11,.35-2.26,.42-3.4,.07-1.16,.02-2.33,.05-3.5,.02-.92,.19-1.85,.06-2.74-.07-.49-.54-1.21-.96-1.32-.98-.24-2.04-.26-3.06-.22-1.47,.05-2.94,.24-4.41,.35-.18,.01-.36-.14-.54-.21-1.43-.57-2.04-.22-2.34,1.67Zm152.52,30.04c3.14-.82,6.16-1.61,9.1-2.37,.19-.45,.37-.86,.56-1.32,.95,.93,1.18,0,1.55-.41,.2-.22,.24-.74,.43-.78,1.16-.24,2-.76,2.25-2.01,.03-.14,.26-.31,.43-.35,1.3-.34,1.64-1.19,.93-2.3-.13-.2-.19-.62-.07-.79,.39-.53,.87-1,1.45-1.63,.1-.82,.32-1.94,.34-3.05,.01-.77-.19-1.57-.41-2.32-.44-1.48-.94-2.95-1.44-4.41-.23-.65-.55-1.27-.79-1.92-.21-.59-.47-.93-1.17-.61-.28,.13-.64,.09-1.23,.16,.54-.36,.85-.57,1.18-.79-.28-.33-.55-.66-.84-1-.2,.25-.35,.45-.4,.51-.42-.51-.74-1.09-1.22-1.45-1.31-.98-2.59-2.06-4.06-2.75-2.47-1.16-5.06-2.08-7.62-3.03-.64-.24-1.37-.23-2.23-.35-.41-.26-.99-.75-1.67-1.05-.97-.42-2.07-.45-2.92-1.25-.35-.33-1-.35-1.41-.48-.13-.46-.31-.96-.39-1.47-.09-.54-.34-1.42-.11-1.59,1.19-.86,2.46-2.04,3.79-2.17,2.04-.21,4.3-.76,6.23,.67,.65,.48,1.32,.94,1.95,1.44,.4,.31,.75,.69,1.35,1.25,.08,1.04,.07,1.8,1.98,1.97,.62,.05,1.25,.04,1.87,.05,2.14,.05,4.29,.07,6.43,.17,1.57,.07,2.53-.91,2.49-2.45-.03-1.27-.87-2.29-1.05-3.4-.29-1.76-.93-3.1-2.28-4.19-.25-.2-.33-.61-.5-.92-.15-.26-.25-.6-.47-.77-.8-.59-1.62-1.16-2.48-1.66-.66-.38-1.68-.46-2.03-1-.73-1.12-1.98-1.09-2.93-1.51-1.52-.69-3.29-.96-4.98-1.11-2.37-.21-4.76-.19-7.15-.14-.63,.01-1.25,.52-1.88,.8-.06-.05-.24-.33-.4-.31-3.08,.31-5.89,1.4-8.34,3.26-1.93,1.46-3.66,3.24-4.66,5.47-1.82,4.06-1.97,8.22,.05,12.29,.54,1.09,1.25,2.13,2.03,3.07,.79,.96,1.7,1.85,2.68,2.61,.95,.74,2.01,1.36,3.1,1.87,1.01,.47,2.12,.72,3.37,1.12,.6,.94,1.66,1.29,2.58,.94,.56,.41,.95,.82,1.43,1.03,.82,.34,1.68,.72,2.54,.77,1.32,.08,2.5-.14,3.49,1.29,.48,.69,1.87,.83,2.8,1.48,1.78,1.23,2.09,3.05,.36,4.26-.61,.43-1.25,.88-1.95,1.11-.67,.23-1.37,.63-2.18,.14-.39-.23-1-.12-1.51-.11-.77,0-1.67,.34-2.28,.04-1.9-.91-3.77-1.94-5.24-3.53-1.12-1.21-2.5-1.67-4.14-1.5-1.36,.14-2.86,.6-4.06,.19-.9-.3-.79,.31-1.19,.54-.2-.29-.38-.55-.48-.69-.38,.13-.68,.34-.91,.28-.78-.2-2.22,1.01-2.06,1.82,.19,.93,.53,1.85,.58,2.79,.1,2.03,1.73,3.18,2.56,4.79,1.07,2.08,3.36,2.6,5.03,3.87,1.42,1.08,3.36,1.68,5.15,2.03,2.76,.53,5.6,.73,8.42,.93,.84,.06,1.72-.32,2.62-.51-.01-.14,0,.06,.03,.43Zm-51.96-9c.44,.18,.86,.42,1.31,.53,.34,.08,.71-.02,1.07-.01,1.58,0,3.17-.12,4.73,.08,2.03,.26,2.95,1.95,3.29,3.67,.5,2.54,2.4,4.13,5.1,3.88,1.22-.11,2.43-.24,3.65-.27,.53-.01,1.19,.43,1.59,.24,.92-.43,1.74-.4,2.65-.11,.17,.06,.47-.04,.62-.17,.6-.49,1.18-1.03,1.65-1.45-.27-.59-.47-1.01-.64-1.43-.65-1.62-1.22-3.28-1.96-4.85-.32-.69-.98-1.21-1.49-1.81,.11,0,.22,0,.33-.01,0-.47,.14-1-.03-1.4-.56-1.32-1.2-2.6-1.6-4.01-.32-1.12-.99-2.14-1.47-3.22-.69-1.55-1.34-3.11-2.01-4.67-.29-.67-.84-1.35-.81-1.99,.08-1.46-.66-2.57-1.18-3.79-.88-2.08-1.8-4.15-2.66-6.24-.61-1.48-1.14-3-1.75-4.48-.48-1.16-1.07-2.27-1.53-3.44-.58-1.47-1.06-2.99-1.62-4.47-.16-.41-.64-.77-.64-1.16-.01-.86-.47-1.28-1.17-1.43-1.24-.27-2.5-.56-3.76-.64-2.41-.14-4.82-.14-7.23-.2-1.15-.03-1.54,.65-1.92,1.67-.56,1.53-1.43,2.93-2.13,4.41-.28,.58-.36,1.29-.74,1.79-.48,.63-.78,1.16-.37,1.58-.2,.74-.2,1.53-.5,1.68-1.38,.66-.55,2.04-1.11,2.94-.46,.74-.78,1.57-1.21,2.33-.15,.27-.6,.4-.69,.67-.43,1.26-.46,2.58-1.31,3.78-.89,1.26-1.11,2.91-1.86,4.32-.99,1.88-1.74,3.9-2.54,5.88-.14,.34,.12,.85-.04,1.17-.51,1-1.23,1.91-1.68,2.93-.69,1.57-1.08,3.29-1.86,4.81-.92,1.79-.54,4.01-2.18,5.6-.73,.71-.88,2.05-1.22,3.13-.37,1.16,.43,2.13,1.65,2.19,1.86,.09,3.71-.25,5.58,0,.95,.13,1.96-.02,2.93-.15,1.09-.14,2.18-.35,3.25-.62,.25-.06,.61-.6,.55-.79-.55-1.63,1.9-2.41,1.11-4.07-.02-.04,.13-.18,.22-.25,.37-.31,.72-.66,1.14-.89,.52-.29,1.09-.65,1.64-.67,2.51-.07,5.03,0,7.55-.06,.47-.01,.92-.35,1.32-.51Zm-43.3-11.18c-.89-1.34-1.75-2.63-2.6-3.92-1.01-1.54-1.58-3.12-.02-4.63,.94-.9,.68-2.6,2.16-3.12,.08-.03,.06-.29,.13-.42,.15-.29,.31-.59,.51-.84,.24-.3,.58-.52,.78-.84,.95-1.45,1.88-2.92,2.81-4.38,.18-.29,.35-.58,.49-.89,.19-.43,.25-.94,.52-1.3,1.29-1.72,2.69-3.35,3.93-5.11,.4-.56,.51-1.29,1.11-1.82,.47-.41,.69-1.1,1.12-1.85,.83,.03,.72-.89,.51-1.49-.16-.46-.81-1.02-1.27-1.04-2.23-.1-4.46-.06-6.69,0-1.91,.05-3.82,.16-5.72,.31-.38,.03-.93,.32-1.06,.63-.4,.99-1.89,1.33-1.59,2.71-1.57,.41-1.69,1.99-2.4,3.06-1.33,1.99-2.54,4.07-3.72,5.99-.39,.02-.84,.04-1.56,.08-1.17-1.62-2.49-3.4-3.75-5.22-.68-.99-1.24-2.07-1.92-3.06-.71-1.04-1.44-2.09-2.3-3-.5-.53-1.25-1.08-1.93-1.15-2.24-.24-4.49-.29-6.74-.36-1.46-.04-2.92-.07-4.37,.05-.76,.06-1.83,.25-2.12,.75-.26,.45,.21,1.49,.58,2.13,.79,1.36,1.77,2.62,2.6,3.96,.74,1.2,1.75,2.2,2.33,3.55,.54,1.26,1.52,2.33,2.31,3.49,.18,.26,.38,.5,.57,.76,.82,1.14,1.66,2.26,2.45,3.41,1.2,1.74,2.33,3.52,3.57,5.23,.51,.71,.9,2.79,.47,3.39-1.67,2.38-3.35,4.75-4.98,7.16-.32,.47-.32,1.16-.66,1.6-.73,.97-1.65,1.8-2.38,2.78-1.05,1.39-2,2.85-3,4.28-1.41,2.02-2.82,4.05-4.24,6.07-.46,.66,0,2.15,.72,2.15,1.96,0,3.94,.71,5.88-.13,.13-.06,.31-.02,.46,0,.67,.12,1.34,.36,2.01,.35,1.58-.02,3.18-.06,4.74-.3,.78-.12,1.79-.32,1.82-1.55,0-.25,.34-.49,.5-.75,.92-1.48,2.54-2.55,2.7-4.5,.01-.19,.22-.44,.4-.51,1.11-.42,1.69-1.43,2.06-2.35,.48-1.2,1.58-1.68,2.29-2.56,.1-.13,.54-.17,.66-.07,.69,.58,1.43,1.14,1.95,1.86,.79,1.09,1.33,2.37,2.14,3.46,.77,1.03,1.66,1.92,2.09,3.22,.26,.81,.96,1.59,1.67,2.1,.94,.67,1.56,2.14,3.14,1.56,.08-.03,.2,.13,.32,.15,.53,.07,1.06,.2,1.59,.17,.68-.04,1.4-.4,2.03-.28,2.61,.51,5.21,.31,7.81,.14,1-.06,1.1-.77,.92-1.53-.11-.46-.34-.9-.59-1.3-.92-1.43-1.81-2.89-2.84-4.24-1.14-1.5-2.43-2.88-3.64-4.32-.11-.13-.16-.35-.15-.53,.06-1.15-.75-1.75-1.44-2.48-.64-.67-1.35-1.46-1.58-2.32-.29-1.09-.92-1.49-1.84-1.75-.09-.02-.15-.14-.28-.25,.26-.17,.48-.31,.54-.35Zm-89.7-18.9c.32-.82,.73-1.41,.75-2.02,.12-2.71,.15-5.42,.19-8.13,.02-1.05-1.82-2.94-2.64-2.51-1.17,.62-2.12-.11-3.17,0-.92,.09-1.85,.03-2.78,.02-3.11-.02-6.23-.08-9.34-.04-1.91,.03-3.8,.27-5.74,.16-1.15-.06-2.37,.26-3.58,.16-.16-.01-.34,.27-.3,.24-.41-.16-.69-.37-.97-.36-1.64,.07-3.27,.3-4.91,.27-2.21-.03-4.42-.27-6.63-.37-.7-.03-1.43,.24-2.12,.17-.92-.1-1.89-.53-1.81,1.05,0,.1-.27,.18-.32,.31-.2,.53-.51,1.09-.5,1.63,0,.52,.65,1.15,.5,1.54-.36,.99-.7,1.85-.03,2.84,.15,.22,.11,.74-.05,.95-.98,1.27,.14,2.44,.11,3.66,0,.08,.16,.21,.26,.22,1.05,.15,2.1,.44,3.14,.39,1.3-.06,2.58-.55,3.9-.02,.61,.25,1.16,.24,1.06-.49,.25,.18,.48,.49,.75,.52,.49,.06,1-.09,1.5-.05,.84,.06,1.68,.26,2.52,.27,1.87,.03,2.14,.47,2.15,2.26,0,1.53-.81,3.19,.43,4.64,.08,.09-.05,.37-.1,.55-.09,.33-.23,.66-.29,1-.19,1.24,.55,2.5-.06,3.76-.13,.27,.07,.7,.08,1.05,.01,.39-.04,.78-.03,1.17,.03,1.58-.51,3.22,.56,4.67-.21,.1-.41,.2-.62,.29,.65,1.03-.24,2.09,.06,3.17,.25,.9,.48,2.02,.15,2.81-.71,1.71,.28,3.35-.13,5.04-.3,1.24-.13,2.6-.17,3.91,0,.3,.02,.6,.05,.9,.18,1.79,.95,2.88,2.97,2.51,.1-.02,.23,.09,.34,.1,.91,.07,1.83,.22,2.74,.18,1.36-.06,2.71-.36,4.06-.38,.93-.01,1.88,.26,2.3-.87,.3-.79,.6-1.61,.67-2.44,.15-1.87,.17-3.75,.2-5.63,.04-2.5,.05-4.99,.04-7.49,0-1.59-.1-3.17-.12-4.76-.02-1.24,0-2.48,0-3.72,0-1.59,.03-3.18,0-4.77,0-.44-.18-.88-.33-1.54,.52-.59,.47-1.56-.13-2.36,.14-.73,.3-1.18,.31-1.64,.05-2,2.36-3.56,4.13-2.77,.87,.39,1.28,.11,1.21-.85-.04-.49-.14-.98-.21-1.46,.36,.26,.52,.58,.55,.91,.09,1.04,.51,1.56,1.67,1.52,2.2-.08,4.41-.02,6.59-.02,.17-.43,.32-.8,.55-1.38,.25,.51,.37,.77,.59,1.22Zm91.36,136.31h-1.52c-4.39,0-8.81,.24-13.18-.06-4.62-.32-8.75,.59-12.48,3.31-.06,.05-.16,.07-.2,.13-.26,.43-.73,.87-.73,1.3-.05,7.43-.05,14.86,0,22.29,0,.47,.39,1.13,.8,1.37,2.01,1.23,4.07,2.36,6.14,3.48,.43,.23,.97,.37,1.46,.37,3.92,.03,7.83,.03,11.75,0,.46,0,.96-.1,1.36-.31,2-1.09,3.97-2.23,5.93-3.37,.29-.17,.69-.47,.7-.72,.06-1.94,.03-3.87,.03-5.82h-6.46c-.3,2.68-.75,3.07-3.43,3.07-3,0-5.99,0-8.99,0-1.42,0-2.36-.95-2.36-2.37,0-4.47,.08-8.95-.05-13.42-.04-1.44,.51-2.15,1.71-2.56,.4-.14,.85-.18,1.28-.19,2.44-.02,4.87,0,7.31,0,1.43,0,2.86,0,4.46,0v4.29h6.46v-10.79Zm29.04,11.63c0-1.64,.01-3.28,0-4.92-.01-1.36,.41-2.99-.21-3.99-.61-.99-2.32-1.24-3.46-1.97-2.38-1.52-4.98-1.71-7.73-1.9-4.66-.33-8.71,.73-12.38,3.55-.61,.47-.9,.85-.89,1.62,.04,4,0,7.99,.02,11.99,0,1.51-.4,3.29,.25,4.46,.63,1.12,2.46,1.5,3.63,2.39,2.31,1.75,4.88,2.1,7.66,1.93,2.23-.14,4.61,.41,6.67-.19,2.02-.59,3.73-2.25,5.57-3.44,.03-.02,.06-.05,.1-.07,.64-.27,.78-.77,.78-1.44-.03-2.68-.01-5.36-.01-8.03Zm12.71,6.23h-7.61v6.83h7.61v-6.83Z"/><path class="cls-1" d="M355.11,50.98v20.65h-4.83V38.8c1.47,0,2.94-.06,4.39,.05,.3,.02,.67,.6,.82,.99,2.5,6.52,4.97,13.05,7.45,19.58,.15,.41,.33,.81,.57,1.41,.95-2.61,1.84-5.03,2.72-7.45,1.64-4.5,3.28-9,4.89-13.51,.28-.79,.64-1.16,1.54-1.1,1.27,.08,2.54,.02,3.9,.02v32.84h-4.65v-21.28c-2.82,7.24-5.56,14.25-8.4,21.56-2.76-7.17-5.41-14.08-8.06-20.99-.11,.02-.21,.04-.32,.05Z"/><path class="cls-1" d="M337.55,58.9c1.92,4.19,3.84,8.38,5.87,12.81-1.9,0-3.6,.04-5.3-.04-.29-.01-.65-.51-.81-.86-1.6-3.61-3.19-7.23-4.72-10.87-.33-.79-.74-1.08-1.59-1.04-1.55,.07-3.11,.02-4.86,.02v12.79c-1.58,0-2.96,.02-4.33-.03-.19,0-.44-.36-.53-.6-.09-.25-.03-.55-.03-.83,0-9.91,.02-19.83-.03-29.74,0-1.26,.37-1.52,1.55-1.5,4.76,.06,9.51,.02,14.27,.04,.53,0,1.14,.1,1.58,.37,6.76,4.33,6.96,14.03,.39,18.64-.42,.29-.89,.51-1.46,.84Zm-11.62-4.83c3.42,0,6.72,0,10.03-.02,.25,0,.53-.18,.73-.35,2.84-2.28,3.03-6.45,.36-8.96-.44-.41-1.17-.67-1.78-.71-1.67-.1-3.36-.03-5.03-.03-1.43,0-2.85,0-4.32,0v10.06Z"/><path class="cls-1" d="M64.36,366.54c1.28,0,2.47,0,3.66,0,3.92,0,7.83,.04,11.75-.03,1.13-.02,1.97,.37,2.81,1.05,5.71,4.69,5.72,12.99-.01,17.59-.58,.47-1.25,.82-1.96,1.28,1.91,4.17,3.84,8.38,5.84,12.77-1.85,0-3.48,.06-5.11-.04-.36-.02-.83-.53-1-.92-1.6-3.57-3.18-7.14-4.69-10.75-.34-.81-.77-1.04-1.59-1.01-1.59,.06-3.18,.02-4.91,.02v12.62h-4.79v-32.57Zm4.6,14.96c.49,.02,.92,.06,1.34,.06,2.35,0,4.72-.15,7.06,.05,2.1,.18,3.17-.89,4-2.51,1.2-2.35,.74-4.98-1.3-6.86-.44-.41-1.16-.71-1.76-.73-2.71-.08-5.42-.04-8.14-.03-.38,0-.77,.04-1.2,.06v9.96Z"/><path class="cls-1" d="M149.46,399.05v-32.77c.19-.04,.37-.13,.56-.13,3.83,0,7.67-.02,11.5,0,.42,0,.87,.13,1.24,.33,5.52,2.98,8.44,7.62,8.74,13.88,.16,3.32,.13,6.62-1.14,9.79-1.5,3.75-4.07,6.54-7.56,8.51-.33,.19-.74,.35-1.11,.36-4.03,.03-8.07,.02-12.23,.02Zm4.62-27.47v22.62c2.07,0,4.07,.01,6.06-.01,.3,0,.63-.14,.89-.3,2.89-1.77,5.11-4.19,5.41-7.63,.26-2.94,.15-6-.34-8.91-.49-2.91-2.66-4.97-5.44-5.68-2.05-.52-4.33-.1-6.57-.1Z"/><path class="cls-1" d="M115.9,382.87c.03,4.83-1,9.27-4.53,12.86-5.5,5.58-12.91,5.11-17.7-1.13-1.95-2.54-2.76-5.45-2.85-8.61-.12-4.05,.03-8.07,1.47-11.92,.78-2.09,1.98-3.91,3.69-5.37,5.38-4.59,12.76-3.57,16.79,2.33,2.44,3.58,3.11,7.63,3.14,11.85Zm-20.31,.58c.22,1.54,.22,3.84,.91,5.91,1.56,4.67,7.02,6.49,10.52,3.54,1.3-1.09,2.52-2.59,3.08-4.15,1.7-4.76,1.26-9.59-.89-14.09-2.06-4.32-7.35-5.09-10.6-1.64-1.02,1.08-1.75,2.6-2.15,4.04-.51,1.82-.54,3.78-.87,6.39Z"/><path class="cls-1" d="M145.07,399.38c-1.84,0-3.42,.04-5.01-.04-.27-.01-.64-.52-.75-.87-.64-1.89-1.26-3.79-1.8-5.7-.21-.73-.51-1.02-1.31-1.01-3,.05-5.99,.04-8.99,0-.68,0-.98,.2-1.15,.87-.51,1.97-1.12,3.91-1.64,5.88-.17,.64-.45,.92-1.16,.89-1.5-.05-3-.02-4.73-.02,3.56-11.14,7.05-22.05,10.55-32.99h5.16c3.58,10.91,7.16,21.81,10.83,32.98Zm-9.17-12.83c-1.37-4.54-2.69-8.9-4-13.27-.07,0-.15,.02-.22,.03-1.33,4.38-2.67,8.76-4.03,13.24h8.25Z"/><path class="cls-1" d="M315.58,71.97h-5.43c-.68-2.16-1.38-4.32-2.02-6.5-.22-.76-.55-1.08-1.41-1.06-2.91,.06-5.83,.06-8.75,0-.85-.02-1.18,.27-1.38,1.07-.48,1.89-1.08,3.76-1.57,5.65-.18,.7-.51,.95-1.24,.92-1.47-.06-2.95-.02-4.61-.02,.38-1.26,.71-2.39,1.07-3.51,3.01-9.42,6.05-18.83,9.03-28.26,.31-.98,.75-1.34,1.75-1.25,1.23,.1,2.81-.38,3.61,.23,.85,.64,1,2.25,1.4,3.46,3.08,9.35,6.14,18.71,9.2,28.07,.12,.37,.22,.75,.35,1.21Zm-13.07-26c-.08,0-.15,0-.23-.01-1.34,4.41-2.69,8.82-4.06,13.32h8.29c-1.35-4.47-2.68-8.89-4.01-13.3Z"/><path class="cls-1" d="M275.71,44.01v7.88c.44,.03,.86,.09,1.28,.09,1.96,0,3.92,.03,5.88,0,.76-.01,1.09,.19,1.05,1.01-.06,1.12-.05,2.24,0,3.36,.04,.81-.29,1.03-1.05,1.01-1.92-.04-3.84-.01-5.76-.01-.43,0-.86,0-1.45,0v14.63h-4.51V39.44h18.31v4.57h-13.75Z"/><path d="M242.65,303.64c-.41,.46-.78,.96-1.24,1.37-4.87,4.38-10.56,5.55-16.84,4.14-1.71-.38-3.45-.77-5.04-1.47-6.08-2.69-8.68-7.25-8.29-13.97,.35-5.83,3.16-10.48,6.92-14.65,6.39-7.08,14.5-11.43,23.43-14.35,8.83-2.89,17.93-4.64,27.17-5.55,14.71-1.46,29.43-2.79,44.14-4.1,14.9-1.33,29.62-3.77,44.19-7.13,1.24-.29,2.49-.55,3.7-.92,.46-.14,.84-.55,1.25-.83-.04-.09-.09-.19-.13-.28-.69-.11-1.39-.14-2.05-.34-3.98-1.18-6.18-4.17-6.33-8.59-.13-3.73,1.06-7.15,2.5-10.51,.74-1.72,1.54-3.42,2.2-5.18,.71-1.91,.23-3.3-1.57-4.22-1.23-.63-2.61-.97-3.94-1.35-.22-.06-.74,.34-.86,.63-3.91,9.45-9.38,17.85-17.25,24.43-9.49,7.93-20.52,11.7-32.94,10.89-4.17-.27-8.21-1.18-11.88-3.37-1.56-.93-2.63-2.16-3.03-3.96-.12-.54-.31-1.1-.62-1.54-.46-.66-1.08-.95-1.79-.22-5.97,6.08-13.24,9.93-21.36,12.26-6.36,1.82-12.8,2.33-19.29,.7-1.69-.43-3.36-1.03-4.97-1.71-4.94-2.1-7.07-6-7.27-11.24-.35-8.75,2.84-15.95,9.12-21.93,4.92-4.69,10.56-7.82,17.38-8.6,4.17-.48,8.32-.27,12.35,.91,6.43,1.88,9.3,8.82,6.29,14.81-2.19,4.35-5.81,7.01-10.16,8.85-5.45,2.3-11.16,2.96-17.01,2.74-2.78-.11-4.63,2.17-3.72,4.8,.66,1.91,1.98,3.15,3.9,3.75,4.45,1.4,8.86,.97,13.2-.4,12.32-3.88,21.21-11.52,25.64-23.87,1.53-4.25,4.29-7.46,7.92-9.95,6.5-4.45,13.69-6.61,21.6-6.06,2.82,.2,5.52,.97,8.03,2.24,4.45,2.25,6.04,7.88,3.72,12.9-1.08,2.33-2.72,4.21-4.77,5.76-4.88,3.68-10.34,5.77-16.47,6.17-2.51,.16-5.01,.49-7.5,.8-2.05,.25-2.9,1.48-2.5,3.52,.65,3.3,3.15,4.57,6.02,5.25,3.75,.89,7.38,0,10.97-1.03,10.83-3.13,18.58-10.14,24.34-19.56,1.56-2.55,2.87-5.25,4.24-7.91,.95-1.86,.37-3.95-1.39-5.15-1.09-.74-1.7-1.7-1.57-3.02,.13-1.31,.23-2.64,.57-3.9,.8-2.91,3.54-4.95,7.04-4.94,2.04,0,4.1,.49,6.1,1,1.78,.45,2.28,1.48,1.85,3.29-.15,.64-.5,1.26-.85,1.83-.76,1.22-.83,2.05,.31,2.94,1.04,.82,2.29,1.42,3.53,1.91,2.26,.89,4.58,1.62,6.88,2.43,.3,.11,.58,.27,.86,.42,5.57,2.94,6.78,6.62,3.78,12.12-1.57,2.88-2.64,5.89-3.3,9.07-.11,.54-.19,1.11-.18,1.66,.08,2.75,2.08,4.06,4.58,2.94,.86-.38,1.71-.91,2.36-1.58,2.37-2.43,4.65-4.95,6.95-7.44,1.08-1.16,1.81-2.46,2.1-4.08,.45-2.51,2.65-3.8,5.48-3.43,2.19,.29,3.33,1.81,3.3,4.37-.02,1.83-.68,3.45-1.64,4.94-3.4,5.23-7.83,9.48-12.82,13.14-6.24,4.57-13.35,7.32-20.67,9.55-9.18,2.8-18.58,4.65-28.03,6.25-13.22,2.24-26.5,4.19-39.7,6.54-11.08,1.97-22.09,4.32-32.66,8.34-7.63,2.9-14.28,7.12-19.07,13.9-1.75,2.49-2.59,5.19-2.09,8.25,.29,1.74,1.06,3.23,2.18,4.59,1.21,1.46,2.83,1.64,4.56,1.62,.05,.11,.1,.22,.15,.33Zm8.39-69.62c6.99-.18,11.77-5.71,12.86-11.67,.21-1.14-.29-1.93-1.47-2-1.17-.07-2.46-.07-3.52,.35-4.76,1.88-8.2,5.3-10.63,9.73-1.29,2.36-.54,3.49,2.17,3.59,.2,0,.4,0,.6,0Zm53.3-4.55c5.71-.04,10.61-3.91,12.52-9.89,1.04-3.26-.1-4.49-3.51-3.76-.08,.02-.15,.05-.23,.07-5.11,1.62-8.6,5.21-11.26,9.64-1.68,2.8-.84,3.97,2.47,3.95Z"/><path d="M212.11,226.71c.68,.42,1.33,.91,2.05,1.25,4.12,1.94,7.82,4.41,10.05,8.53,3.67,6.75,2.09,14.9-3.81,19.99-4.31,3.72-9.42,5.56-14.96,6.49-7.31,1.23-14.42,.08-21.44-1.79-2.53-.67-4.91-1.88-7.34-2.89-1.98-.82-3.64-.56-5.49,.66-5.44,3.59-11.51,5.66-17.93,6.65-4.71,.73-9.39,.49-13.98-.92-2.42-.74-4.5-2.01-6.26-3.84-2.76-2.88-3.05-7.46-.49-10.51,1.2-1.43,2.59-2.72,4.01-3.94,2.57-2.21,5.7-2.66,8.97-2.71,5.58-.09,11.1,.13,16.46,1.92,.63,.21,1.34,.24,2.01,.23,2.25-.03,3.33-.93,3.95-3.09,2.3-7.94,5-15.74,8.55-23.23,1.81-3.81,3.95-7.4,7.12-10.27,3.01-2.72,6.61-4.12,10.56-4.72,2.13-.32,5.12,1.83,5.61,3.91,.22,.94-.37,1.48-1,2.01-1.63,1.34-3.32,2.62-4.86,4.07-1.62,1.53-2.72,3.44-3.31,5.61-.63,2.31,.25,3.62,2.65,3.68,1.34,.04,2.76-.07,4.02-.47,3.64-1.17,7.28-2.38,10.81-3.84,2.93-1.21,4.77-3.5,4.91-6.79,.16-3.66-1.16-6.64-4.46-8.53-3.25-1.86-6.84-2.66-10.46-3.27-10.02-1.67-19.31,.18-27.72,5.98-3,2.07-5.62,4.49-6.84,8.08-1.08,3.2-1.29,6.3,.63,9.32,.68,1.07,1.13,2.29,1.72,3.42,.52,1,.26,1.84-.44,2.63-1.77,1.97-6.2,3.06-8.68,2.06-.57-.23-1.24-.58-1.55-1.07-1.88-3-3.91-5.93-4.55-9.54-.88-4.91,.72-9.15,3.47-13.06,4.04-5.77,9.7-9.39,16.13-11.94,5.29-2.1,10.86-2.86,16.49-3.35,4.74-.42,9.48-.69,14.22-.02,6.61,.93,12.82,2.95,18.41,6.68,4.52,3.02,6.76,7.31,7.06,12.68,.16,2.82-.94,5.13-2.92,7.08-2.83,2.78-5.88,5.17-9.94,5.88-.47,.08-.9,.38-1.35,.58-.03,.13-.05,.25-.08,.38Zm-15.89,28.18c.4,0,.8,.02,1.2,0,3.94-.28,7.76-.89,10.94-3.57,5.74-4.84,5.18-12.84-1.23-16.74-1.09-.66-2.22-1.31-3.41-1.73-4.28-1.51-8.55-3.13-13.13-3.5-2.59-.21-3.43,.35-4.24,2.83-.74,2.27-1.42,4.57-2.16,6.84-.8,2.44-1.81,4.75-3.58,6.69-1.07,1.16-1.69,2.6-1.75,4.23-.04,1.2,.51,1.86,1.67,2.09,1.01,.2,2.07,.35,3.02,.73,4.08,1.65,8.37,1.94,12.68,2.13Zm-46.32,5.44c3.21-.24,6.22-.91,8.84-2.76,.62-.44,1.38-1.32,1.32-1.92-.06-.58-1.09-1.06-1.7-1.58-.06-.05-.14-.07-.22-.09-3.34-1-6.74-1.63-10.23-1.54-1.77,.05-3.22,.84-4.16,2.41-1.19,1.99-.68,3.74,1.51,4.49,1.49,.51,3.09,.67,4.64,.99Z"/><path d="M218.11,160.57c.31-1.89,.91-2.24,2.34-1.67,.18,.07,.37,.23,.54,.21,1.47-.11,2.94-.3,4.41-.35,1.02-.04,2.08-.02,3.06,.22,.42,.1,.89,.82,.96,1.32,.13,.89-.04,1.82-.06,2.74-.02,1.17,.03,2.34-.05,3.5-.07,1.14-.19,2.29-.42,3.4-.24,1.13-1.19,.45-1.8,.51-1.57,.17-3.16,.25-4.74,.26-.46,0-.93-.32-1.4-.51-.04,.48-.47,.73-1.34,.62-2.18-.27-4.37-.41-6.56,0-.52,.1-1.11-.02-1.64-.13-1.69-.35-3.14,.7-3.24,2.42-.04,.74-.21,1.54,0,2.21,.47,1.46,1.93,2.01,3.57,1.69,.88-.18,1.81-.13,2.71-.14,1.3-.02,2.6-.09,3.89,.02,.82,.07,1.61,.42,2.42,.6,.24,.05,.71,.03,.73-.06,.31-1.07,.81-.31,1.33-.25,.88,.11,1.8-.02,2.69-.13,.51-.06,1.08-.46,1.11,.55,1.07-.3,2.16-.94,3.13-.79,1.01,.16,2.16-.26,3.01,.38,.52,.39,.95,1.14,1.07,1.79,.21,1.17,.34,2.41,.17,3.57-.19,1.28,.05,2.5,.06,3.74,.01,2.31-.49,3.15-3.02,3.27-1.96,.1-3.92,.17-5.89,.22-.24,0-.49-.18-.73-.27-.21-.08-.51-.27-.62-.19-1.64,1.09-3.38-.48-5.06,.18-.19,.07-.65-.53-.86-.72-.98,.27-1.99,.85-2.93,.75-1.15-.12-2.36,.57-3.47-.22-.21-.15-.64,.04-.96,.05-2.01,.03-4.01,.04-6.02,.08-1.02,.02-2.04,.07-3.05,.12-1.57,.07-3.14,.2-4.71,.18-.3,0-.59-.56-.93-.91-.05,0-.42,.11-.45,.05-.13-.26-.23-.57-.2-.85,.11-1.04,.32-2,.09-3.14-.38-1.9-.2-3.91-.17-5.88,0-.32,.46-.63,.62-.84-.31-1.26-.69-2.51-.89-3.77-.11-.68,.11-1.4,1.22-1.26-.86-.61-1.15-1.88-.78-2.77,.05-.12-.06-.33-.12-.48-.06-.17-.22-.34-.22-.51-.02-3.99-.06-7.99-.02-11.98,.01-1.49,.44-3.02,.26-4.47-.23-1.88-.16-3.71-.07-5.58,.09-1.84-.05-3.7-.05-5.55,0-.51,.12-1.03,.21-1.54,.16-.91,.65-1.35,1.65-1.33,1.31,.03,2.63-.17,3.95-.15,1.05,.02,2.09,.22,3.13,.34,.16,.02,.31,.04,.47,.04,2.29-.05,4.57-.09,6.86-.15,1.48-.04,2.97-.2,4.45-.16,.69,.02,1.37,.38,2.07,.59,0,0,.01-.26,.02-.37,.89-.12,1.71-.31,2.54-.33,2.53-.07,5.06-.11,7.6-.1,1.29,0,2.58,.09,3.86,.21,1.21,.12,2.12,1.29,2.16,2.51,.07,2.32,.16,4.63,.31,6.95,.14,2.18-.85,3.32-2.99,3.38-1.67,.04-3.34,.24-5,.19-2.05-.06-4.08-.33-6.13-.46-.63-.04-1.27,.07-1.91,.11-1.36,.09-2.72,.18-4.18,.28,.04-.32,.08-.61,.13-.98-1.47,.95-2.35,.79-2.79-.5-1.02,.87-2.09,1.66-2.99,2.62-.33,.36-.34,1.1-.35,1.67-.02,1.23-.33,2.52,.63,3.6,.49,.55,.92,.88,1.81,.76,1.87-.26,3.79-.26,5.68-.31,.53-.01,1.14,.06,1.07,.93-.02,.24,.42,.51,.82,.95Zm-13.4-6.93c1.14-1.52,.84-3.01,0-4.48v4.48Zm9.14,9.76c-.07,1.27-.14,2.54-.2,3.81,.83-.15,.96-1.23,.2-3.81Zm-2.49-.58c-.23,1.11-.45,2.15-.69,3.32,.6-.17,.96-.27,1.03-.29,.07-.79,.12-1.41,.19-2.22-.06-.09-.27-.41-.53-.81Zm-6.62,19.73v4.06c.84-1.15,.91-2.57,0-4.06Zm-3.05-12.96c.11,0,.21,0,.32,0v-4.61c-.11,0-.21,0-.32,0v4.61Zm-.44,7.42c.26,.59,.46,1.04,.66,1.49,.14,0,.27-.02,.41-.03,.14-.58,.28-1.16,.44-1.87-.53,.14-.9,.24-1.51,.41Zm6.51-11.56c.1,0,.2,0,.3,0v-3.04c-.16,0-.32,0-.48,.01,.06,1.01,.12,2.01,.19,3.02Zm3.55,1.23c-.76,.97-.7,1.98,.24,2.67-.08-.94-.15-1.71-.24-2.67Zm-12.54,12.84c.09,0,.17,.01,.26,.02v-2.75c-.09,0-.17,0-.26-.01v2.74Z"/><path d="M370.63,190.61c-.03-.37-.04-.57-.03-.43-.9,.19-1.78,.57-2.62,.51-2.82-.21-5.65-.4-8.42-.93-1.8-.35-3.73-.95-5.15-2.03-1.68-1.28-3.97-1.79-5.03-3.87-.82-1.61-2.46-2.76-2.56-4.79-.05-.94-.39-1.86-.58-2.79-.16-.8,1.28-2.02,2.06-1.82,.23,.06,.53-.15,.91-.28,.1,.15,.28,.4,.48,.69,.4-.23,.3-.84,1.19-.54,1.2,.4,2.69-.05,4.06-.19,1.64-.17,3.02,.28,4.14,1.5,1.47,1.58,3.34,2.61,5.24,3.53,.61,.29,1.51-.04,2.28-.04,.51,0,1.13-.12,1.51,.11,.82,.49,1.51,.09,2.18-.14,.7-.23,1.34-.68,1.95-1.11,1.73-1.21,1.42-3.03-.36-4.26-.94-.65-2.32-.79-2.8-1.48-.99-1.43-2.17-1.21-3.49-1.29-.86-.05-1.72-.43-2.54-.77-.48-.2-.87-.61-1.43-1.03-.92,.35-1.97,0-2.58-.94-1.25-.4-2.36-.65-3.37-1.12-1.09-.51-2.15-1.13-3.1-1.87-.98-.76-1.89-1.65-2.68-2.61-.78-.94-1.49-1.98-2.03-3.07-2.02-4.07-1.87-8.23-.05-12.29,1-2.23,2.72-4.01,4.66-5.47,2.45-1.85,5.26-2.94,8.34-3.26,.15-.02,.33,.26,.4,.31,.63-.28,1.25-.78,1.88-.8,2.38-.05,4.78-.06,7.15,.14,1.69,.15,3.46,.42,4.98,1.11,.95,.43,2.2,.39,2.93,1.51,.35,.54,1.37,.62,2.03,1,.86,.5,1.68,1.07,2.48,1.66,.22,.17,.33,.5,.47,.77,.17,.31,.25,.72,.5,.92,1.36,1.09,1.99,2.43,2.28,4.19,.18,1.11,1.02,2.12,1.05,3.4,.04,1.55-.91,2.52-2.49,2.45-2.14-.09-4.29-.11-6.43-.17-.62-.02-1.25,0-1.87-.05-1.9-.17-1.9-.93-1.98-1.97-.61-.57-.96-.94-1.35-1.25-.63-.5-1.3-.96-1.95-1.44-1.93-1.43-4.19-.88-6.23-.67-1.34,.14-2.61,1.31-3.79,2.17-.23,.17,.02,1.05,.11,1.59,.09,.51,.27,1.01,.39,1.47,.41,.13,1.06,.15,1.41,.48,.85,.8,1.95,.83,2.92,1.25,.67,.29,1.26,.78,1.67,1.05,.86,.13,1.59,.11,2.23,.35,2.56,.95,5.15,1.87,7.62,3.03,1.46,.69,2.75,1.77,4.06,2.75,.48,.36,.8,.94,1.22,1.45,.05-.06,.2-.25,.4-.51,.29,.34,.56,.67,.84,1-.33,.22-.65,.43-1.18,.79,.59-.07,.95-.03,1.23-.16,.7-.33,.96,.02,1.17,.61,.23,.65,.56,1.27,.79,1.92,.51,1.46,1.01,2.93,1.44,4.41,.22,.75,.42,1.55,.41,2.32-.02,1.12-.24,2.23-.34,3.05-.58,.64-1.07,1.1-1.45,1.63-.12,.17-.06,.58,.07,.79,.71,1.11,.38,1.96-.93,2.3-.17,.04-.4,.21-.43,.35-.25,1.24-1.09,1.77-2.25,2.01-.18,.04-.23,.56-.43,.78-.37,.4-.6,1.35-1.55,.41-.2,.46-.37,.87-.56,1.32-2.94,.77-5.97,1.55-9.1,2.37Zm-8.76-27.82v-5.32c-.15-.02-.3-.05-.45-.07-.31,1.15-.59,2.35-.43,3.55,.08,.63-.13,1.66,.88,1.84Zm-2.94-.37c-.1-.07-.2-.13-.29-.2-.2,.13-.59,.27-.58,.4,.02,.78,.13,1.55,.21,2.33,.09,0,.19-.02,.28-.03,.13-.83,.26-1.67,.39-2.5Zm5.29,.4c-.07-.03-.14-.05-.21-.08,.11,.97,.22,1.94,.33,2.91,.13,0,.25,.02,.38,.02,.1-.34,.34-.71,.27-1-.17-.64-.49-1.24-.76-1.86Zm.7-1.92c.16-.09,.32-.18,.48-.26-.34-.72-.69-1.45-1.03-2.17-.14,.06-.27,.12-.41,.17,.32,.76,.64,1.51,.96,2.27Z"/><path d="M318.67,181.61c-.39,.16-.85,.5-1.32,.51-2.51,.05-5.03-.01-7.55,.06-.56,.02-1.13,.38-1.64,.67-.42,.23-.76,.59-1.14,.89-.09,.07-.24,.21-.22,.25,.79,1.66-1.67,2.44-1.11,4.07,.06,.19-.3,.72-.55,.79-1.06,.27-2.15,.48-3.25,.62-.97,.12-1.98,.28-2.93,.15-1.87-.26-3.72,.09-5.58,0-1.21-.06-2.01-1.03-1.65-2.19,.34-1.08,.49-2.42,1.22-3.13,1.64-1.59,1.26-3.81,2.18-5.6,.78-1.52,1.17-3.24,1.86-4.81,.45-1.02,1.17-1.93,1.68-2.93,.16-.31-.1-.83,.04-1.17,.8-1.98,1.55-3.99,2.54-5.88,.75-1.41,.97-3.06,1.86-4.32,.85-1.2,.88-2.52,1.31-3.78,.09-.27,.53-.4,.69-.67,.44-.76,.75-1.59,1.21-2.33,.56-.9-.27-2.28,1.11-2.94,.3-.14,.3-.94,.5-1.68-.41-.42-.11-.94,.37-1.58,.37-.5,.46-1.21,.74-1.79,.71-1.47,1.58-2.88,2.13-4.41,.37-1.02,.76-1.69,1.92-1.67,2.41,.06,4.82,.05,7.23,.2,1.26,.08,2.52,.37,3.76,.64,.7,.16,1.16,.57,1.17,1.43,0,.39,.49,.75,.64,1.16,.56,1.48,1.04,3,1.62,4.47,.46,1.17,1.05,2.28,1.53,3.44,.61,1.48,1.13,3,1.75,4.48,.86,2.09,1.78,4.16,2.66,6.24,.52,1.22,1.27,2.33,1.18,3.79-.04,.65,.52,1.33,.81,1.99,.67,1.56,1.32,3.12,2.01,4.67,.48,1.08,1.15,2.1,1.47,3.22,.4,1.4,1.04,2.68,1.6,4.01,.17,.4,.03,.93,.03,1.4-.11,0-.22,0-.33,.01,.51,.6,1.17,1.12,1.49,1.81,.74,1.58,1.31,3.23,1.96,4.85,.17,.42,.37,.83,.64,1.43-.47,.42-1.04,.95-1.65,1.45-.16,.13-.45,.22-.62,.17-.9-.29-1.73-.32-2.65,.11-.4,.19-1.05-.26-1.59-.24-1.22,.03-2.44,.16-3.65,.27-2.71,.24-4.6-1.35-5.1-3.88-.34-1.72-1.26-3.4-3.29-3.67-1.55-.2-3.15-.07-4.73-.08-.36,0-.74,.1-1.07,.01-.46-.11-.88-.35-1.31-.53Zm-1.07-24.18c-1.01,2.33-1.97,4.51-2.89,6.7-.45,1.09-.77,2.23-1.26,3.3-.58,1.26,.17,2.58,1.57,2.63,1.34,.05,2.68,.13,4.02,.18,1.47,.05,2.98,.16,3.75-1.48-1.02-2.26-1.86-4.54-2.29-6.97-.02-.13-.12-.26-.21-.38-.22-.27-.67-.55-.66-.8,.07-1.36-.68-2.19-2.03-3.19Zm7.69-2.38c-1.59,.19-.63,1.6-1.33,2.2,.37,.22,.63,.38,.96,.57-.74,.58-.82,1.09-.24,1.96,.27,.4-.39,1.42-.63,2.15-.01,.03,.02,.08,.03,.11,.09,.35,.18,.69,.27,1.04-.1,.04-.21,.09-.31,.13,.39,.28,.78,.56,1.25,.9v-9.07Zm2.02,17.2c.44-.21,1.02-.31,1.08-.55,.22-.86,.34-1.76,.38-2.65,.05-1.08,0-2.16-.04-3.24-.01-.32-.14-.63-.21-.94-.17,.06-.5,.13-.49,.19,.01,.34,.1,.68,.14,.94-.88,2.01-.3,4.18-.85,6.25Zm3.1,2.74c2.39-.95,.78-2.57,1.23-3.89-.33-.05-.63-.1-1.05-.17,.05,1.43,.87,2.7-.17,4.06Zm-32.87,11.37c.06-.05,.11-.09,.17-.14,.15-.61,.47-1.24,.42-1.83-.1-1.12-.42-2.21-.65-3.32-.13,.02-.26,.04-.39,.06,.15,1.74,.3,3.48,.45,5.22Zm34.69-16c-.26-1.14-.48-2.11-.7-3.09-.56,2.72-.52,2.87,.7,3.09Zm-.93-6.79l-.48,.06c.12,.93,.24,1.86,.36,2.79,.11-.01,.22-.02,.33-.04-.23-.92,.65-1.96-.21-2.81Zm-30.15,21.97c-.22-1.16-.39-2.02-.55-2.88-.7,.4-.56,1.45,.55,2.88Zm20.46-10.43c.16-.03,.33-.06,.49-.09-.09-.76-.19-1.52-.28-2.28-.14,.02-.28,.03-.42,.05,.07,.77,.14,1.54,.21,2.31Z"/><path d="M275.37,170.43c-.06,.04-.27,.18-.54,.35,.13,.12,.19,.23,.28,.25,.93,.26,1.56,.66,1.84,1.75,.23,.86,.93,1.64,1.58,2.32,.7,.73,1.51,1.32,1.44,2.48,0,.18,.04,.4,.15,.53,1.21,1.44,2.5,2.83,3.64,4.32,1.03,1.35,1.92,2.81,2.84,4.24,.26,.4,.48,.84,.59,1.3,.18,.76,.08,1.46-.92,1.53-2.61,.17-5.21,.37-7.81-.14-.63-.12-1.35,.24-2.03,.28-.53,.03-1.06-.1-1.59-.17-.11-.02-.24-.17-.32-.15-1.58,.58-2.2-.89-3.14-1.56-.71-.51-1.4-1.3-1.67-2.1-.43-1.3-1.33-2.19-2.09-3.22-.8-1.09-1.34-2.36-2.14-3.46-.52-.72-1.27-1.27-1.95-1.86-.12-.1-.56-.06-.66,.07-.71,.89-1.81,1.36-2.29,2.56-.37,.92-.95,1.93-2.06,2.35-.18,.07-.39,.33-.4,.51-.16,1.95-1.77,3.02-2.7,4.5-.16,.26-.49,.5-.5,.75-.03,1.23-1.04,1.43-1.82,1.55-1.56,.24-3.15,.28-4.74,.3-.67,0-1.34-.23-2.01-.35-.15-.03-.33-.06-.46,0-1.94,.84-3.92,.13-5.88,.13-.73,0-1.19-1.49-.72-2.15,1.41-2.02,2.83-4.04,4.24-6.07,1-1.43,1.95-2.89,3-4.28,.73-.97,1.65-1.8,2.38-2.78,.34-.44,.34-1.14,.66-1.6,1.63-2.41,3.31-4.78,4.98-7.16,.42-.6,.04-2.68-.47-3.39-1.24-1.71-2.37-3.49-3.57-5.23-.8-1.15-1.63-2.28-2.45-3.41-.19-.26-.39-.5-.57-.76-.79-1.15-1.77-2.23-2.31-3.49-.58-1.35-1.59-2.34-2.33-3.55-.83-1.34-1.81-2.6-2.6-3.96-.37-.65-.85-1.68-.58-2.13,.29-.5,1.37-.69,2.12-.75,1.45-.12,2.92-.09,4.37-.05,2.25,.07,4.51,.12,6.74,.36,.68,.07,1.43,.62,1.93,1.15,.86,.91,1.59,1.96,2.3,3,.68,.99,1.23,2.07,1.92,3.06,1.26,1.82,2.58,3.6,3.75,5.22,.72-.04,1.17-.06,1.56-.08,1.18-1.92,2.39-4,3.72-5.99,.72-1.07,.84-2.65,2.4-3.06-.31-1.37,1.19-1.71,1.59-2.71,.12-.31,.68-.6,1.06-.63,1.9-.16,3.81-.26,5.72-.31,2.23-.06,4.47-.09,6.69,0,.46,.02,1.11,.59,1.27,1.04,.21,.6,.32,1.52-.51,1.49-.44,.75-.66,1.45-1.12,1.85-.6,.52-.71,1.25-1.11,1.82-1.24,1.75-2.64,3.39-3.93,5.11-.27,.36-.33,.87-.52,1.3-.14,.31-.31,.6-.49,.89-.93,1.46-1.86,2.93-2.81,4.38-.21,.32-.55,.54-.78,.84-.2,.26-.36,.55-.51,.84-.07,.13-.05,.4-.13,.42-1.48,.52-1.23,2.22-2.16,3.12-1.57,1.51-.99,3.09,.02,4.63,.85,1.3,1.71,2.59,2.6,3.92Zm-7.24-6.29c.63-2.49,.42-3.07-1.07-2.82,.72,.75,.07,1.88,1.07,2.82Zm-.62-6.54c-.12,0-.23,0-.35,.01v2.5c2-.82,.6-1.69,.35-2.51Zm-6.74-3.91c.06,.94,.13,1.96,.22,3.31,.32-1.33,.57-2.35,.81-3.31h-1.03Zm6.75-.85c-.37,.68-.69,1.24-1.06,1.91,.17,.09,.44,.23,.8,.42,.3-.84,1.27-1.48,.26-2.34Zm-6,4.79c-1.11,1.95-1.09,2.18,0,2.46v-2.46Zm5.6,17.62c.41,.06,.7,.11,1.14,.18-.26-.85-.47-1.57-.81-2.67-.14,1.04-.23,1.76-.33,2.49Z"/><path d="M185.67,151.53c-.22-.45-.34-.71-.59-1.22-.23,.58-.38,.95-.55,1.38-2.18,0-4.38-.05-6.59,.02-1.16,.04-1.58-.48-1.67-1.52-.03-.33-.18-.65-.55-.91,.07,.49,.17,.97,.21,1.46,.07,.96-.34,1.24-1.21,.85-1.77-.79-4.08,.77-4.13,2.77-.01,.46-.17,.92-.31,1.64,.6,.8,.65,1.77,.13,2.36,.15,.66,.32,1.1,.33,1.54,.03,1.59,0,3.18,0,4.77,0,1.24-.02,2.48,0,3.72,.03,1.59,.12,3.17,.12,4.76,.01,2.5,0,4.99-.04,7.49-.03,1.88-.05,3.76-.2,5.63-.06,.83-.37,1.65-.67,2.44-.42,1.13-1.37,.86-2.3,.87-1.35,.02-2.7,.31-4.06,.38-.91,.04-1.83-.11-2.74-.18-.12,0-.24-.11-.34-.1-2.02,.37-2.79-.72-2.97-2.51-.03-.3-.06-.6-.05-.9,.03-1.31-.14-2.67,.17-3.91,.41-1.69-.58-3.33,.13-5.04,.33-.79,.09-1.91-.15-2.81-.3-1.08,.59-2.13-.06-3.17,.21-.1,.42-.2,.62-.29-1.08-1.44-.53-3.09-.56-4.67,0-.39,.04-.78,.03-1.17,0-.35-.21-.78-.08-1.05,.62-1.26-.13-2.52,.06-3.76,.05-.34,.2-.66,.29-1,.05-.19,.18-.46,.1-.55-1.24-1.44-.42-3.1-.43-4.64-.01-1.79-.29-2.24-2.15-2.26-.84-.01-1.68-.22-2.52-.27-.5-.03-1.01,.12-1.5,.05-.27-.03-.5-.34-.75-.52,.1,.74-.45,.74-1.06,.49-1.31-.53-2.59-.04-3.9,.02-1.04,.05-2.1-.24-3.14-.39-.1-.01-.26-.15-.26-.22,.03-1.22-1.09-2.39-.11-3.66,.17-.21,.2-.74,.05-.95-.67-.99-.33-1.86,.03-2.84,.14-.4-.49-1.02-.5-1.54,0-.54,.3-1.09,.5-1.63,.05-.13,.32-.22,.32-.31-.09-1.58,.88-1.15,1.81-1.05,.69,.07,1.42-.2,2.12-.17,2.21,.09,4.42,.33,6.63,.37,1.63,.02,3.27-.2,4.91-.27,.27-.01,.56,.2,.97,.36-.04,.03,.14-.25,.3-.24,1.21,.11,2.43-.22,3.58-.16,1.94,.11,3.83-.14,5.74-.16,3.11-.04,6.23,.02,9.34,.04,.93,0,1.86,.07,2.78-.02,1.05-.1,2,.62,3.17,0,.82-.43,2.65,1.46,2.64,2.51-.04,2.71-.06,5.42-.19,8.13-.03,.6-.43,1.19-.75,2.02Zm-28.46-9.91c-.13,0-.25,0-.38,0,0,.67,.18,1.4-.04,1.98-.28,.73-.67,1.28,.7,1.58-.1-1.24-.19-2.39-.27-3.55Zm2.95-.43c-.07,.95-.13,1.74-.21,2.7,1.44-.83,1.47-1.48,.21-2.7Zm3.66,42.71c-.1-.01-.21-.02-.31-.04-.21,1.06-.42,2.12-.64,3.18l.49,.07c.15-1.07,.3-2.15,.46-3.22Zm-19.19-37.16q.95-.58,0-2.44v2.44Z"/><path d="M277.03,287.85v10.79h-6.46v-4.29c-1.6,0-3.03,0-4.46,0-2.44,0-4.87,0-7.31,0-.43,0-.88,.05-1.28,.19-1.19,.42-1.75,1.12-1.71,2.56,.13,4.47,.05,8.95,.05,13.42,0,1.42,.93,2.36,2.36,2.37,3,0,5.99,0,8.99,0,2.68,0,3.12-.39,3.43-3.07h6.46c0,1.95,.03,3.88-.03,5.82,0,.25-.41,.55-.7,.72-1.96,1.15-3.94,2.28-5.93,3.37-.39,.22-.9,.31-1.36,.31-3.92,.02-7.83,.03-11.75,0-.49,0-1.03-.14-1.46-.37-2.07-1.12-4.13-2.26-6.14-3.48-.41-.25-.8-.9-.8-1.37-.05-7.43-.05-14.86,0-22.29,0-.44,.47-.87,.73-1.3,.04-.06,.14-.08,.2-.13,3.73-2.72,7.87-3.62,12.48-3.31,4.37,.3,8.78,.06,13.18,.06h1.52Z"/><path d="M306.07,299.47c0,2.68-.02,5.36,.01,8.03,0,.67-.13,1.17-.78,1.44-.04,.02-.07,.05-.1,.07-1.84,1.19-3.55,2.85-5.57,3.44-2.07,.6-4.44,.05-6.67,.19-2.79,.17-5.36-.18-7.66-1.93-1.17-.89-3-1.27-3.63-2.39-.65-1.17-.25-2.95-.25-4.46-.02-4,.02-8-.02-11.99,0-.78,.28-1.15,.89-1.62,3.68-2.83,7.72-3.88,12.38-3.55,2.76,.19,5.35,.38,7.73,1.9,1.13,.73,2.85,.98,3.46,1.97,.61,.99,.2,2.63,.21,3.99,.01,1.64,0,3.28,0,4.92Zm-6,.23c0-1.52,0-3.04,0-4.55,0-1.28-1.02-2.44-2.31-2.47-2.56-.05-5.11-.05-7.67,0-1.4,.02-2.49,1.21-2.49,2.57,0,2.88,0,5.75,0,8.63,0,1.03,1.53,2.72,2.55,2.73,2.6,.04,5.19,.05,7.79,0,1.21-.03,2.13-1.14,2.13-2.35,0-1.52,0-3.04,0-4.55Z"/><path d="M318.79,305.7v6.83h-7.61v-6.83h7.61Z"/><path d="M325.93,54.06v-10.06c1.47,0,2.89,0,4.32,0,1.68,0,3.36-.06,5.03,.03,.61,.03,1.34,.3,1.78,.71,2.67,2.51,2.48,6.68-.36,8.96-.21,.17-.49,.35-.73,.35-3.31,.02-6.61,.02-10.03,.02Z"/><path d="M68.96,381.5v-9.96c.43-.02,.81-.06,1.2-.06,2.71,0,5.43-.05,8.14,.03,.6,.02,1.32,.32,1.76,.73,2.04,1.89,2.5,4.51,1.3,6.86-.83,1.63-1.9,2.69-4,2.51-2.34-.2-4.7-.04-7.06-.05-.43,0-.85-.04-1.34-.06Z"/><path d="M154.08,371.58c2.24,0,4.52-.42,6.57,.1,2.78,.71,4.96,2.77,5.44,5.68,.49,2.91,.6,5.96,.34,8.91-.3,3.43-2.52,5.85-5.41,7.63-.26,.16-.59,.29-.89,.3-1.99,.03-3.98,.01-6.06,.01v-22.62Z"/><path d="M95.6,383.45c.33-2.62,.36-4.57,.87-6.39,.4-1.45,1.13-2.96,2.15-4.04,3.26-3.45,8.55-2.68,10.6,1.64,2.14,4.51,2.58,9.34,.89,14.09-.56,1.56-1.79,3.07-3.08,4.15-3.5,2.94-8.96,1.13-10.52-3.54-.69-2.07-.69-4.37-.91-5.91Z"/><path d="M135.9,386.55h-8.25c1.36-4.48,2.7-8.86,4.03-13.24,.07,0,.15-.02,.22-.03,1.32,4.37,2.63,8.73,4,13.27Z"/><path d="M302.51,45.97c1.33,4.42,2.66,8.83,4.01,13.3h-8.29c1.37-4.49,2.71-8.9,4.06-13.32,.08,0,.15,0,.23,.01Z"/><path class="cls-1" d="M251.04,234.02c-.2,0-.4,0-.6,0-2.71-.1-3.46-1.23-2.17-3.59,2.43-4.43,5.88-7.86,10.63-9.73,1.06-.42,2.35-.42,3.52-.35,1.18,.07,1.68,.86,1.47,2-1.1,5.96-5.87,11.49-12.86,11.67Z"/><path class="cls-1" d="M304.34,229.46c-3.31,.02-4.15-1.15-2.47-3.95,2.65-4.43,6.14-8.02,11.26-9.64,.08-.02,.15-.05,.23-.07,3.4-.73,4.55,.5,3.51,3.76-1.91,5.98-6.81,9.86-12.52,9.89Z"/><path class="cls-1" d="M196.23,254.89c-4.31-.19-8.6-.48-12.68-2.13-.95-.38-2-.52-3.02-.73-1.16-.24-1.72-.9-1.67-2.09,.06-1.63,.68-3.06,1.75-4.23,1.78-1.94,2.79-4.25,3.58-6.69,.74-2.27,1.42-4.57,2.16-6.84,.81-2.47,1.64-3.04,4.24-2.83,4.59,.37,8.85,2,13.13,3.5,1.19,.42,2.32,1.07,3.41,1.73,6.41,3.9,6.97,11.9,1.23,16.74-3.18,2.68-7,3.29-10.94,3.57-.4,.03-.8,0-1.2,0Z"/><path class="cls-1" d="M149.9,260.33c-1.55-.32-3.15-.48-4.64-.99-2.19-.75-2.7-2.49-1.51-4.49,.94-1.57,2.39-2.37,4.16-2.41,3.49-.09,6.89,.54,10.23,1.54,.08,.02,.16,.04,.22,.09,.61,.52,1.64,1,1.7,1.58,.06,.6-.69,1.48-1.32,1.92-2.62,1.85-5.63,2.52-8.84,2.76Z"/><path class="cls-1" d="M204.71,153.64v-4.48c.84,1.47,1.14,2.95,0,4.48Z"/><path class="cls-1" d="M213.85,163.4c.76,2.58,.63,3.65-.2,3.81,.07-1.26,.13-2.53,.2-3.81Z"/><path class="cls-1" d="M211.36,162.82c.26,.4,.47,.71,.53,.81-.07,.82-.13,1.43-.19,2.22-.06,.02-.43,.12-1.03,.29,.24-1.17,.46-2.21,.69-3.32Z"/><path class="cls-1" d="M204.74,182.55c.91,1.49,.84,2.91,0,4.06v-4.06Z"/><path class="cls-1" d="M201.69,169.59v-4.61c.11,0,.21,0,.32,0v4.61c-.11,0-.21,0-.32,0Z"/><path class="cls-1" d="M201.25,177c.61-.16,.98-.26,1.51-.41-.17,.71-.31,1.29-.44,1.87-.14,0-.27,.02-.41,.03-.2-.45-.4-.91-.66-1.49Z"/><path class="cls-1" d="M207.77,165.45c-.06-1.01-.12-2.01-.19-3.02,.16,0,.32,0,.48-.01v3.04c-.1,0-.2,0-.3,0Z"/><path class="cls-1" d="M211.32,166.68c.09,.96,.15,1.73,.24,2.67-.94-.69-.99-1.71-.24-2.67Z"/><path class="cls-1" d="M198.78,179.52v-2.74c.09,0,.17,0,.26,.01v2.75c-.09,0-.17-.01-.26-.02Z"/><path class="cls-1" d="M361.87,162.79c-1.02-.17-.8-1.2-.88-1.84-.16-1.2,.12-2.4,.43-3.55,.15,.02,.3,.05,.45,.07v5.32Z"/><path class="cls-1" d="M358.94,162.42c-.13,.83-.26,1.67-.39,2.5-.09,0-.19,.02-.28,.03-.08-.78-.19-1.55-.21-2.33,0-.13,.38-.27,.58-.4,.1,.07,.2,.13,.29,.2Z"/><path class="cls-1" d="M364.22,162.82c.26,.62,.59,1.22,.76,1.86,.08,.29-.17,.66-.27,1-.13,0-.25-.02-.38-.02-.11-.97-.22-1.94-.33-2.91,.07,.03,.14,.05,.21,.08Z"/><path class="cls-1" d="M364.93,160.9c-.32-.76-.64-1.51-.96-2.27,.14-.06,.27-.12,.41-.17,.34,.72,.69,1.45,1.03,2.17-.16,.09-.32,.18-.48,.26Z"/><path class="cls-1" d="M317.6,157.43c1.35,1,2.1,1.83,2.03,3.19-.01,.25,.43,.53,.66,.8,.09,.11,.19,.24,.21,.38,.44,2.42,1.28,4.71,2.29,6.97-.77,1.64-2.28,1.53-3.75,1.48-1.34-.04-2.68-.12-4.02-.18-1.4-.05-2.15-1.38-1.57-2.63,.49-1.07,.81-2.21,1.26-3.3,.92-2.2,1.88-4.38,2.89-6.7Z"/><path class="cls-1" d="M325.29,155.05v9.07c-.46-.33-.86-.62-1.25-.9,.1-.04,.21-.09,.31-.13-.09-.35-.18-.69-.27-1.04-.01-.04-.04-.08-.03-.11,.24-.74,.9-1.75,.63-2.15-.58-.87-.5-1.38,.24-1.96-.33-.2-.6-.36-.96-.57,.7-.6-.27-2,1.33-2.2Z"/><path class="cls-1" d="M327.3,172.25c.55-2.07-.03-4.24,.85-6.25-.05-.26-.13-.6-.14-.94,0-.06,.32-.12,.49-.19,.07,.31,.2,.63,.21,.94,.04,1.08,.09,2.16,.04,3.24-.04,.89-.15,1.79-.38,2.65-.06,.24-.64,.34-1.08,.55Z"/><path class="cls-1" d="M330.41,175c1.04-1.37,.23-2.63,.17-4.06,.42,.07,.73,.12,1.05,.17-.45,1.32,1.16,2.94-1.23,3.89Z"/><path class="cls-1" d="M297.54,186.37c-.15-1.74-.3-3.48-.45-5.22,.13-.02,.26-.04,.39-.06,.23,1.1,.54,2.2,.65,3.32,.05,.59-.27,1.22-.42,1.83-.06,.05-.11,.09-.17,.14Z"/><path class="cls-1" d="M332.22,170.37c-1.22-.22-1.25-.37-.7-3.09,.22,.97,.44,1.95,.7,3.09Z"/><path class="cls-1" d="M331.29,163.58c.86,.85-.02,1.89,.21,2.81-.11,.01-.22,.02-.33,.04-.12-.93-.24-1.86-.36-2.79l.48-.06Z"/><path class="cls-1" d="M301.14,185.55c-1.11-1.43-1.25-2.48-.55-2.88,.16,.86,.33,1.72,.55,2.88Z"/><path class="cls-1" d="M321.59,175.12c-.07-.77-.14-1.54-.21-2.31,.14-.02,.28-.03,.42-.05,.09,.76,.19,1.52,.28,2.28-.16,.03-.33,.06-.49,.09Z"/><path class="cls-1" d="M268.13,164.14c-.99-.94-.35-2.08-1.07-2.82,1.49-.25,1.7,.33,1.07,2.82Z"/><path class="cls-1" d="M267.51,157.6c.25,.82,1.65,1.69-.35,2.51v-2.5c.12,0,.23,0,.35-.01Z"/><path class="cls-1" d="M260.77,153.69h1.03c-.23,.96-.48,1.98-.81,3.31-.09-1.35-.16-2.37-.22-3.31Z"/><path class="cls-1" d="M267.51,152.84c1.02,.86,.04,1.5-.26,2.34-.36-.19-.64-.33-.8-.42,.37-.67,.68-1.24,1.06-1.91Z"/><path class="cls-1" d="M261.52,157.64v2.46c-1.09-.28-1.11-.51,0-2.46Z"/><path class="cls-1" d="M267.12,175.26c.1-.73,.19-1.45,.33-2.49,.33,1.09,.55,1.82,.81,2.67-.43-.07-.73-.12-1.14-.18Z"/><path class="cls-1" d="M157.22,141.63c.09,1.16,.18,2.31,.27,3.55-1.37-.3-.97-.85-.7-1.58,.22-.58,.04-1.31,.04-1.98,.13,0,.25,0,.38,0Z"/><path class="cls-1" d="M160.17,141.2c1.27,1.22,1.23,1.86-.21,2.7,.07-.96,.13-1.75,.21-2.7Z"/><path class="cls-1" d="M163.83,183.91c-.15,1.07-.3,2.15-.46,3.22l-.49-.07c.21-1.06,.42-2.12,.64-3.18,.1,.01,.21,.02,.31,.04Z"/><path class="cls-1" d="M144.64,146.75v-2.44q.95,1.87,0,2.44Z"/><path class="cls-1" d="M300.08,299.7c0,1.52,0,3.04,0,4.55,0,1.21-.92,2.32-2.13,2.35-2.59,.06-5.19,.04-7.79,0-1.02-.01-2.55-1.71-2.55-2.73,0-2.88,0-5.75,0-8.63,0-1.36,1.09-2.55,2.49-2.57,2.56-.04,5.11-.04,7.67,0,1.29,.02,2.31,1.18,2.31,2.47,0,1.52,0,3.04,0,4.55Z"/></g></g></svg>