<?xml version="1.0" encoding="utf-8"?>
<!-- Generator: Adobe Illustrator 26.1.0, SVG Export Plug-In . SVG Version: 6.00 Build 0)  -->
<svg version="1.1" id="Layer_1" xmlns="http://www.w3.org/2000/svg" xmlns:xlink="http://www.w3.org/1999/xlink" x="0px" y="0px"
	 viewBox="0 0 2500 2500" style="enable-background:new 0 0 2500 2500;" xml:space="preserve">
<style type="text/css">
	.st0{fill-rule:evenodd;clip-rule:evenodd;fill:#CC2229;}
</style>
<path class="st0" d="M311.8,1432c-32.6-20.4-56.6-90.9-56.6-174.7c0-3.1,0-6.1,0.1-9.1l0,0c-90.7-14.3-156.2-53.3-157.9-99.5
	l-0.3,0.5c-22.2,27.6-34.9,59.5-34.9,93.5c0,100,109.8,181.9,249,189.2L311.8,1432z M20.2,1250c0-111.9,139.2-202.6,311-202.6
	c171.8,0,311,90.7,311,202.6c0,111.9-139.2,202.6-311,202.6C159.5,1452.6,20.2,1361.9,20.2,1250L20.2,1250z M331.2,1076.6
	c33.2,0,61.4,50.3,71.8,120.5l0-0.1c64.5-10,109.7-33.2,109.7-60.2c0-36.2-81.3-65.5-181.5-65.5c-100.2,0-181.5,29.3-181.5,65.5
	c0,27,45.2,50.1,109.7,60.2l0,0.1C269.9,1126.9,298.1,1076.6,331.2,1076.6L331.2,1076.6z M351.3,1431.9
	c139.2-7.3,249-89.2,249-189.2c0-34-12.7-65.9-34.9-93.5l-0.3-0.5c-1.7,46.2-67.2,85.3-157.9,99.5l0,0c0.1,3,0.1,6.1,0.1,9.1
	c0,83.8-24,154.3-56.6,174.7L351.3,1431.9z M331.2,1202.3c14.4,0,28.8-0.6,43.1-1.8l0,0c-6.9-45-23.6-76.7-43.1-76.7
	c-19.5,0-36.2,31.8-43.1,76.7l0,0C302.5,1201.7,316.9,1202.3,331.2,1202.3L331.2,1202.3z M331.2,1368.9c25,0,45.3-52,46.4-117.1
	l0.1,0c-31,2.9-62.1,2.9-93.1,0l0.1,0C285.9,1317,306.3,1368.9,331.2,1368.9z M1607.2,1250c0-85.5,69.3-154.8,154.8-154.8
	c85.5,0,154.9,69.3,154.9,154.8c0,85.5-69.3,154.8-154.9,154.8C1676.6,1404.8,1607.2,1335.5,1607.2,1250L1607.2,1250z
	 M1762.1,1348.1c47.8,0,86.5-43.9,86.5-98.1c0-54.1-38.7-98.1-86.5-98.1s-86.5,43.9-86.5,98.1
	C1675.6,1304.2,1714.3,1348.1,1762.1,1348.1z M2092.7,1159.7v238.2h-65.3v-238.2h0.2h-91.2v-53.8h247.3v53.8H2092.7z M2262.6,1332.1
	L2262.6,1332.1l-25.1,65.7h-76.2l120.5-292h81.2l120.5,292h-76.2l-25-65.6l-0.1-0.1H2262.6z M2322.4,1282.8h41.1l0,0l-40.8-106.9
	h-0.6l-40.8,106.9l0,0H2322.4z M889.9,1159.7v238.2h-65.3v-238.2h0.2h-91.3v-53.8H981v53.8H889.9L889.9,1159.7z M997.7,1250
	c0-85.5,69.3-154.8,154.9-154.8c85.5,0,154.9,69.3,154.9,154.8c0,85.5-69.3,154.8-154.9,154.8C1067,1404.8,997.7,1335.5,997.7,1250z
	 M1152.5,1348.1c47.7,0,86.5-43.9,86.5-98.1c0-54.1-38.7-98.1-86.5-98.1c-47.8,0-86.5,43.9-86.5,98.1
	C1066.1,1304.2,1104.8,1348.1,1152.5,1348.1z M1457.3,1397.8h33.1V1287l113.8-181.1H1528l-70.7,122.7l-70.7-122.7h-76.2l113.8,181.1
	v110.9L1457.3,1397.8L1457.3,1397.8z"/>
</svg>
