<?xml version="1.0" encoding="UTF-8"?><svg id="Layer_2" xmlns="http://www.w3.org/2000/svg" viewBox="0 0 579.7 182.91"><defs><style>.cls-1{fill:#fefefe;}.cls-2{fill:#816f4b;}.cls-3{fill:#a8c199;}.cls-4{fill:#5b481d;}.cls-5{fill:#4e88ba;}.cls-6{fill:#4e8abc;}</style></defs><g id="Layer_1-2"><g><path class="cls-6" d="M216.62,167.47c-57.02,0-114.04,0-171.06,.03-1.69,0-2.29-.33-2.25-2.17,.12-6.77,.11-13.55,0-20.32-.03-1.77,.48-2.19,2.21-2.19,46.47,.05,92.95,.04,139.42,.04,67.5,0,135.01,0,202.51-.04,1.84,0,2.49,.31,2.44,2.34-.15,6.71-.12,13.42-.02,20.13,.03,1.75-.43,2.21-2.2,2.21-57.02-.05-114.04-.04-171.06-.04Zm-135.68-14.75c.71,3.49,1.55,6.85,1.59,10.3,0,.46,.13,.77,.59,.78,1.63,.02,3.27,0,4.9,0-1.91-.32-2.44-1.5-2.66-3.14-.6-4.42-1.29-8.83-1.98-13.24-.08-.52,.2-1.34-.53-1.48-.76-.14-.77,.73-1,1.19-1.7,3.5-3.35,7.03-5.03,10.54-.23,.48-.26,1.14-1.06,1.26-2.16-4.41-4.32-8.82-6.48-13.23-.6,.59-.79,.99-.86,1.42-.68,4.54-1.36,9.07-2.01,13.61-.18,1.24-.4,2.42-1.79,3.02,1.75,.11,3.39,.33,5.19-.07-.69-.56-1.77-.37-1.67-1.35,.31-3.05,.7-6.09,1.06-9.13,1.94,3.01,3.42,6.03,4.93,9.04,.28,.55,.41,1.44,1.07,1.46,.83,.03,.89-.96,1.18-1.55,1.54-3.13,3.03-6.29,4.54-9.44Zm290.2,11.01c-2.04-.08-2.33-1.49-2.55-3.09-.63-4.48-1.32-8.96-2.02-13.43-.07-.45,.08-1.18-.62-1.22-.52-.04-.6,.59-.78,.98-1.25,2.59-2.48,5.18-3.73,7.77-.7,1.44-1.42,2.87-2.29,4.62-2.08-4.29-3.95-8.2-5.88-12.08-.26-.52-.28-1.48-1.12-1.31-.6,.12-.48,.97-.56,1.49-.7,4.41-1.37,8.82-1.99,13.25-.18,1.26-.34,2.45-2.26,3.06h5.87c-.8-.64-2.02-.36-1.86-1.63,.36-2.95,.71-5.9,1.06-8.85,1.82,2.7,3.15,5.49,4.59,8.22,.42,.8,.55,2.2,1.56,2.16,.78-.03,.96-1.38,1.35-2.17,1.46-2.94,2.86-5.91,4.51-9.32,.41,2.96,.56,5.4,1.14,7.73,.33,1.31-.75,3.21,.91,3.84,1.29,.49,2.9,.14,4.37,.14,.1,0,.2-.1,.3-.15Zm-80.99-17.38c1.81,.35,1.93,1.56,1.94,3.05,.02,3.19-.33,6.39,.26,9.56,.67,3.58,3.05,5.37,7.02,5.34,3.77-.03,6.26-2.09,6.88-5.6,.53-3.05,.21-6.12,.27-9.18,.03-1.36-.13-2.72,1.64-3.08h-5.72c.98,.44,1.93,.68,1.9,2.07-.07,3.32,.05,6.65-.09,9.96-.12,2.78-1.81,4.36-4.33,4.4-2.52,.05-4.13-1.48-4.53-4.23-.44-3.05-.24-6.12-.23-9.18,0-1.28,.13-2.59,1.69-3.1h-6.69Zm-163.53,0c2.35,.94,2.37,.94,2.39,3.21,.02,2.68-.07,5.37,.04,8.04,.17,4.27,2.54,6.55,6.79,6.7,4.17,.15,6.81-2.05,7.38-6.11,.4-2.86,.09-5.74,.19-8.61,.04-1.31-.13-2.71,1.57-3.18h-5.61c.93,.46,1.9,.72,1.88,2.06-.05,3.32,.09,6.65-.09,9.96-.16,2.89-1.73,4.36-4.29,4.44-2.43,.08-4-1.26-4.53-4.01-.56-2.91-.16-5.86-.25-8.78-.04-1.43-.34-3.01,1.49-3.73h-6.97Zm121.89,6.95c-1.44,.55-2.78,.57-4.11,.61-.87,.03-1.4-.37-1.22-1.26,.33-1.65-1.08-3.99,.79-4.81,1.28-.56,3.73-.87,4.58,2.14,.16-1.09,.21-1.66,.33-2.21,.27-1.21,.06-1.66-1.41-1.49-2.02,.23-4.08,.04-6.12,.08-1.12,.02-2.27-.22-3.48,.35,1.83-.07,2.05,.97,2.15,2.38,.28,3.96,.15,7.9-.04,11.86-.06,1.21,.08,2.49-1.76,2.8,2.89,.24,5.6,.24,8.31,.24,3,0,3.3-.39,2.68-3.34-.99,1.9-1.78,2.21-4.4,1.94-1.09-.12-1.63-.6-1.64-1.69,0-1.53-.01-3.06,0-4.6,0-.51-.02-.96,.7-1.13,1.83-.43,3.33,.12,4.34,1.76,.2-1.17,.45-2.28,.31-3.61Zm-61.49,6.04c-.16,0-.33,0-.49-.01,0,1.18,0,2.35,0,3.53,0,.54,.33,.77,.76,.97,2.63,1.23,6.73,.3,8.19-1.87,1.56-2.32,.91-5.31-1.72-7.64-1-.89-2.09-1.67-3.11-2.54-.94-.8-1.48-1.79-1.1-3.05,.35-1.14,1.3-1.54,2.38-1.59,1.33-.07,2.31,.57,2.96,1.74,.19,.35,.01,.92,.6,1.06,.65-3.62,.34-4.01-3.15-3.98-.7,0-1.38,.06-2.07,.28-3.07,1.01-4.23,3.86-2.66,6.7,.76,1.38,1.93,2.36,3.14,3.3,.96,.74,1.94,1.46,2.52,2.57,1.08,2.08-.07,4.06-2.42,4.16-2.08,.09-3.01-.79-3.84-3.64Z"/><path class="cls-3" d="M575.74,.09c2.51,.14,2.58,.42,2.63,2.83,.16,8.28,.04,16.56,.36,24.84,.24,6.44,0,12.9,.26,19.33,.28,6.95,.02,13.91,.36,20.85,.31,6.31,.12,12.63,.34,18.93,.05,1.3-.32,2.05-1.52,2.7-3.91,2.11-7.74,4.39-11.79,6.71-.39-1.24-.09-2.38-.18-3.47-.02-.12-.02-.25,0-.37,1.55,.19,3.1,.7,4.66,.06,.05-.16,.1-.31,.15-.47,.33-7.4,.15-14.81,.4-22.22,.34-10.21,.4-20.43,.52-30.65,.07-5.93,.33-11.89-1.12-17.72-.82-3.28-2.36-6.13-5.64-7.54-10.8-4.62-18.51,3.13-20.08,12.19v-.02c-.56,.23-.31,.78-.45,1.18-.42,.29-.23,.74-.29,1.12-1.62,4.21-2.36,8.57-2.35,13.09,.03,23.11,.02,46.23,.07,69.34,0,1.38-.32,2.35-1.44,3.25-3.32,2.68-6.53,5.49-9.78,8.25-.09-1.4-.23-2.8-.26-4.19-.14-8.11-.08-16.22-.35-24.33-.31-9.45-.26-18.91-.44-28.36-.17-8.62,.31-17.26-.82-25.84-.57-4.34-1.64-8.57-4.53-12.03-4.12-4.94-11.75-6.79-18.03-4.5-3.61,1.32-6.78,3.23-8.53,6.87h.02c-.28-.05-.3,.14-.31,.34-.04,.15-.07,.31-.11,.46-2.59,1.29-4.32,3.54-6.06,5.69-7.46,9.28-10.03,19.9-9,31.7,.6,6.92,.35,13.91,.57,20.86,.45,14.91,.97,29.82,1.42,44.72,.21,7.08,.04,14.19,.61,21.24,.26,3.25-1.08,4.6-3.46,6.08-7.81,4.84-15.5,9.86-23.25,14.8-.42,.27-.91,.43-1.37,.65-.03-1.02-.09-2.04-.08-3.06,.17-12.2,0-24.4,.21-36.61,.25-15.14,.07-30.29,.13-45.44,.08-22.81,.22-45.62,.27-68.43,0-1.53,.6-1.96,1.91-2.18,12.01-2.05,24.01-4.13,36.01-6.22,21.92-3.83,43.83-7.68,65.75-11.52,1.49-.23,3-.38,4.47-.7,3.38-.72,6.86-.94,10.11-2.22Z"/><path class="cls-4" d="M55.92,99.04c1.56-4.15,3.14-8.29,4.68-12.45,8.21-22.04,16.4-44.09,24.61-66.13,.6-1.61,1.19-3.25,2.21-4.65,1.12-1.53,2.52-1.51,3.52,.11,.63,1.02,1.11,2.15,1.58,3.27,10.74,25.92,21.46,51.85,32.19,77.78,.14,.34,.32,.66,.67,1.39,.96-3.29,1.8-6.19,2.66-9.09,5.89-19.73,11.79-39.46,17.68-59.19,.71-2.39,1.23-4.82,1.4-7.32,.25-3.67-1.14-5.33-4.83-5.68-1.02-.1-2.05-.08-3.06-.22-.8-.1-1.77-.15-1.83-1.29-.06-1.19,.92-1.26,1.72-1.37,2.67-.34,5.36-.19,8.04-.02,7.09,.46,14.17,.18,21.25-.12,.64-.03,1.29-.03,1.91,.08,.81,.14,1.72,.26,1.64,1.45-.07,1.01-.82,1.2-1.62,1.28-.83,.08-1.66,.12-2.49,.15-3.06,.11-5.35,1.38-6.78,4.18-2.55,4.96-4.17,10.28-6.02,15.5-10.44,29.45-20.09,59.16-29.86,88.84-.46,1.39-.86,2.82-1.68,4.05-1.23,1.86-2.88,1.86-4.12,.02-1.04-1.55-1.68-3.29-2.39-5-10.49-25.27-20.97-50.53-31.46-75.8-.15-.35-.33-.69-.5-1.06-.76,.42-.74,1.2-.98,1.82-8.99,23.6-17.72,47.29-27.6,70.54-1.22,2.87-2.62,5.68-4,8.48-.56,1.14-1.23,2.41-2.75,2.34-1.64-.07-2.13-1.49-2.55-2.75-2.94-8.7-5.84-17.41-8.75-26.12C29.99,76.88,21.56,51.67,13.13,26.47c-.26-.79-.6-1.55-.87-2.33-1.63-4.75-4.69-7.49-9.97-7.22-.56,.03-1.14-.11-1.69-.27C.11,16.51,0,16.05,0,15.57c0-.58,.23-.98,.8-1.16,.93-.29,1.88-.34,2.84-.34,7.92,0,15.83,.71,23.75,.29,3.51-.19,7.02-.23,10.53-.25,1.17,0,2.87-.14,2.96,1.37,.11,1.73-1.64,1.33-2.77,1.45-.57,.06-1.15,.07-1.72,.12-2.73,.22-4.01,1.81-3.54,4.53,.84,4.91,2.3,9.67,3.65,14.46,5.87,20.86,12.31,41.55,18.77,62.23,.07,.24,.16,.47,.24,.71,.14,.03,.28,.06,.42,.08Z"/><path class="cls-2" d="M497.51,30.72c.04-.15,.07-.31,.1-.46,.1-.12,.21-.24,.31-.36,0,0-.02,.01-.02,.01,2.86-1.33,5.48-3.08,8.6-3.96,7.95-2.25,15.48,1.93,18.64,9.13,2.08,4.74,2.53,9.68,2.08,14.91-.63,7.4-.76,14.85-1.21,22.28-.29,4.76-.5,9.52-.79,14.28-.5,8.44-.64,16.91-1.28,25.34-.34,4.44,.12,8.92-.82,13.32-8.83-2.75-17.65-5.51-26.49-8.23-.91-.28-.92-.81-.89-1.59,.85-20.99,1.69-41.98,2.51-62.96,.18-4.72,.31-9.45,.44-14.17,.07-2.58-.41-5.08-1.18-7.53Z"/><path class="cls-5" d="M445.01,175.95c-6.14-1.13-12.27-2.29-18.41-3.38-1.3-.23-1.93-.77-1.71-2.15,.11-.69,.11-1.4,.15-2.09,.49,.15,.98,.27,1.46,.44q2.79,.97,2.79-1.94c0-49.25,0-98.51,0-147.76q0-2.88,2.81-3.26c.25-.03,.51-.03,.76-.06,7.22-.84,14.43-1.68,21.65-2.52,9.31-1.09,18.61-2.18,27.92-3.27,6.9-.8,13.81-1.57,20.71-2.39,7.34-.86,14.68-1.76,22.02-2.64,2.14-.23,4.29-.44,6.43-.71,6.17-.79,12.37-1.29,18.51-2.27,1.12-.18,2.38-.53,3.46,.32-1.33,.14-2.66,.27-3.99,.44-7.53,.93-15.06,1.87-22.58,2.82-9.68,1.22-19.35,2.47-29.03,3.7-7.65,.97-15.31,1.91-22.96,2.89-10.37,1.32-20.73,2.69-31.11,3.96-1.21,.15-1.63,.43-1.59,1.68,.12,3.83,.16,7.65,.29,11.48,.27,7.72,.22,15.45,.37,23.17,.29,14.75,.42,29.5,.81,44.24,.2,7.6,.05,15.2,.36,22.79,.31,7.65,.14,15.32,.38,22.98,.35,11.17,.35,22.35,.5,33.52Z"/><path class="cls-4" d="M360.89,128.56c-5.2-.6-12.16,.1-19.12,.13-.51,0-1.02,.02-1.53,0-.75-.04-1.74,.03-1.77-1-.03-1.17,1.02-.88,1.73-.92,5.31-.32,6.25-1.31,6.7-6.72,.47-5.68,.42-11.36,.42-17.05,0-14.06-.03-28.12-.07-42.18,0-1.4-.09-2.81-.28-4.2-.42-2.97-1.73-4.25-4.71-4.65-1.26-.17-2.54-.21-3.82-.32-.67-.05-1.58,.13-1.55-.92,.03-.95,.92-.98,1.59-.98,3.13,.02,6.26,.12,9.39,.16,11.5,.12,23,.5,34.49-.24,1.13-.07,2.26-.39,3.37-.67,1.08-.27,1.54,.2,1.34,1.16-.84,4.22-.83,8.51-1.27,12.76-.08,.75,0,1.85-1.28,1.73-1.19-.11-.8-1.15-.86-1.82-.39-4.73-1.79-6.35-6.76-6.92-5.02-.58-10.08-.45-15.13-.54-1.17-.02-1.16,.7-1.16,1.51,0,4.03,0,8.05,0,12.08,0,4.41,0,8.82,0,13.23,0,.84-.11,1.7,1.2,1.65,5.68-.2,11.37,.23,17.05-.31,1.85-.18,3.51-.62,4.71-2.14,.33-.41,.75-.8,1.31-.59,.71,.28,.51,.93,.43,1.49-.7,4.81-.97,9.66-1.18,14.5-.03,.69-.15,1.36-.96,1.4-.83,.04-.95-.6-1.03-1.31-.7-6.19-1.91-7.32-8.21-7.5-3.96-.12-7.92-.12-11.88-.23-1.07-.03-1.46,.3-1.45,1.4,.05,8.56-.02,17.13,.11,25.69,.07,4.32,2.01,6.22,6.3,6.71,4.46,.51,8.93,.56,13.37-.18,4.06-.68,6.12-3.28,6.91-7.2,.19-.97-.21-2.85,1.41-2.66,1.6,.18,.75,1.91,.76,2.89,.02,3.32-.47,6.62-1.12,9.88-.54,2.72-1.29,3.28-4.03,3.31-7.22,.08-14.44-.1-23.42-.45Z"/><path class="cls-4" d="M306.59,90.44c.19,8.32-.36,18.49,.36,28.64,0,.13,.01,.26,.02,.38,.31,5.5,1.18,6.45,6.58,7.09,1.14,.14,2.29,.13,3.44,.23,.51,.04,1.05,.14,1.08,.84,.03,.69-.51,.82-.99,.97-.3,.09-.63,.1-.95,.09-4.53-.09-9.07-.27-13.6-.27-4.92,0-9.83,.18-14.75,.28-.51,.01-1.02,0-1.53,0-.8-.01-1.73-.11-1.75-1.06-.02-.96,.93-.82,1.62-.87,5.56-.4,6.11-.93,6.77-6.38,.57-4.77,.53-9.57,.56-14.35,.09-16.1,.01-32.21,.07-48.31,0-1.58-.37-2.06-1.98-1.99-6.12,.27-12.26,.22-18.38,.74-3.6,.31-5.65,2.32-6.82,5.53-.17,.48-.31,.98-.52,1.44-.21,.44-.62,.62-1.12,.54-.55-.09-.69-.47-.74-.96-.13-1.42,.16-2.8,.43-4.18,.59-3,1.22-6,1.84-9,.22-1.08,.7-1.84,1.97-1.31,3.89,1.62,8.03,1.47,12.09,1.5,14.89,.11,29.79,.05,44.69,.04,2.56,0,5.11-.29,7.6-.88,1.36-.33,1.98,.07,1.95,1.43-.1,4.34-.21,8.68-.35,13.02-.02,.62-.16,1.34-1.01,1.4-.78,.05-.92-.55-1.02-1.14-.29-1.8-.15-3.73-1.8-5.07-2.03-1.64-4.43-2.28-6.92-2.53-5.22-.53-10.47-.4-15.7-.56-1.41-.04-1.13,.84-1.13,1.62,0,10.42,0,20.83,0,33.08Z"/><path class="cls-4" d="M231.46,89.81c.13,7.89-.26,17.48,.27,27.06,.1,1.72,.22,3.44,.45,5.15,.39,2.9,1.72,4.11,4.64,4.38,1.46,.13,2.93,.24,4.39,.37,.72,.06,1.77-.18,1.68,.98-.08,1.01-1.07,.94-1.82,.94-2.49,0-4.99,.06-7.48-.07-6.52-.35-13.03-.13-19.54,.07-.96,.03-1.92,.02-2.88,0-.78-.01-1.72-.05-1.73-1.05-.01-1,.93-.82,1.61-.87,5.48-.38,6.16-.94,6.75-6.43,.52-4.77,.52-9.57,.52-14.36,.02-16.11,0-32.21,.04-48.32,0-1.4-.22-2-1.83-1.93-6.06,.26-12.13,.26-18.19,.69-3.92,.28-6.12,2.47-7.26,6.02-.04,.12-.06,.25-.11,.37-.24,.6-.48,1.28-1.29,1.17-.96-.13-.94-.95-.88-1.64,.25-3.25,1.01-6.42,1.65-9.61,.27-1.36,.16-3.02,1.18-3.97,1.28-1.19,2.56,.46,3.89,.62,3.37,.4,6.74,.68,10.13,.69,14.58,.02,29.15,0,43.73,.01,2.76,0,5.49-.29,8.17-.91,1.47-.34,1.86,.22,1.83,1.52-.12,4.28-.21,8.55-.34,12.83-.02,.7-.06,1.51-1.06,1.51-.75,0-.84-.61-.97-1.2-1.22-5.45-2.85-6.94-8.78-7.55-5.15-.53-10.34-.39-15.51-.55-1.44-.04-1.29,.8-1.29,1.71,0,10.23,0,20.45,0,32.37Z"/><path class="cls-2" d="M566.22,92.44c-.02,.12-.02,.24,0,.37-3.22-.6-6.49-.24-9.73-.41-2.48-.14-4.97-.25-7.46-.25-1.2,0-1.44-.36-1.39-1.56,.53-14.28,.89-28.56,.39-42.85-.18-5.03-.37-10.08-1.41-15.03-.34-1.61-.36-3.49-2.25-4.34,.06-.38-.13-.83,.29-1.12,.51-.25,.47-.72,.46-1.18,0,0-.01,.02-.01,.02,.54-.32,.63-.93,.92-1.42,1.75-2.98,3.71-5.75,6.6-7.81,4.57-3.26,9.91-2.18,12.82,2.56,2.17,3.53,3.11,7.33,3.11,11.42,0,7.13-.41,14.24-.72,21.36-.26,5.97-.58,11.94-.74,17.91-.21,7.44-.8,14.87-.86,22.31Z"/><path class="cls-2" d="M575.74,.09c-3.25,1.28-6.74,1.5-10.11,2.22-1.47,.31-2.98,.47-4.47,.7-1.78-.74-3.5,.09-5.2,.31-5.47,.69-10.91,1.65-16.38,2.43-6.72,.97-13.46,1.83-20.18,2.8-6.66,.96-13.3,2.01-19.96,2.97-6.66,.96-13.33,1.84-19.99,2.79-7.66,1.1-15.32,2.27-22.98,3.33-1.15,.16-1.52,.61-1.52,1.7,0,5.35-.07,10.7-.3,16.06-.38,9.11,.07,18.24-.36,27.36-.46,9.74,.07,19.52-.4,29.28-.44,9.17,.07,18.36-.36,27.56-.48,10.13,.06,20.28-.39,30.43-.34,7.59-.1,15.2-.09,22.8,0,1.72-.51,3.39-.38,5.13,.08,1.07,.43,1.25,1.27,.7,.9-.6,1.78-1.23,2.87-1.48v5.74c-3.66-2.25-7.32-4.11-10.65-6.53,.16-16.34-.12-32.69,.28-49.04,.49-20.11-.12-40.23,.4-60.35,.31-12.01,.07-24.03,.08-36.04,0-4.09,.02-8.18,0-12.27,0-1,.14-1.71,1.4-1.81,1.96-.16,3.91-.48,5.86-.73,9.13-1.17,18.28-2.24,27.4-3.54,9.55-1.37,19.13-2.59,28.7-3.82,9.07-1.17,18.11-2.54,27.17-3.75,9.94-1.33,19.89-2.59,29.85-3.86,.52-.07,.7-.19,.46-.68,2.64-.66,5.32-.49,8-.4Z"/><path class="cls-2" d="M424.95,168.09c-2.08-.81-4.14-1.67-6.24-2.41-1.01-.36-1.32-.93-1.31-1.99,.15-12.26,.25-24.51,.37-36.77,.04-4.34,.09-8.68,.12-13.02,.1-13.34,.19-26.69,.3-40.03,.16-19.28,.33-38.56,.46-57.84,0-1.18,.25-1.74,1.54-1.79,2.23-.08,4.45-.33,6.68-.51,0,6.44,.09,12.86-.22,19.31-.46,9.49,.06,19-.39,28.5-.47,9.68-.02,19.38-.36,29.08-.4,11.4-.16,22.83-.43,34.25-.32,14.03-.32,28.07-.45,42.1,0,.38-.04,.76-.07,1.15Z"/><path class="cls-4" d="M164.64,86.93c-.11-8.18,.21-18.22-.21-28.24-.02-.51-.07-1.02-.12-1.53-.36-3.6-1.52-4.81-5.09-5.27-.89-.11-1.78-.15-2.67-.23-.55-.05-1.01-.21-1.08-.86-.07-.72,.49-.85,.98-.93,.62-.1,1.27-.14,1.9-.11,8.43,.3,16.86,.4,25.29,.01,1-.05,2.65-.45,2.74,.91,.1,1.61-1.67,.94-2.58,1.07-4.75,.68-5.44,1.31-5.91,6.09-.13,1.33-.19,2.68-.19,4.02,0,17.89,.03,35.79,.07,53.68,0,1.98,.15,3.96,.33,5.93,.31,3.35,1.62,4.62,4.95,4.94,1.46,.14,2.93,.24,4.39,.36,.73,.06,1.77-.14,1.68,.98-.07,.99-1.08,.94-1.82,.93-3.83-.04-7.68,.02-11.5-.2-5.82-.34-11.62,.33-17.43,.21-.45,0-.9,.04-1.34-.02-.66-.08-1.34-.28-1.3-1.1,.04-.77,.73-.75,1.3-.8,.89-.07,1.79-.1,2.67-.24,3.01-.48,3.79-1.27,4.21-4.24,.77-5.52,.67-11.09,.72-16.64,.05-5.62,.01-11.25,.01-18.72Z"/><path class="cls-4" d="M456.79,177.17c-1.08,.25-1.96,.88-2.87,1.48-.84,.55-1.19,.37-1.27-.7-.13-1.74,.39-3.41,.38-5.13-.01-7.6-.25-15.21,.09-22.8,.45-10.15-.08-20.3,.39-30.43,.43-9.19-.08-18.38,.36-27.56,.47-9.76-.06-19.53,.4-29.28,.43-9.13-.02-18.25,.36-27.36,.23-5.36,.3-10.7,.3-16.06,0-1.09,.37-1.54,1.52-1.7,7.67-1.06,15.32-2.23,22.98-3.33,6.66-.95,13.33-1.83,19.99-2.79,6.66-.96,13.3-2.01,19.96-2.97,6.72-.97,13.46-1.83,20.18-2.8,5.46-.78,10.9-1.74,16.38-2.43,1.71-.22,3.43-1.05,5.2-.31-21.92,3.84-43.83,7.69-65.75,11.52-12,2.1-24,4.17-36.01,6.22-1.31,.22-1.91,.65-1.91,2.18-.05,22.81-.19,45.62-.27,68.43-.05,15.15,.12,30.3-.13,45.44-.2,12.2-.03,24.41-.21,36.61-.01,1.02,.05,2.04,.08,3.06-.06,.23-.12,.47-.18,.7Z"/><path class="cls-4" d="M424.95,168.09c.02-.38,.06-.76,.07-1.15,.14-14.03,.13-28.07,.45-42.1,.26-11.42,.03-22.84,.43-34.25,.34-9.7-.11-19.4,.36-29.08,.46-9.51-.06-19.01,.39-28.5,.31-6.44,.22-12.87,.22-19.31,0-.1,.04-.18,.11-.24,1.21-.05,2.43-.04,3.63-.15,11.53-1.11,23.07-2.25,34.6-3.35,8.49-.82,16.99-1.58,25.48-2.4,11.09-1.06,22.14-2.47,33.28-3.01,.43,.02,.89-.06,1.18,.38-7.34,.88-14.68,1.78-22.02,2.64-6.9,.81-13.81,1.58-20.71,2.39-9.31,1.08-18.61,2.18-27.92,3.27-7.22,.84-14.43,1.68-21.65,2.52-.25,.03-.51,.02-.76,.06q-2.8,.38-2.81,3.26c0,49.25,0,98.51,0,147.76q0,2.92-2.79,1.94c-.48-.17-.97-.29-1.46-.44-.06-.07-.09-.15-.09-.24Z"/><path class="cls-4" d="M567.74,.49c.24,.49,.05,.62-.46,.68-9.95,1.27-19.9,2.53-29.85,3.86-9.06,1.21-18.1,2.58-27.17,3.75-9.57,1.23-19.14,2.45-28.7,3.82-9.11,1.31-18.26,2.37-27.4,3.54-1.95,.25-3.9,.58-5.86,.73-1.26,.1-1.4,.81-1.4,1.81,.01,4.09,0,8.18,0,12.27,0,12.01,.23,24.03-.08,36.04-.52,20.12,.09,40.24-.4,60.35-.4,16.35-.12,32.69-.28,49.04-.38-.14-.76-.29-1.13-.43-.15-11.18-.15-22.36-.5-33.52-.24-7.66-.06-15.33-.38-22.98-.31-7.6-.16-15.2-.36-22.79-.38-14.75-.52-29.5-.81-44.24-.15-7.73-.09-15.45-.37-23.17-.14-3.83-.17-7.66-.29-11.48-.04-1.25,.37-1.54,1.59-1.68,10.38-1.26,20.74-2.64,31.11-3.96,7.65-.98,15.31-1.92,22.96-2.89,9.68-1.23,19.35-2.48,29.03-3.7,7.53-.95,15.05-1.88,22.58-2.82,1.33-.16,2.66-.29,3.99-.44,.4,.05,.8,.09,1.13-.21,.9-.29,1.93,.13,2.76-.51,3.43-.35,6.86-.7,10.28-1.06Z"/><path class="cls-4" d="M523.12,125.21c.94-4.39,.48-8.88,.82-13.32,.65-8.43,.78-16.9,1.28-25.34,.28-4.76,.5-9.52,.79-14.28,.45-7.43,.58-14.88,1.21-22.28,.45-5.23,0-10.18-2.08-14.91-3.16-7.19-10.68-11.38-18.64-9.13-3.11,.88-5.74,2.63-8.6,3.96,1.75-3.65,4.91-5.55,8.53-6.87,6.28-2.29,13.92-.43,18.03,4.5,2.88,3.46,3.95,7.69,4.53,12.03,1.13,8.58,.65,17.22,.82,25.84,.19,9.45,.14,18.91,.44,28.36,.27,8.11,.2,16.22,.35,24.33,.02,1.4,.17,2.8,.26,4.19-.1,.28-.2,.55-.3,.83-1.57,.66-2.8,1.74-3.86,3.04-1.23,.15-2.28-.57-3.45-.74-.07-.06-.11-.13-.13-.22Z"/><path class="cls-6" d="M219.55,13.66c-.06,.21-.06,.28-.08,.29q-2.77,.99-2.77,4.16c0,1.73,.03,3.46,0,5.2-.01,.73,.22,1.03,.98,1.02,3.8-.03,7.6-.02,11.41,0,.75,0,1.03-.28,1.01-1.02-.05-2.4-.07-4.81-.08-7.21,0-1.11-.61-1.61-1.63-1.86-.54-.13-1.16,.15-1.85-.54h10.85c-.11,.17-.16,.35-.25,.37-2.48,.57-2.56,.56-2.57,3.06-.03,6.35,0,12.7,.06,19.05,.02,2.06,.37,2.33,2.46,2.54,.4,.04,.89-.07,1.24,.59h-11c-.04-.52,.31-.56,.55-.55,1.76,.09,2.08-1.08,2.11-2.43,.06-2.98,.05-5.96,.13-8.95,.02-.92-.37-1.13-1.2-1.12-3.71,.03-7.41,.02-11.12,0-.64,0-1.11,.03-1.09,.89,.06,3.03-.03,6.06,.14,9.09,.12,2.17,.33,2.23,2.52,2.47,.36,.04,1.04-.19,.98,.47-.05,.47-.64,.28-.99,.28-2.93,.02-5.87,.02-8.8,0-.35,0-.93,.18-.97-.32-.05-.55,.55-.42,.89-.43,1.17-.03,1.59-.71,1.65-1.76,.08-1.39,.21-2.78,.22-4.17,.03-5.05,.02-10.1,0-15.15,0-2.92-.1-3.03-2.94-3.5-.18-.03-.38-.07-.4-.47h10.55Z"/><path class="cls-6" d="M255.77,29.7q-1.14-3.14-4.47-3.17-2.92-.03-2.92,2.92c0,1.92-.04,3.85,.02,5.77,.04,1.6,.59,2.14,2.18,2.29,.76,.07,1.54,.09,2.31,.08,2.93-.04,3.18-.23,4.34-3.12,.04-.11,.21-.17,.6-.46,.06,1.87-.05,3.49-.6,5.06-.14,.42-.58,.46-.98,.45-4.91-.03-9.81-.05-14.72-.09-.16,0-.33-.14-.44-.19-.04-.33,.12-.43,.31-.47,2.15-.45,2.41-.7,2.44-3.04,.06-4.43,.05-8.85,.06-13.28,0-1.88,.01-3.75-.03-5.63-.05-2.11-.39-2.44-2.53-2.68-.28-.03-.59,.04-.8-.31,.41-.56,1.04-.33,1.56-.33,3.99,0,7.99-.04,11.98,.07,.98,.03,2.24-.88,2.8,0,.43,.69-.04,1.94-.12,2.94-.02,.29-.07,.57-.12,.86-.07,.35,.12,.92-.39,.96-.57,.05-.43-.55-.44-.88-.06-1.28-.89-1.78-1.98-1.87-1.58-.13-3.17-.13-4.75-.22-.69-.04-.67,.41-.67,.83-.01,2.5,0,5-.01,7.51,0,.58,.2,.91,.83,.9,1.78-.03,3.56-.05,5.34-.08,.19,0,.42-.02,.56-.12,2-1.56,1.24,.13,1.19,1-.07,1.32-.07,2.65-.52,4.29Z"/><path class="cls-6" d="M201.46,39.32h-11.16c.21-.27,.27-.45,.37-.47q2.3-.6,2.44-3.04c.35-6.39,.07-12.79,.17-19.19,0-.64-.03-1.14-.89-1.1-1.82,.09-3.65,.14-5.48,.21-1.23,.05-2.1,.62-2.52,1.8-.1,.28-.17,.64-.52,.59-.46-.07-.38-.52-.33-.82,.2-1.18,.44-2.36,.69-3.53,.1-.46,.28-.82,.89-.64,2.59,.77,5.26,.42,7.89,.45,3.8,.04,7.61,.03,11.41-.04,2.51-.05,2.52-.11,2.36,2.47-.05,.82-.18,1.64-.45,2.55-.67-3.21-3.13-2.93-5.36-2.97-3.37-.07-3.38-.03-3.37,3.31,.01,5.29,.03,10.59,.04,15.88,0,.29,0,.58,.01,.87,.19,2.77,.6,3.2,2.85,3.12,.27,0,.59-.05,.95,.57Z"/><path class="cls-5" d="M523.98,4.56c-11.14,.54-22.19,1.95-33.28,3.01-8.49,.82-16.99,1.58-25.48,2.4-11.53,1.11-23.07,2.25-34.6,3.35-1.2,.12-2.42,.11-3.63,.15-.4-1.97,.42-2.56,2.4-2.7,19.94-1.37,39.88-2.84,59.82-4.3,11.08-.82,22.16-1.69,33.24-2.53,.95-.07,1.91-.05,2.87-.07-.44,.23-.89,.45-1.33,.68Z"/><path class="cls-2" d="M523.98,4.56c.44-.23,.89-.45,1.33-.68,9.54-.82,19.07-1.64,28.61-2.46,.37-.03,.75,.06,1.12,.1-.35,.02-.38,.25-.34,.53-.33,.3-.73,.26-1.13,.21-1.08-.84-2.35-.49-3.46-.32-6.15,.98-12.35,1.48-18.51,2.27-2.14,.27-4.29,.48-6.43,.71-.29-.45-.75-.36-1.18-.38Z"/><path class="cls-5" d="M554.69,2.06c-.04-.28,0-.51,.34-.53,.8,0,1.61,.01,2.42,.02-.83,.65-1.86,.23-2.76,.51Z"/><path class="cls-1" d="M80.94,152.72c-1.51,3.15-3,6.31-4.54,9.44-.29,.59-.35,1.58-1.18,1.55-.66-.02-.79-.91-1.07-1.46-1.51-3.01-2.99-6.03-4.93-9.04-.36,3.04-.75,6.08-1.06,9.13-.1,.99,.98,.79,1.67,1.35-1.81,.4-3.44,.18-5.19,.07,1.39-.6,1.61-1.78,1.79-3.02,.65-4.54,1.33-9.08,2.01-13.61,.06-.42,.26-.83,.86-1.42,2.16,4.41,4.32,8.82,6.48,13.23,.79-.12,.83-.78,1.06-1.26,1.68-3.51,3.33-7.03,5.03-10.54,.23-.46,.24-1.33,1-1.19,.74,.14,.45,.96,.53,1.48,.69,4.41,1.38,8.82,1.98,13.24,.22,1.64,.76,2.83,2.66,3.14-1.63,0-3.27,.01-4.9,0-.46,0-.59-.31-.59-.78-.05-3.45-.88-6.81-1.59-10.3Z"/><path class="cls-1" d="M371.14,163.73c-.1,.05-.2,.15-.3,.15-1.47,0-3.08,.35-4.37-.14-1.66-.63-.59-2.54-.91-3.84-.58-2.33-.73-4.77-1.14-7.73-1.65,3.42-3.05,6.38-4.51,9.32-.39,.79-.58,2.14-1.35,2.17-1.01,.04-1.14-1.36-1.56-2.16-1.43-2.73-2.77-5.52-4.59-8.22-.35,2.95-.69,5.9-1.06,8.85-.16,1.27,1.06,.99,1.86,1.63h-5.87c1.92-.61,2.08-1.8,2.26-3.06,.62-4.42,1.29-8.84,1.99-13.25,.08-.52-.04-1.37,.56-1.49,.84-.17,.87,.8,1.12,1.31,1.92,3.88,3.79,7.78,5.88,12.08,.87-1.75,1.59-3.18,2.29-4.62,1.25-2.59,2.48-5.18,3.73-7.77,.19-.39,.26-1.01,.78-.98,.7,.05,.55,.78,.62,1.22,.7,4.47,1.39,8.95,2.02,13.43,.22,1.6,.51,3.01,2.55,3.09Z"/><path class="cls-1" d="M290.15,146.35h6.69c-1.55,.51-1.68,1.82-1.69,3.1,0,3.06-.2,6.13,.23,9.18,.39,2.75,2.01,4.28,4.53,4.23,2.52-.05,4.21-1.63,4.33-4.4,.14-3.32,.02-6.64,.09-9.96,.03-1.39-.93-1.63-1.9-2.07h5.72c-1.77,.36-1.62,1.72-1.64,3.08-.06,3.06,.26,6.13-.27,9.18-.61,3.52-3.1,5.58-6.88,5.6-3.97,.03-6.35-1.76-7.02-5.34-.59-3.17-.24-6.37-.26-9.56-.01-1.49-.13-2.7-1.94-3.05Z"/><path class="cls-1" d="M126.62,146.34h6.97c-1.83,.72-1.53,2.3-1.49,3.73,.08,2.93-.31,5.88,.25,8.78,.53,2.74,2.09,4.08,4.53,4.01,2.55-.08,4.13-1.54,4.29-4.44,.18-3.31,.04-6.64,.09-9.96,.02-1.35-.95-1.6-1.88-2.06h5.61c-1.7,.46-1.52,1.87-1.57,3.18-.1,2.87,.21,5.74-.19,8.61-.57,4.06-3.21,6.26-7.38,6.11-4.24-.15-6.62-2.43-6.79-6.7-.11-2.68-.01-5.36-.04-8.04-.02-2.28-.04-2.28-2.39-3.21Z"/><path class="cls-1" d="M248.51,153.29c.13,1.33-.12,2.44-.31,3.61-1-1.64-2.51-2.19-4.34-1.76-.72,.17-.7,.62-.7,1.13,0,1.53,0,3.06,0,4.6,0,1.08,.55,1.57,1.64,1.69,2.62,.28,3.41-.03,4.4-1.94,.62,2.96,.32,3.34-2.68,3.34-2.71,0-5.42,0-8.31-.24,1.84-.31,1.71-1.59,1.76-2.8,.19-3.95,.32-7.9,.04-11.86-.1-1.41-.31-2.45-2.15-2.38,1.21-.57,2.36-.33,3.48-.35,2.04-.04,4.11,.15,6.12-.08,1.46-.17,1.67,.27,1.41,1.49-.12,.55-.17,1.12-.33,2.21-.85-3.01-3.3-2.7-4.58-2.14-1.87,.82-.46,3.17-.79,4.81-.18,.89,.36,1.29,1.22,1.26,1.33-.05,2.67-.06,4.11-.61Z"/><path class="cls-1" d="M187.02,159.33c.83,2.85,1.76,3.73,3.84,3.64,2.35-.1,3.5-2.08,2.42-4.16-.58-1.12-1.57-1.83-2.52-2.57-1.21-.94-2.38-1.93-3.14-3.3-1.56-2.84-.41-5.69,2.66-6.7,.69-.22,1.37-.28,2.07-.28,3.48-.03,3.79,.36,3.15,3.98-.59-.14-.41-.71-.6-1.06-.65-1.17-1.62-1.81-2.96-1.74-1.07,.06-2.03,.46-2.38,1.59-.38,1.26,.16,2.25,1.1,3.05,1.02,.87,2.11,1.65,3.11,2.54,2.62,2.33,3.28,5.32,1.72,7.64-1.46,2.17-5.57,3.1-8.19,1.87-.43-.2-.76-.43-.76-.97,0-1.18,0-2.35,0-3.53,.16,0,.33,0,.49,.01Z"/><path class="cls-4" d="M566.22,92.44c.06-7.45,.65-14.87,.86-22.31,.17-5.97,.48-11.94,.74-17.91,.31-7.12,.73-14.23,.72-21.36,0-4.1-.94-7.89-3.11-11.42-2.92-4.74-8.25-5.82-12.82-2.56-2.89,2.06-4.85,4.83-6.6,7.81-.29,.49-.38,1.09-.92,1.42,1.57-9.06,9.29-16.81,20.08-12.19,3.29,1.41,4.83,4.26,5.64,7.54,1.45,5.83,1.19,11.79,1.12,17.72-.12,10.22-.17,20.44-.52,30.65-.25,7.41-.07,14.82-.39,22.22-.05,.16-.1,.31-.15,.47-1.56,.64-3.11,.13-4.66-.06Z"/><path class="cls-4" d="M545.1,26.07c.01,.46,.05,.92-.46,1.18,.14-.4-.11-.95,.46-1.18Z"/><path class="cls-4" d="M497.92,29.9c-.1,.12-.21,.24-.31,.36,0-.2,.03-.39,.31-.36Z"/></g></g></svg>