<?xml version="1.0" encoding="utf-8"?>
<!-- Generator: Adobe Illustrator 26.5.0, SVG Export Plug-In . SVG Version: 6.00 Build 0)  -->
<svg version="1.1" id="Layer_2_00000101064775707928717130000010812690347350228382_"
	 xmlns="http://www.w3.org/2000/svg" xmlns:xlink="http://www.w3.org/1999/xlink" x="0px" y="0px" viewBox="0 0 30.5 21.3"
	 style="enable-background:new 0 0 30.5 21.3;" xml:space="preserve">
<style type="text/css">
	.st0{fill:#FFFFFF;stroke:#000000;stroke-width:0.5;stroke-miterlimit:10;}
</style>
<g id="Layer_1-2">
	<path class="st0" d="M15.6,21.6c-0.9,0-1.3-0.5-1.8-1C9.5,16.3,5.3,12.1,1,7.8c-1.4-1.4-1.2-2.5,0.1-3.8c5.4-5.2,3.5-4.9,8.5-0.2
		c1.5,1.4,3,2.9,4.4,4.4c1,1.1,1.8,1.1,2.8,0c2.2-2.3,4.6-4.5,6.8-6.9c1.5-1.6,2.6-1.3,3.9,0.2c0.3,0.3,0.5,0.7,0.7,1
		c3.3,3.9,3.3,3.9-0.3,7.4c-3.6,3.6-7.4,7.1-11,10.6C16.4,21,15.9,21.3,15.6,21.6L15.6,21.6z"/>
</g>
</svg>
