<?xml version="1.0" encoding="utf-8"?>
<!-- Generator: Adobe Illustrator 26.4.1, SVG Export Plug-In . SVG Version: 6.00 Build 0)  -->
<svg version="1.1" id="Layer_2_00000095304991286666169120000013635002538946558364_"
	 xmlns="http://www.w3.org/2000/svg" xmlns:xlink="http://www.w3.org/1999/xlink" x="0px" y="0px" viewBox="0 0 362.9 378"
	 style="enable-background:new 0 0 362.9 378;" xml:space="preserve">
<style type="text/css">
	.st0{fill:#204367;}
</style>
<path class="st0" d="M214.8,188L354.2,48.6c9.6-9.6,9.6-25.2,0-34.8c-9.6-9.6-25.2-9.6-34.8,0L180,153.2L40.6,13.8
	c-9.6-9.6-25.2-9.6-34.8,0c-9.6,9.6-9.6,25.2,0,34.8L145.2,188L5.8,327.4c-9.6,9.6-9.6,25.2,0,34.8c9.6,9.6,25.2,9.6,34.8,0
	L180,222.8l139.4,139.4c9.6,9.6,25.2,9.6,34.8,0c9.6-9.6,9.6-25.2,0-34.8L214.8,188z"/>
</svg>
