<?xml version="1.0" encoding="UTF-8"?><svg id="Layer_2" xmlns="http://www.w3.org/2000/svg" viewBox="0 0 381.3 271.05"><defs><style>.cls-1{fill:#fff;}</style></defs><g id="Layer_1-2"><path class="cls-1" d="M381.3,246.68c-9.43,18.54-24.43,24.52-44.92,24.37-97.66-.74-195.32-.32-292.98-.34-31.67,0-43.35-11.57-43.37-42.96C-.01,166.75,0,105.75,.02,44.76,.03,11.79,11.18,.35,43.4,.35,141.07,.33,238.73,.76,336.39,0c20.5-.16,35.49,5.8,44.91,24.37V246.68ZM43.64,23.83c-.68,1.25-1.36,2.5-2.04,3.76,46.1,46.01,92.22,92.01,138.29,138.05,9.98,9.97,17.41,4.39,25.14-3.46,42.26-42.95,84.69-85.74,126.99-128.64,2.51-2.55,4.48-5.64,7.65-9.7H43.64Zm-.87,223.41H338.29c-31.16-31.12-61.94-61.86-93.71-93.59-7.87,8.1-16.64,17.53-25.82,26.53-18.46,18.11-37.95,18.34-56-.07-9.25-9.43-17.14-20.23-24.15-28.62-34.25,34.23-64.78,64.73-95.83,95.76ZM23.64,43.22V226.04c30.5-30.41,61.25-61.08,91.85-91.59-29.83-29.63-60.43-60.03-91.85-91.23ZM357.46,227.65V46.1c-30.1,29.84-60.95,60.43-91.03,90.25,29.73,29.81,60.13,60.31,91.03,91.3Z"/></g></svg>