<?xml version="1.0" encoding="utf-8"?>
<!-- Generator: Adobe Illustrator 26.1.0, SVG Export Plug-In . SVG Version: 6.00 Build 0)  -->
<svg version="1.1" id="Layer_1" xmlns="http://www.w3.org/2000/svg" xmlns:xlink="http://www.w3.org/1999/xlink" x="0px" y="0px"
	 viewBox="0 0 2031.8 1373.6" style="enable-background:new 0 0 2031.8 1373.6;" xml:space="preserve">
<style type="text/css">
	.st0{opacity:0.25;}
	.st1{fill:none;stroke:#000000;stroke-width:0.5;stroke-miterlimit:10;}
</style>
<g id="a">
</g>
<g id="b" class="st0">
	<g id="c">
		<g>
			<g>
				<path class="st1" d="M2031.8,0.3C1356.8,0.8,681.6,0.8,5.9,0.2"/>
				<path class="st1" d="M2031.8,60c-675,0.4-1350.2,0.4-2025.9,0"/>
				<path class="st1" d="M2031.8,119.7c-675,0.4-1350.2,0.4-2025.8,0"/>
				<path class="st1" d="M2031.8,179.4c-675,0.4-1350.2,0.4-2025.8,0"/>
				<path class="st1" d="M2031.8,239.1c-675,0.3-1350.2,0.3-2025.8,0"/>
				<path class="st1" d="M2031.8,298.8c-675,0.3-1350.2,0.3-2025.9,0"/>
				<path class="st1" d="M2031.8,358.5c-675,0.3-1350.2,0.3-2025.9,0"/>
				<path class="st1" d="M2031.8,418.2c-675,0.3-1350.2,0.3-2025.8,0"/>
				<path class="st1" d="M2031.8,477.9c-675,0.2-1350.2,0.2-2025.8,0"/>
				<path class="st1" d="M2031.8,537.6c-675,0.2-1350.2,0.2-2025.8,0"/>
				<path class="st1" d="M2031.8,597.3c-675,0.2-1350.2,0.2-2025.9,0"/>
				<path class="st1" d="M2031.8,657c-675,0.1-1350.2,0.1-2025.9,0"/>
				<path class="st1" d="M2031.8,716.7c-675,0.1-1350.2,0.1-2025.8,0"/>
				<path class="st1" d="M2031.8,776.4c-675,0.1-1350.2,0.1-2025.8,0"/>
				<path class="st1" d="M2031.8,836.1c-675,0-1350.2,0-2025.8,0"/>
				<path class="st1" d="M2031.8,895.8c-675,0-1350.2,0-2025.9,0"/>
				<path class="st1" d="M2031.8,955.5c-675,0-1350.2,0-2025.9,0"/>
				<path class="st1" d="M2031.8,1015.2c-675,0-1350.2,0-2025.8,0"/>
				<path class="st1" d="M2031.8,1074.9c-675-0.1-1350.2-0.1-2025.8,0"/>
				<path class="st1" d="M2031.8,1134.6c-675-0.1-1350.2-0.1-2025.8,0"/>
				<path class="st1" d="M2031.8,1194.2c-675-0.1-1350.2-0.1-2025.9,0"/>
				<path class="st1" d="M2031.8,1253.9c-675-0.2-1350.2-0.2-2025.9,0"/>
				<path class="st1" d="M2031.8,1313.6c-675-0.2-1350.2-0.2-2025.8,0"/>
				<path class="st1" d="M2031.8,1373.3c-675-0.2-1350.2-0.2-2025.8,0"/>
			</g>
			<g>
				<path class="st1" d="M598.6,3.9c0.3,455.4,0.3,909.7-0.1,1365.5"/>
				<path class="st1" d="M658.3,3.9c0.3,455.4,0.3,909.7-0.1,1365.4"/>
				<path class="st1" d="M718,3.9c0.3,455.4,0.3,909.7-0.1,1365.3"/>
				<path class="st1" d="M777.6,3.9c0.3,455.4,0.3,909.7-0.1,1365.4"/>
				<path class="st1" d="M837.3,3.9c0.2,455.4,0.2,909.7,0,1365.4"/>
				<path class="st1" d="M897,3.9c0.2,455.4,0.2,909.7,0,1365.5"/>
				<path class="st1" d="M956.7,3.9c0.2,455.4,0.2,909.7,0,1365.4"/>
				<path class="st1" d="M1016.4,3.9c0.2,455.4,0.2,909.7,0,1365.3"/>
				<path class="st1" d="M1076.1,3.9c0.1,455.4,0.1,909.7,0,1365.4"/>
				<path class="st1" d="M1135.8,3.9c0.1,455.4,0.1,909.7,0,1365.4"/>
				<path class="st1" d="M1195.5,3.9c0.1,455.4,0.1,909.7,0,1365.5"/>
				<path class="st1" d="M1255.2,3.9c0,455.4,0,909.7,0,1365.4"/>
				<path class="st1" d="M1314.9,3.9c0,455.4,0,909.7,0,1365.3"/>
				<path class="st1" d="M1374.6,3.9c0,455.4,0,909.7,0,1365.4"/>
				<path class="st1" d="M1434.3,3.9c0,455.4,0,909.7,0,1365.4"/>
				<path class="st1" d="M1494,3.9c-0.1,455.4-0.1,909.7,0,1365.5"/>
				<path class="st1" d="M1553.7,3.9c-0.1,455.4-0.1,909.7,0,1365.4"/>
				<path class="st1" d="M1613.4,3.9c-0.1,455.4-0.1,909.7,0,1365.3"/>
				<path class="st1" d="M1673.1,3.9c-0.1,455.4-0.1,909.7,0,1365.4"/>
				<path class="st1" d="M1732.8,3.9c-0.2,455.4-0.2,909.7,0,1365.4"/>
				<path class="st1" d="M1792.5,3.9c-0.2,455.4-0.2,909.7,0,1365.5"/>
				<path class="st1" d="M1852.2,3.9c-0.2,455.4-0.2,909.7,0,1365.4"/>
				<path class="st1" d="M1911.9,3.9c-0.3,455.4-0.3,909.7,0.1,1365.3"/>
				<path class="st1" d="M1971.6,3.9c-0.3,455.4-0.3,909.7,0.1,1365.4"/>
				<path class="st1" d="M2031.2,3.9c-0.3,455.4-0.3,909.7,0.1,1365.4"/>
			</g>
			<g>
				<path class="st1" d="M0.5,3.8C0.1,459.3,0.1,913.6,0.6,1369.3"/>
				<path class="st1" d="M60.2,3.8c-0.4,455.4-0.4,909.7,0.1,1365.4"/>
				<path class="st1" d="M120.1,3.8c0.4,455.4,0.4,909.7-0.1,1365.4"/>
				<path class="st1" d="M179.8,3.8c0.4,455.4,0.4,909.7-0.1,1365.5"/>
				<path class="st1" d="M239.5,3.8c0.4,455.4,0.4,909.7-0.1,1365.4"/>
				<path class="st1" d="M299.2,3.8c0.3,455.4,0.3,909.7-0.1,1365.5"/>
				<path class="st1" d="M358.9,3.8c0.3,455.4,0.3,909.7-0.1,1365.4"/>
				<path class="st1" d="M418.6,3.8c0.3,455.4,0.3,909.7,0,1365.4"/>
				<path class="st1" d="M478.3,3.8c0.3,455.4,0.3,909.7,0,1365.5"/>
				<path class="st1" d="M538,3.8c0.2,455.4,0.2,909.7,0,1365.4"/>
			</g>
		</g>
	</g>
</g>
</svg>
