<?xml version="1.0" encoding="utf-8"?>
<!-- Generator: Adobe Illustrator 26.4.1, SVG Export Plug-In . SVG Version: 6.00 Build 0)  -->
<svg version="1.1" id="Layer_1" xmlns="http://www.w3.org/2000/svg" xmlns:xlink="http://www.w3.org/1999/xlink" x="0px" y="0px"
	 viewBox="0 0 409.6 409.6" style="enable-background:new 0 0 409.6 409.6;" xml:space="preserve">
<style type="text/css">
	.st0{fill:#021752;}
</style>
<g id="a">
</g>
<g id="b">
	<g id="c">
		<g id="d">
			<path class="st0" d="M409.6,409.6v-150c0-73.7-15.9-130.1-101.9-130.1c-41.5,0-69.1,22.5-80.4,44h-1v-37.4h-81.4v273.4h85V273.9
				c0-35.8,6.7-70.1,50.7-70.1s44,40.4,44,72.2v133.1h85V409.6L409.6,409.6z"/>
			<path class="st0" d="M6.7,136.2h85v273.4h-85V136.2z"/>
			<path class="st0" d="M49.2,0C22,0,0,22,0,49.2s22,49.7,49.2,49.7s49.2-22.5,49.2-49.7S76.3,0,49.2,0z"/>
		</g>
	</g>
</g>
</svg>
