<?xml version="1.0" encoding="UTF-8"?><svg xmlns="http://www.w3.org/2000/svg" viewBox="0 0 409.6 409.6"><defs><style>.e{fill:#fff;}</style></defs><g id="a"/><g id="b"><g id="c"><g id="d"><path class="e" d="M409.6,409.6v-150.02c0-73.73-15.87-130.05-101.89-130.05-41.47,0-69.12,22.53-80.38,44.03h-1.02v-37.38h-81.41V409.6h84.99v-135.68c0-35.84,6.66-70.14,50.69-70.14s44.03,40.45,44.03,72.19v133.12h84.99v.51Z"/><path class="e" d="M6.66,136.19H91.65V409.6H6.66V136.19Z"/><path class="e" d="M49.15,0C22.02,0,0,22.02,0,49.15s22.02,49.66,49.15,49.66,49.15-22.53,49.15-49.66S76.29,0,49.15,0Z"/></g></g></g></svg>