<?xml version="1.0" encoding="UTF-8"?><svg id="Layer_2" xmlns="http://www.w3.org/2000/svg" viewBox="0 0 512 512"><defs><style>.cls-1{fill:#fff;}</style></defs><g id="Layer_1-2"><g><path class="cls-1" d="M512,52V460c-.35,1.07-.79,2.11-1.04,3.2-5.03,22.3-18.17,37.56-39.61,45.54-3.68,1.37-7.56,2.19-11.35,3.26H52c-1.07-.35-2.11-.8-3.2-1.03-17.64-3.8-31.59-13.11-40.41-28.87-3.8-6.8-5.65-14.7-8.39-22.1C0,324,0,188,0,52c.33-.91,.78-1.79,.96-2.72C4.13,33.24,11.97,19.83,25.77,11.15,33.72,6.16,43.21,3.64,52,0,188,0,324,0,460,0c1.07,.35,2.12,.8,3.21,1.03,17.69,3.73,31.58,13.12,40.4,28.87,3.81,6.8,5.65,14.7,8.39,22.1Zm-256.1-12c-64.32,0-128.64,0-192.95,0-15.2,0-22.94,7.81-22.94,23.13,0,128.64,0,257.27,0,385.91,0,15.19,7.82,22.95,23.13,22.95,128.64,0,257.27,0,385.91,0,15.18,0,22.95-7.84,22.95-23.14,0-128.64,0-257.27,0-385.91,0-15.2-7.82-22.94-23.14-22.94-64.32,0-128.64,0-192.95,0Z"/><path class="cls-1" d="M421.82,422.75h-68.82c0-2.02,0-3.81,0-5.6-.02-37.33,.06-74.65-.14-111.98-.04-7.13-.75-14.32-1.94-21.35-3.91-23.06-19.53-34.04-42.73-30.44-19.03,2.95-30.17,13.8-33.95,34.1-1.48,7.97-2.09,16.21-2.14,24.33-.23,34.99-.1,69.99-.1,104.98,0,1.82,0,3.64,0,5.84h-67.68V197.26h67.48v29.81c3.19-4.12,5.38-7.37,7.99-10.24,13.63-14.96,31.12-22,50.87-23.48,17.27-1.3,34.32,.31,50.36,7.56,20.18,9.11,31.15,25.79,35.66,46.57,2.88,13.26,4.79,26.99,4.99,40.54,.64,43.98,.29,87.98,.31,131.97,0,.81-.1,1.61-.17,2.76Z"/><path class="cls-1" d="M90.36,197.22h69.37v225.55H90.36V197.22Z"/><path class="cls-1" d="M166.98,125.32c-.14,22.52-18.71,40.81-41.3,40.67-22.52-.14-40.79-18.71-40.66-41.31,.13-22.53,18.68-40.79,41.3-40.66,22.53,.13,40.8,18.69,40.66,41.3Z"/></g></g></svg>