<?xml version="1.0" encoding="UTF-8"?><svg id="Layer_2" xmlns="http://www.w3.org/2000/svg" viewBox="0 0 67.91 119.8"><defs><style>.cls-1{fill:#fff;}</style></defs><g id="Layer_1-2"><path class="cls-1" d="M7.49,119.8c-1.85-.52-3.62-1.19-4.98-2.63C.76,115.32,0,113.1,0,110.57c0-4.8,0-9.59,0-14.39C0,67.3,.01,38.4,0,9.51,0,5.68,1.41,2.64,4.96,.96,6.18,.38,7.65,.05,9.01,.05,25.62-.01,42.23,0,58.85,.02c5.39,0,9.01,3.82,9.01,9.37,0,25.3,0,50.61,0,75.91,0,7.95-.12,15.91,.05,23.86,.1,4.79-1.47,9.09-7.53,10.64H7.49Zm53.75-22.74V14.83H6.65V97.05H61.24Zm-37.89,13.36h21.11v-6.39H23.34v6.39Zm-1.11-101.62h23.32v-2.38H22.24v2.38Zm31.1-3.29c-1.22,.03-2.17,1.05-2.13,2.28,.04,1.23,1.04,2.15,2.29,2.1,1.18-.05,2.11-1.03,2.1-2.2-.01-1.21-1.05-2.21-2.25-2.18Z"/></g></svg>