<?xml version="1.0" encoding="utf-8"?>
<!-- Generator: Adobe Illustrator 26.5.0, SVG Export Plug-In . SVG Version: 6.00 Build 0)  -->
<svg version="1.1" id="Layer_1" xmlns="http://www.w3.org/2000/svg" xmlns:xlink="http://www.w3.org/1999/xlink" x="0px" y="0px"
	 viewBox="0 0 1733.3 314.9" style="enable-background:new 0 0 1733.3 314.9;" xml:space="preserve">
<style type="text/css">
	.st0{fill:#0A1C3D;}
	.st1{fill:#F1E9D4;}
	.st2{fill:#204367;}
</style>
<g id="a">
</g>
<g id="b">
	<g id="c">
		<path class="st0" d="M477.2,284c418.2-1.5,836.5-3.1,1254.7-4.6V82.1c-187.5-25.6-275-30.4-317.1-31c-5.3-0.1-9.7-0.1-9.7-0.1
			c-27.1,0-94.3,1.6-180.3,20.3c-61.7,13.5-80.4,25.6-142.8,39.6c-7.4,1.6-11.1,2.5-14.4,3.1c-80.8,16-157.3-5.8-182.5-12.2
			c-136.5-34.4-155.5,33.8-273.6-4.5c-79.1-25.6-94.4-64.1-200-87c-31.8-6.9-60.7-12.9-99.1-9.1c-77,7.8-146.7,50.7-159.7,58.7
			c-9,5.5-31.3,18.5-62.4,33.1c-11.5,5.4-25.3,10.6-43.9,15.7c-19,5.2-35,8.1-46.2,9.9v165.3C159.2,283.9,318.2,284,477.2,284z"/>
		<path class="st1" d="M1731.9,284V158.3c-59.9-9.1-111-11.7-149.4-12.1c-18.2-0.2-101.2-1.3-212.2,18.4
			c-68.9,12.2-89.8,23.2-159.4,35.9c-7.7,1.4-11.6,2.1-13.7,2.5c-78.6,11.7-145.1-18.1-174.6-29.7
			c-100.1-39.7-204.3-41.8-253.5-42.8c-102.9-2.1-157.4,18.7-237.3-4.4c-11-3.2-34.8-10.6-69.7-16.8c-35.5-6.3-67.7-11.8-110.6-8.3
			c-86,7-163.9,46-178.3,53.3c-10,5.1-34.9,16.8-69.7,30c-12.8,4.8-28.3,9.6-49.1,14.3c-22.9,5.1-41.8,7.7-54.4,9.3v76.2L1731.9,284
			L1731.9,284z"/>
		<path class="st2" d="M1733.1,314.8c0.1-21.3,0.1-42.7,0.2-64c-24.9-21.3-67.1-52-125-68.8c-13.4-3.9-60.9-16.8-130.4-9.3
			c-68.2,7.4-126.7,41.7-172.4,55.9c-163.1,50.8-238.5-117.3-431-84.6C773,161.2,757,214.3,670.2,201.4
			c-40-5.9-49.4-17.3-187.3-64.7c-46.6-16-70.4-24-99.2-26.4c-73.8-6-135.5,19.2-160,30.6c-33.2,15.5-47.7,28.8-115.6,62.5
			c-10.9,5.4-28.7,14.4-53,22.2c-22.5,7.2-41.5,11.3-55,13.8v75.5C577.8,314.9,1155.4,314.8,1733.1,314.8z"/>
	</g>
</g>
</svg>
