<?xml version="1.0" encoding="UTF-8"?><svg id="Layer_2" xmlns="http://www.w3.org/2000/svg" viewBox="0 0 1734.04 454.47"><defs><style>.cls-1{fill:#f1e9d4;}.cls-2{fill:#204367;}.cls-3{fill:#0a1c3d;}</style></defs><g id="Layer_1-2"><path class="cls-3" d="M477.2,283.98c418.2-1.5,836.5-3.1,1254.7-4.6V82.08c-187.5-25.6-275-30.4-317.1-31-5.3-.1-9.7-.1-9.7-.1-27.1,0-94.3,1.6-180.3,20.3-61.7,13.5-80.4,25.6-142.8,39.6-7.4,1.6-11.1,2.5-14.4,3.1-80.8,16-157.3-5.8-182.5-12.2-136.5-34.4-155.5,33.8-273.6-4.5-79.1-25.6-94.4-64.1-200-87-31.8-6.9-60.7-12.9-99.1-9.1-77,7.8-146.7,50.7-159.7,58.7-9,5.5-31.3,18.5-62.4,33.1-11.5,5.4-25.3,10.6-43.9,15.7C27.4,113.88,11.4,116.78,.2,118.58v165.3c159,0,318,.1,477,.1Z"/><path class="cls-1" d="M1731.9,283.98v-125.7c-59.9-9.1-111-11.7-149.4-12.1-18.2-.2-101.2-1.3-212.2,18.4-68.9,12.2-89.8,23.2-159.4,35.9-7.7,1.4-11.6,2.1-13.7,2.5-78.6,11.7-145.1-18.1-174.6-29.7-100.1-39.7-204.3-41.8-253.5-42.8-102.9-2.1-157.4,18.7-237.3-4.4-11-3.2-34.8-10.6-69.7-16.8-35.5-6.3-67.7-11.8-110.6-8.3-86,7-163.9,46-178.3,53.3-10,5.1-34.9,16.8-69.7,30-12.8,4.8-28.3,9.6-49.1,14.3-22.9,5.1-41.8,7.7-54.4,9.3v76.2l1731.9-.1h0Z"/><path class="cls-2" d="M1733.1,284.08c.03-11.11,.05-22.22,.1-33.3-24.9-21.3-67.1-52-125-68.8-13.4-3.9-60.9-16.8-130.4-9.3-68.2,7.4-126.7,41.7-172.4,55.9-163.1,50.8-238.5-117.3-431-84.6-101.5,17.2-117.5,70.3-204.3,57.4-40-5.9-49.4-17.3-187.3-64.7-46.6-16-70.4-24-99.2-26.4-73.8-6-135.5,19.2-160,30.6-33.2,15.5-47.7,28.8-115.6,62.5-10.9,5.4-28.7,14.4-53,22.2C32.5,232.78,13.5,236.88,0,239.38v215.09H1734.04v-170.39h-.95Z"/></g></svg>