<?xml version="1.0" encoding="utf-8"?>
<!-- Generator: Adobe Illustrator 26.3.1, SVG Export Plug-In . SVG Version: 6.00 Build 0)  -->
<svg version="1.1" id="Layer_1" xmlns="http://www.w3.org/2000/svg" xmlns:xlink="http://www.w3.org/1999/xlink" x="0px" y="0px"
	 viewBox="0 0 1733.2 312.7" style="enable-background:new 0 0 1733.2 312.7;" xml:space="preserve">
<style type="text/css">
	.st0{fill:#0A1C3D;}
	.st1{fill:#F1E9D4;}
	.st2{fill:#204367;}
</style>
<g id="a">
</g>
<g id="b">
	<g id="c">
		<path class="st0" d="M1256,27C837.8,28.5,419.5,30.1,1.3,31.6v197.3c187.5,25.6,275,30.4,317.1,31c5.3,0.1,9.7,0.1,9.7,0.1
			c27.1,0,94.3-1.6,180.3-20.3c61.7-13.4,80.4-25.5,142.8-39.5c7.4-1.6,11.1-2.5,14.4-3.1c80.8-16,157.3,5.8,182.5,12.2
			c136.5,34.4,155.5-33.8,273.6,4.5c79.1,25.6,94.4,64.1,200,87c31.8,6.9,60.7,12.9,99.1,9.1c77-7.8,146.7-50.8,159.7-58.8
			c9-5.5,31.3-18.5,62.4-33.1c11.5-5.4,25.3-10.6,43.9-15.7c19-5.2,35-8.1,46.2-9.9V27.1C1574,27.1,1415,27,1256,27z"/>
		<path class="st1" d="M1.3,27v125.7c59.9,9.1,111,11.7,149.4,12.1c18.2,0.2,101.2,1.3,212.2-18.4c68.9-12.2,89.8-23.2,159.4-35.9
			c7.7-1.4,11.6-2.1,13.7-2.5c78.6-11.7,145.1,18.1,174.6,29.7c100.1,39.7,204.3,41.8,253.5,42.8c102.9,2.1,157.4-18.7,237.3,4.4
			c11,3.2,34.8,10.6,69.7,16.8c35.5,6.3,67.7,11.8,110.6,8.3c86-7,163.9-46,178.3-53.3c10-5.1,34.9-16.8,69.7-30
			c12.8-4.8,28.3-9.6,49.1-14.3c22.9-5.1,41.8-7.7,54.4-9.3V26.9L1.3,27L1.3,27z"/>
		<path class="st2" d="M0.1-3.8C0,17.5,0,38.9-0.1,60.2c24.9,21.3,67.1,52,125,68.8c13.4,3.9,60.9,16.8,130.4,9.3
			c68.2-7.4,126.7-41.7,172.4-55.9c163.1-50.8,238.5,117.3,431,84.6c101.5-17.2,117.5-70.3,204.3-57.4c40,5.9,49.4,17.3,187.3,64.7
			c46.6,16,70.4,24,99.2,26.4c73.8,6,135.5-19.2,160-30.6c33.2-15.5,47.7-28.8,115.6-62.5c10.9-5.4,28.7-14.4,53-22.2
			c22.5-7.2,41.5-11.3,55-13.8V-3.9C1155.4-3.9,577.8-3.8,0.1-3.8z"/>
	</g>
</g>
</svg>
