<?xml version="1.0" encoding="utf-8"?>
<!-- Generator: Adobe Illustrator 26.5.0, SVG Export Plug-In . SVG Version: 6.00 Build 0)  -->
<svg version="1.1" id="Layer_2_00000039095245422065095460000005237013969301206707_"
	 xmlns="http://www.w3.org/2000/svg" xmlns:xlink="http://www.w3.org/1999/xlink" x="0px" y="0px" viewBox="0 0 1731.7 284"
	 style="enable-background:new 0 0 1731.7 284;" xml:space="preserve">
<style type="text/css">
	.st0{fill:#204367;}
</style>
<path class="st0" d="M115.3,304.8"/>
<path class="st0" d="M1414.6,51.1c-5.3-0.1-9.7-0.1-9.7-0.1c-27.1,0-94.3,1.6-180.3,20.3c-61.7,13.5-80.4,25.6-142.8,39.6
	c-7.4,1.6-11.1,2.5-14.4,3.1c-80.8,16-157.3-5.8-182.5-12.2c-136.5-34.4-155.5,33.8-273.6-4.5c-79.1-25.6-94.4-64.1-200-87
	c-31.8-6.9-60.7-12.9-99.1-9.1c-77,7.8-146.7,50.7-159.7,58.7c-9,5.5-31.3,18.5-62.4,33.1c-11.5,5.4-25.3,10.6-43.9,15.7
	c-18,4.9-33.3,7.8-44.4,9.6v256.1c575.9-0.1,1151.9-0.1,1727.8-0.2V81.8C1543.6,56.4,1456.5,51.7,1414.6,51.1z"/>
</svg>
