<?xml version="1.0" encoding="UTF-8"?>
<svg xmlns="http://www.w3.org/2000/svg" width="1751.151" height="314.567" viewBox="0 0 1751.151 314.567">
  <defs>
    <style>
      .d {
        fill: #005bc5;
      }

      .e {
        fill: #f1e9d4;
      }
    </style>
  </defs>
  <g id="a" data-name="Layer 1"/>
  <g id="b" data-name="Layer 2">
    <g id="c" data-name="Layer 1">
      <path class="d" d="M1609.466,314.567c33.927-74.479,67.853-148.959,101.78-223.439-158.87-28.567-243.873-34.238-288.796-34.904-5.376-.08-9.714-.09-9.715-.09-27.143-.041-94.343,1.771-180.285,22.402-61.743,14.822-80.387,28.119-142.762,43.535-23.212,5.737-102.022,24.609-204.346,25.214-95.59,.565-175.453,1.037-266.227-40.195-75.589-34.334-104.338-72.875-199.977-95.772-31.791-7.611-60.669-14.25-99.088-9.976-76.983,8.564-146.74,55.877-159.715,64.677-8.995,6.101-31.255,20.399-62.438,36.368-11.451,5.864-25.344,11.701-43.934,17.325-23.889,7.227-43.084,10.335-53.848,12.178-.039,60.892-.078,121.784-.117,182.676H1609.466Z"/>
      <path class="e" d="M1749.084,314.567c.689-77.65,1.378-155.3,2.066-232.95-12.257-.833-24.494-1.415-36.613-1.698-99.856-2.337-182.916,14.315-228.801,24.26-74.352,16.116-96.803,30.574-171.916,47.337-110.543,24.67-211.972,26.842-246.077,27.416-167.46,2.818-302.418-26.988-387.654-50.493-16.322-4.501-73.021-21.729-186.802-54.89-46.44-13.535-70.244-20.343-98.905-22.326-73.642-5.096-135.123,16.221-159.62,25.938-33.13,13.142-47.546,24.445-115.273,52.953-10.867,4.574-28.588,12.196-52.906,18.838-28.768,7.858-51.883,11.238-64.845,13.242l-.108,152.373H1749.084Z"/>
    </g>
  </g>
</svg>